%TF.GenerationSoftware,KiCad,Pcbnew,9.0.2*%
%TF.CreationDate,2026-01-19T20:33:58+01:00*%
%TF.ProjectId,Filament-Silicagel-Dryer,46696c61-6d65-46e7-942d-53696c696361,rev?*%
%TF.SameCoordinates,Original*%
%TF.FileFunction,Legend,Top*%
%TF.FilePolarity,Positive*%
%FSLAX46Y46*%
G04 Gerber Fmt 4.6, Leading zero omitted, Abs format (unit mm)*
G04 Created by KiCad (PCBNEW 9.0.2) date 2026-01-19 20:33:58*
%MOMM*%
%LPD*%
G01*
G04 APERTURE LIST*
%ADD10C,0.150000*%
%ADD11C,0.120000*%
G04 APERTURE END LIST*
D10*
X90914166Y-123754819D02*
X90914166Y-124469104D01*
X90914166Y-124469104D02*
X90866547Y-124611961D01*
X90866547Y-124611961D02*
X90771309Y-124707200D01*
X90771309Y-124707200D02*
X90628452Y-124754819D01*
X90628452Y-124754819D02*
X90533214Y-124754819D01*
X91342738Y-123850057D02*
X91390357Y-123802438D01*
X91390357Y-123802438D02*
X91485595Y-123754819D01*
X91485595Y-123754819D02*
X91723690Y-123754819D01*
X91723690Y-123754819D02*
X91818928Y-123802438D01*
X91818928Y-123802438D02*
X91866547Y-123850057D01*
X91866547Y-123850057D02*
X91914166Y-123945295D01*
X91914166Y-123945295D02*
X91914166Y-124040533D01*
X91914166Y-124040533D02*
X91866547Y-124183390D01*
X91866547Y-124183390D02*
X91295119Y-124754819D01*
X91295119Y-124754819D02*
X91914166Y-124754819D01*
X147256666Y-126244819D02*
X146923333Y-125768628D01*
X146685238Y-126244819D02*
X146685238Y-125244819D01*
X146685238Y-125244819D02*
X147066190Y-125244819D01*
X147066190Y-125244819D02*
X147161428Y-125292438D01*
X147161428Y-125292438D02*
X147209047Y-125340057D01*
X147209047Y-125340057D02*
X147256666Y-125435295D01*
X147256666Y-125435295D02*
X147256666Y-125578152D01*
X147256666Y-125578152D02*
X147209047Y-125673390D01*
X147209047Y-125673390D02*
X147161428Y-125721009D01*
X147161428Y-125721009D02*
X147066190Y-125768628D01*
X147066190Y-125768628D02*
X146685238Y-125768628D01*
X147685238Y-125721009D02*
X148018571Y-125721009D01*
X148161428Y-126244819D02*
X147685238Y-126244819D01*
X147685238Y-126244819D02*
X147685238Y-125244819D01*
X147685238Y-125244819D02*
X148161428Y-125244819D01*
X148923333Y-125721009D02*
X148590000Y-125721009D01*
X148590000Y-126244819D02*
X148590000Y-125244819D01*
X148590000Y-125244819D02*
X149066190Y-125244819D01*
X149590000Y-125244819D02*
X149590000Y-125482914D01*
X149351905Y-125387676D02*
X149590000Y-125482914D01*
X149590000Y-125482914D02*
X149828095Y-125387676D01*
X149447143Y-125673390D02*
X149590000Y-125482914D01*
X149590000Y-125482914D02*
X149732857Y-125673390D01*
X150351905Y-125244819D02*
X150351905Y-125482914D01*
X150113810Y-125387676D02*
X150351905Y-125482914D01*
X150351905Y-125482914D02*
X150590000Y-125387676D01*
X150209048Y-125673390D02*
X150351905Y-125482914D01*
X150351905Y-125482914D02*
X150494762Y-125673390D01*
X83714819Y-115061904D02*
X84524342Y-115061904D01*
X84524342Y-115061904D02*
X84619580Y-115014285D01*
X84619580Y-115014285D02*
X84667200Y-114966666D01*
X84667200Y-114966666D02*
X84714819Y-114871428D01*
X84714819Y-114871428D02*
X84714819Y-114680952D01*
X84714819Y-114680952D02*
X84667200Y-114585714D01*
X84667200Y-114585714D02*
X84619580Y-114538095D01*
X84619580Y-114538095D02*
X84524342Y-114490476D01*
X84524342Y-114490476D02*
X83714819Y-114490476D01*
X84714819Y-113490476D02*
X84714819Y-114061904D01*
X84714819Y-113776190D02*
X83714819Y-113776190D01*
X83714819Y-113776190D02*
X83857676Y-113871428D01*
X83857676Y-113871428D02*
X83952914Y-113966666D01*
X83952914Y-113966666D02*
X84000533Y-114061904D01*
X104894762Y-114231009D02*
X105228095Y-114231009D01*
X105370952Y-114754819D02*
X104894762Y-114754819D01*
X104894762Y-114754819D02*
X104894762Y-113754819D01*
X104894762Y-113754819D02*
X105370952Y-113754819D01*
X105751905Y-114707200D02*
X105894762Y-114754819D01*
X105894762Y-114754819D02*
X106132857Y-114754819D01*
X106132857Y-114754819D02*
X106228095Y-114707200D01*
X106228095Y-114707200D02*
X106275714Y-114659580D01*
X106275714Y-114659580D02*
X106323333Y-114564342D01*
X106323333Y-114564342D02*
X106323333Y-114469104D01*
X106323333Y-114469104D02*
X106275714Y-114373866D01*
X106275714Y-114373866D02*
X106228095Y-114326247D01*
X106228095Y-114326247D02*
X106132857Y-114278628D01*
X106132857Y-114278628D02*
X105942381Y-114231009D01*
X105942381Y-114231009D02*
X105847143Y-114183390D01*
X105847143Y-114183390D02*
X105799524Y-114135771D01*
X105799524Y-114135771D02*
X105751905Y-114040533D01*
X105751905Y-114040533D02*
X105751905Y-113945295D01*
X105751905Y-113945295D02*
X105799524Y-113850057D01*
X105799524Y-113850057D02*
X105847143Y-113802438D01*
X105847143Y-113802438D02*
X105942381Y-113754819D01*
X105942381Y-113754819D02*
X106180476Y-113754819D01*
X106180476Y-113754819D02*
X106323333Y-113802438D01*
X106751905Y-114754819D02*
X106751905Y-113754819D01*
X106751905Y-113754819D02*
X107132857Y-113754819D01*
X107132857Y-113754819D02*
X107228095Y-113802438D01*
X107228095Y-113802438D02*
X107275714Y-113850057D01*
X107275714Y-113850057D02*
X107323333Y-113945295D01*
X107323333Y-113945295D02*
X107323333Y-114088152D01*
X107323333Y-114088152D02*
X107275714Y-114183390D01*
X107275714Y-114183390D02*
X107228095Y-114231009D01*
X107228095Y-114231009D02*
X107132857Y-114278628D01*
X107132857Y-114278628D02*
X106751905Y-114278628D01*
X107656667Y-113754819D02*
X108275714Y-113754819D01*
X108275714Y-113754819D02*
X107942381Y-114135771D01*
X107942381Y-114135771D02*
X108085238Y-114135771D01*
X108085238Y-114135771D02*
X108180476Y-114183390D01*
X108180476Y-114183390D02*
X108228095Y-114231009D01*
X108228095Y-114231009D02*
X108275714Y-114326247D01*
X108275714Y-114326247D02*
X108275714Y-114564342D01*
X108275714Y-114564342D02*
X108228095Y-114659580D01*
X108228095Y-114659580D02*
X108180476Y-114707200D01*
X108180476Y-114707200D02*
X108085238Y-114754819D01*
X108085238Y-114754819D02*
X107799524Y-114754819D01*
X107799524Y-114754819D02*
X107704286Y-114707200D01*
X107704286Y-114707200D02*
X107656667Y-114659580D01*
X108656667Y-113850057D02*
X108704286Y-113802438D01*
X108704286Y-113802438D02*
X108799524Y-113754819D01*
X108799524Y-113754819D02*
X109037619Y-113754819D01*
X109037619Y-113754819D02*
X109132857Y-113802438D01*
X109132857Y-113802438D02*
X109180476Y-113850057D01*
X109180476Y-113850057D02*
X109228095Y-113945295D01*
X109228095Y-113945295D02*
X109228095Y-114040533D01*
X109228095Y-114040533D02*
X109180476Y-114183390D01*
X109180476Y-114183390D02*
X108609048Y-114754819D01*
X108609048Y-114754819D02*
X109228095Y-114754819D01*
X109656667Y-114373866D02*
X110418572Y-114373866D01*
X110894762Y-114754819D02*
X110894762Y-113754819D01*
X110894762Y-113754819D02*
X111132857Y-113754819D01*
X111132857Y-113754819D02*
X111275714Y-113802438D01*
X111275714Y-113802438D02*
X111370952Y-113897676D01*
X111370952Y-113897676D02*
X111418571Y-113992914D01*
X111418571Y-113992914D02*
X111466190Y-114183390D01*
X111466190Y-114183390D02*
X111466190Y-114326247D01*
X111466190Y-114326247D02*
X111418571Y-114516723D01*
X111418571Y-114516723D02*
X111370952Y-114611961D01*
X111370952Y-114611961D02*
X111275714Y-114707200D01*
X111275714Y-114707200D02*
X111132857Y-114754819D01*
X111132857Y-114754819D02*
X110894762Y-114754819D01*
X112275714Y-114707200D02*
X112180476Y-114754819D01*
X112180476Y-114754819D02*
X111990000Y-114754819D01*
X111990000Y-114754819D02*
X111894762Y-114707200D01*
X111894762Y-114707200D02*
X111847143Y-114611961D01*
X111847143Y-114611961D02*
X111847143Y-114231009D01*
X111847143Y-114231009D02*
X111894762Y-114135771D01*
X111894762Y-114135771D02*
X111990000Y-114088152D01*
X111990000Y-114088152D02*
X112180476Y-114088152D01*
X112180476Y-114088152D02*
X112275714Y-114135771D01*
X112275714Y-114135771D02*
X112323333Y-114231009D01*
X112323333Y-114231009D02*
X112323333Y-114326247D01*
X112323333Y-114326247D02*
X111847143Y-114421485D01*
X112656667Y-114088152D02*
X112894762Y-114754819D01*
X112894762Y-114754819D02*
X113132857Y-114088152D01*
X113513810Y-114754819D02*
X113513810Y-113754819D01*
X114085238Y-114754819D02*
X113656667Y-114183390D01*
X114085238Y-113754819D02*
X113513810Y-114326247D01*
X114513810Y-114754819D02*
X114513810Y-114088152D01*
X114513810Y-113754819D02*
X114466191Y-113802438D01*
X114466191Y-113802438D02*
X114513810Y-113850057D01*
X114513810Y-113850057D02*
X114561429Y-113802438D01*
X114561429Y-113802438D02*
X114513810Y-113754819D01*
X114513810Y-113754819D02*
X114513810Y-113850057D01*
X114847143Y-114088152D02*
X115228095Y-114088152D01*
X114990000Y-113754819D02*
X114990000Y-114611961D01*
X114990000Y-114611961D02*
X115037619Y-114707200D01*
X115037619Y-114707200D02*
X115132857Y-114754819D01*
X115132857Y-114754819D02*
X115228095Y-114754819D01*
X116132857Y-114659580D02*
X116085238Y-114707200D01*
X116085238Y-114707200D02*
X115942381Y-114754819D01*
X115942381Y-114754819D02*
X115847143Y-114754819D01*
X115847143Y-114754819D02*
X115704286Y-114707200D01*
X115704286Y-114707200D02*
X115609048Y-114611961D01*
X115609048Y-114611961D02*
X115561429Y-114516723D01*
X115561429Y-114516723D02*
X115513810Y-114326247D01*
X115513810Y-114326247D02*
X115513810Y-114183390D01*
X115513810Y-114183390D02*
X115561429Y-113992914D01*
X115561429Y-113992914D02*
X115609048Y-113897676D01*
X115609048Y-113897676D02*
X115704286Y-113802438D01*
X115704286Y-113802438D02*
X115847143Y-113754819D01*
X115847143Y-113754819D02*
X115942381Y-113754819D01*
X115942381Y-113754819D02*
X116085238Y-113802438D01*
X116085238Y-113802438D02*
X116132857Y-113850057D01*
X106329366Y-106235350D02*
X106296033Y-106302017D01*
X106296033Y-106302017D02*
X106296033Y-106402017D01*
X106296033Y-106402017D02*
X106329366Y-106502017D01*
X106329366Y-106502017D02*
X106396033Y-106568684D01*
X106396033Y-106568684D02*
X106462700Y-106602017D01*
X106462700Y-106602017D02*
X106596033Y-106635350D01*
X106596033Y-106635350D02*
X106696033Y-106635350D01*
X106696033Y-106635350D02*
X106829366Y-106602017D01*
X106829366Y-106602017D02*
X106896033Y-106568684D01*
X106896033Y-106568684D02*
X106962700Y-106502017D01*
X106962700Y-106502017D02*
X106996033Y-106402017D01*
X106996033Y-106402017D02*
X106996033Y-106335350D01*
X106996033Y-106335350D02*
X106962700Y-106235350D01*
X106962700Y-106235350D02*
X106929366Y-106202017D01*
X106929366Y-106202017D02*
X106696033Y-106202017D01*
X106696033Y-106202017D02*
X106696033Y-106335350D01*
X106996033Y-105902017D02*
X106296033Y-105902017D01*
X106296033Y-105902017D02*
X106296033Y-105635350D01*
X106296033Y-105635350D02*
X106329366Y-105568684D01*
X106329366Y-105568684D02*
X106362700Y-105535350D01*
X106362700Y-105535350D02*
X106429366Y-105502017D01*
X106429366Y-105502017D02*
X106529366Y-105502017D01*
X106529366Y-105502017D02*
X106596033Y-105535350D01*
X106596033Y-105535350D02*
X106629366Y-105568684D01*
X106629366Y-105568684D02*
X106662700Y-105635350D01*
X106662700Y-105635350D02*
X106662700Y-105902017D01*
X106996033Y-105202017D02*
X106296033Y-105202017D01*
X106296033Y-104735351D02*
X106296033Y-104602017D01*
X106296033Y-104602017D02*
X106329366Y-104535351D01*
X106329366Y-104535351D02*
X106396033Y-104468684D01*
X106396033Y-104468684D02*
X106529366Y-104435351D01*
X106529366Y-104435351D02*
X106762700Y-104435351D01*
X106762700Y-104435351D02*
X106896033Y-104468684D01*
X106896033Y-104468684D02*
X106962700Y-104535351D01*
X106962700Y-104535351D02*
X106996033Y-104602017D01*
X106996033Y-104602017D02*
X106996033Y-104735351D01*
X106996033Y-104735351D02*
X106962700Y-104802017D01*
X106962700Y-104802017D02*
X106896033Y-104868684D01*
X106896033Y-104868684D02*
X106762700Y-104902017D01*
X106762700Y-104902017D02*
X106529366Y-104902017D01*
X106529366Y-104902017D02*
X106396033Y-104868684D01*
X106396033Y-104868684D02*
X106329366Y-104802017D01*
X106329366Y-104802017D02*
X106296033Y-104735351D01*
X106996033Y-103768684D02*
X106996033Y-104168684D01*
X106996033Y-103968684D02*
X106296033Y-103968684D01*
X106296033Y-103968684D02*
X106396033Y-104035351D01*
X106396033Y-104035351D02*
X106462700Y-104102018D01*
X106462700Y-104102018D02*
X106496033Y-104168684D01*
X106596033Y-103368684D02*
X106562700Y-103435351D01*
X106562700Y-103435351D02*
X106529366Y-103468684D01*
X106529366Y-103468684D02*
X106462700Y-103502017D01*
X106462700Y-103502017D02*
X106429366Y-103502017D01*
X106429366Y-103502017D02*
X106362700Y-103468684D01*
X106362700Y-103468684D02*
X106329366Y-103435351D01*
X106329366Y-103435351D02*
X106296033Y-103368684D01*
X106296033Y-103368684D02*
X106296033Y-103235351D01*
X106296033Y-103235351D02*
X106329366Y-103168684D01*
X106329366Y-103168684D02*
X106362700Y-103135351D01*
X106362700Y-103135351D02*
X106429366Y-103102017D01*
X106429366Y-103102017D02*
X106462700Y-103102017D01*
X106462700Y-103102017D02*
X106529366Y-103135351D01*
X106529366Y-103135351D02*
X106562700Y-103168684D01*
X106562700Y-103168684D02*
X106596033Y-103235351D01*
X106596033Y-103235351D02*
X106596033Y-103368684D01*
X106596033Y-103368684D02*
X106629366Y-103435351D01*
X106629366Y-103435351D02*
X106662700Y-103468684D01*
X106662700Y-103468684D02*
X106729366Y-103502017D01*
X106729366Y-103502017D02*
X106862700Y-103502017D01*
X106862700Y-103502017D02*
X106929366Y-103468684D01*
X106929366Y-103468684D02*
X106962700Y-103435351D01*
X106962700Y-103435351D02*
X106996033Y-103368684D01*
X106996033Y-103368684D02*
X106996033Y-103235351D01*
X106996033Y-103235351D02*
X106962700Y-103168684D01*
X106962700Y-103168684D02*
X106929366Y-103135351D01*
X106929366Y-103135351D02*
X106862700Y-103102017D01*
X106862700Y-103102017D02*
X106729366Y-103102017D01*
X106729366Y-103102017D02*
X106662700Y-103135351D01*
X106662700Y-103135351D02*
X106629366Y-103168684D01*
X106629366Y-103168684D02*
X106596033Y-103235351D01*
X91089366Y-106235350D02*
X91056033Y-106302017D01*
X91056033Y-106302017D02*
X91056033Y-106402017D01*
X91056033Y-106402017D02*
X91089366Y-106502017D01*
X91089366Y-106502017D02*
X91156033Y-106568684D01*
X91156033Y-106568684D02*
X91222700Y-106602017D01*
X91222700Y-106602017D02*
X91356033Y-106635350D01*
X91356033Y-106635350D02*
X91456033Y-106635350D01*
X91456033Y-106635350D02*
X91589366Y-106602017D01*
X91589366Y-106602017D02*
X91656033Y-106568684D01*
X91656033Y-106568684D02*
X91722700Y-106502017D01*
X91722700Y-106502017D02*
X91756033Y-106402017D01*
X91756033Y-106402017D02*
X91756033Y-106335350D01*
X91756033Y-106335350D02*
X91722700Y-106235350D01*
X91722700Y-106235350D02*
X91689366Y-106202017D01*
X91689366Y-106202017D02*
X91456033Y-106202017D01*
X91456033Y-106202017D02*
X91456033Y-106335350D01*
X91756033Y-105902017D02*
X91056033Y-105902017D01*
X91056033Y-105902017D02*
X91056033Y-105635350D01*
X91056033Y-105635350D02*
X91089366Y-105568684D01*
X91089366Y-105568684D02*
X91122700Y-105535350D01*
X91122700Y-105535350D02*
X91189366Y-105502017D01*
X91189366Y-105502017D02*
X91289366Y-105502017D01*
X91289366Y-105502017D02*
X91356033Y-105535350D01*
X91356033Y-105535350D02*
X91389366Y-105568684D01*
X91389366Y-105568684D02*
X91422700Y-105635350D01*
X91422700Y-105635350D02*
X91422700Y-105902017D01*
X91756033Y-105202017D02*
X91056033Y-105202017D01*
X91056033Y-104735351D02*
X91056033Y-104602017D01*
X91056033Y-104602017D02*
X91089366Y-104535351D01*
X91089366Y-104535351D02*
X91156033Y-104468684D01*
X91156033Y-104468684D02*
X91289366Y-104435351D01*
X91289366Y-104435351D02*
X91522700Y-104435351D01*
X91522700Y-104435351D02*
X91656033Y-104468684D01*
X91656033Y-104468684D02*
X91722700Y-104535351D01*
X91722700Y-104535351D02*
X91756033Y-104602017D01*
X91756033Y-104602017D02*
X91756033Y-104735351D01*
X91756033Y-104735351D02*
X91722700Y-104802017D01*
X91722700Y-104802017D02*
X91656033Y-104868684D01*
X91656033Y-104868684D02*
X91522700Y-104902017D01*
X91522700Y-104902017D02*
X91289366Y-104902017D01*
X91289366Y-104902017D02*
X91156033Y-104868684D01*
X91156033Y-104868684D02*
X91089366Y-104802017D01*
X91089366Y-104802017D02*
X91056033Y-104735351D01*
X91122700Y-104168684D02*
X91089366Y-104135351D01*
X91089366Y-104135351D02*
X91056033Y-104068684D01*
X91056033Y-104068684D02*
X91056033Y-103902018D01*
X91056033Y-103902018D02*
X91089366Y-103835351D01*
X91089366Y-103835351D02*
X91122700Y-103802018D01*
X91122700Y-103802018D02*
X91189366Y-103768684D01*
X91189366Y-103768684D02*
X91256033Y-103768684D01*
X91256033Y-103768684D02*
X91356033Y-103802018D01*
X91356033Y-103802018D02*
X91756033Y-104202018D01*
X91756033Y-104202018D02*
X91756033Y-103768684D01*
X91122700Y-103502017D02*
X91089366Y-103468684D01*
X91089366Y-103468684D02*
X91056033Y-103402017D01*
X91056033Y-103402017D02*
X91056033Y-103235351D01*
X91056033Y-103235351D02*
X91089366Y-103168684D01*
X91089366Y-103168684D02*
X91122700Y-103135351D01*
X91122700Y-103135351D02*
X91189366Y-103102017D01*
X91189366Y-103102017D02*
X91256033Y-103102017D01*
X91256033Y-103102017D02*
X91356033Y-103135351D01*
X91356033Y-103135351D02*
X91756033Y-103535351D01*
X91756033Y-103535351D02*
X91756033Y-103102017D01*
X116489366Y-125097982D02*
X116456033Y-125164649D01*
X116456033Y-125164649D02*
X116456033Y-125264649D01*
X116456033Y-125264649D02*
X116489366Y-125364649D01*
X116489366Y-125364649D02*
X116556033Y-125431316D01*
X116556033Y-125431316D02*
X116622700Y-125464649D01*
X116622700Y-125464649D02*
X116756033Y-125497982D01*
X116756033Y-125497982D02*
X116856033Y-125497982D01*
X116856033Y-125497982D02*
X116989366Y-125464649D01*
X116989366Y-125464649D02*
X117056033Y-125431316D01*
X117056033Y-125431316D02*
X117122700Y-125364649D01*
X117122700Y-125364649D02*
X117156033Y-125264649D01*
X117156033Y-125264649D02*
X117156033Y-125197982D01*
X117156033Y-125197982D02*
X117122700Y-125097982D01*
X117122700Y-125097982D02*
X117089366Y-125064649D01*
X117089366Y-125064649D02*
X116856033Y-125064649D01*
X116856033Y-125064649D02*
X116856033Y-125197982D01*
X117156033Y-124764649D02*
X116456033Y-124764649D01*
X116456033Y-124764649D02*
X116456033Y-124497982D01*
X116456033Y-124497982D02*
X116489366Y-124431316D01*
X116489366Y-124431316D02*
X116522700Y-124397982D01*
X116522700Y-124397982D02*
X116589366Y-124364649D01*
X116589366Y-124364649D02*
X116689366Y-124364649D01*
X116689366Y-124364649D02*
X116756033Y-124397982D01*
X116756033Y-124397982D02*
X116789366Y-124431316D01*
X116789366Y-124431316D02*
X116822700Y-124497982D01*
X116822700Y-124497982D02*
X116822700Y-124764649D01*
X117156033Y-124064649D02*
X116456033Y-124064649D01*
X116456033Y-123597983D02*
X116456033Y-123464649D01*
X116456033Y-123464649D02*
X116489366Y-123397983D01*
X116489366Y-123397983D02*
X116556033Y-123331316D01*
X116556033Y-123331316D02*
X116689366Y-123297983D01*
X116689366Y-123297983D02*
X116922700Y-123297983D01*
X116922700Y-123297983D02*
X117056033Y-123331316D01*
X117056033Y-123331316D02*
X117122700Y-123397983D01*
X117122700Y-123397983D02*
X117156033Y-123464649D01*
X117156033Y-123464649D02*
X117156033Y-123597983D01*
X117156033Y-123597983D02*
X117122700Y-123664649D01*
X117122700Y-123664649D02*
X117056033Y-123731316D01*
X117056033Y-123731316D02*
X116922700Y-123764649D01*
X116922700Y-123764649D02*
X116689366Y-123764649D01*
X116689366Y-123764649D02*
X116556033Y-123731316D01*
X116556033Y-123731316D02*
X116489366Y-123664649D01*
X116489366Y-123664649D02*
X116456033Y-123597983D01*
X117156033Y-122631316D02*
X117156033Y-123031316D01*
X117156033Y-122831316D02*
X116456033Y-122831316D01*
X116456033Y-122831316D02*
X116556033Y-122897983D01*
X116556033Y-122897983D02*
X116622700Y-122964650D01*
X116622700Y-122964650D02*
X116656033Y-123031316D01*
X116522700Y-122364649D02*
X116489366Y-122331316D01*
X116489366Y-122331316D02*
X116456033Y-122264649D01*
X116456033Y-122264649D02*
X116456033Y-122097983D01*
X116456033Y-122097983D02*
X116489366Y-122031316D01*
X116489366Y-122031316D02*
X116522700Y-121997983D01*
X116522700Y-121997983D02*
X116589366Y-121964649D01*
X116589366Y-121964649D02*
X116656033Y-121964649D01*
X116656033Y-121964649D02*
X116756033Y-121997983D01*
X116756033Y-121997983D02*
X117156033Y-122397983D01*
X117156033Y-122397983D02*
X117156033Y-121964649D01*
X116422700Y-121164649D02*
X117322700Y-121764649D01*
X117156033Y-120931316D02*
X116456033Y-120931316D01*
X116456033Y-120931316D02*
X116956033Y-120697983D01*
X116956033Y-120697983D02*
X116456033Y-120464649D01*
X116456033Y-120464649D02*
X117156033Y-120464649D01*
X116456033Y-120231316D02*
X116456033Y-119831316D01*
X117156033Y-120031316D02*
X116456033Y-120031316D01*
X117156033Y-119597983D02*
X116456033Y-119597983D01*
X116456033Y-119597983D02*
X116456033Y-119431316D01*
X116456033Y-119431316D02*
X116489366Y-119331316D01*
X116489366Y-119331316D02*
X116556033Y-119264650D01*
X116556033Y-119264650D02*
X116622700Y-119231316D01*
X116622700Y-119231316D02*
X116756033Y-119197983D01*
X116756033Y-119197983D02*
X116856033Y-119197983D01*
X116856033Y-119197983D02*
X116989366Y-119231316D01*
X116989366Y-119231316D02*
X117056033Y-119264650D01*
X117056033Y-119264650D02*
X117122700Y-119331316D01*
X117122700Y-119331316D02*
X117156033Y-119431316D01*
X117156033Y-119431316D02*
X117156033Y-119597983D01*
X117156033Y-118897983D02*
X116456033Y-118897983D01*
X108869366Y-105568683D02*
X108836033Y-105635350D01*
X108836033Y-105635350D02*
X108836033Y-105735350D01*
X108836033Y-105735350D02*
X108869366Y-105835350D01*
X108869366Y-105835350D02*
X108936033Y-105902017D01*
X108936033Y-105902017D02*
X109002700Y-105935350D01*
X109002700Y-105935350D02*
X109136033Y-105968683D01*
X109136033Y-105968683D02*
X109236033Y-105968683D01*
X109236033Y-105968683D02*
X109369366Y-105935350D01*
X109369366Y-105935350D02*
X109436033Y-105902017D01*
X109436033Y-105902017D02*
X109502700Y-105835350D01*
X109502700Y-105835350D02*
X109536033Y-105735350D01*
X109536033Y-105735350D02*
X109536033Y-105668683D01*
X109536033Y-105668683D02*
X109502700Y-105568683D01*
X109502700Y-105568683D02*
X109469366Y-105535350D01*
X109469366Y-105535350D02*
X109236033Y-105535350D01*
X109236033Y-105535350D02*
X109236033Y-105668683D01*
X109536033Y-105235350D02*
X108836033Y-105235350D01*
X108836033Y-105235350D02*
X108836033Y-104968683D01*
X108836033Y-104968683D02*
X108869366Y-104902017D01*
X108869366Y-104902017D02*
X108902700Y-104868683D01*
X108902700Y-104868683D02*
X108969366Y-104835350D01*
X108969366Y-104835350D02*
X109069366Y-104835350D01*
X109069366Y-104835350D02*
X109136033Y-104868683D01*
X109136033Y-104868683D02*
X109169366Y-104902017D01*
X109169366Y-104902017D02*
X109202700Y-104968683D01*
X109202700Y-104968683D02*
X109202700Y-105235350D01*
X109536033Y-104535350D02*
X108836033Y-104535350D01*
X108836033Y-104068684D02*
X108836033Y-103935350D01*
X108836033Y-103935350D02*
X108869366Y-103868684D01*
X108869366Y-103868684D02*
X108936033Y-103802017D01*
X108936033Y-103802017D02*
X109069366Y-103768684D01*
X109069366Y-103768684D02*
X109302700Y-103768684D01*
X109302700Y-103768684D02*
X109436033Y-103802017D01*
X109436033Y-103802017D02*
X109502700Y-103868684D01*
X109502700Y-103868684D02*
X109536033Y-103935350D01*
X109536033Y-103935350D02*
X109536033Y-104068684D01*
X109536033Y-104068684D02*
X109502700Y-104135350D01*
X109502700Y-104135350D02*
X109436033Y-104202017D01*
X109436033Y-104202017D02*
X109302700Y-104235350D01*
X109302700Y-104235350D02*
X109069366Y-104235350D01*
X109069366Y-104235350D02*
X108936033Y-104202017D01*
X108936033Y-104202017D02*
X108869366Y-104135350D01*
X108869366Y-104135350D02*
X108836033Y-104068684D01*
X108836033Y-103135351D02*
X108836033Y-103468684D01*
X108836033Y-103468684D02*
X109169366Y-103502017D01*
X109169366Y-103502017D02*
X109136033Y-103468684D01*
X109136033Y-103468684D02*
X109102700Y-103402017D01*
X109102700Y-103402017D02*
X109102700Y-103235351D01*
X109102700Y-103235351D02*
X109136033Y-103168684D01*
X109136033Y-103168684D02*
X109169366Y-103135351D01*
X109169366Y-103135351D02*
X109236033Y-103102017D01*
X109236033Y-103102017D02*
X109402700Y-103102017D01*
X109402700Y-103102017D02*
X109469366Y-103135351D01*
X109469366Y-103135351D02*
X109502700Y-103168684D01*
X109502700Y-103168684D02*
X109536033Y-103235351D01*
X109536033Y-103235351D02*
X109536033Y-103402017D01*
X109536033Y-103402017D02*
X109502700Y-103468684D01*
X109502700Y-103468684D02*
X109469366Y-103502017D01*
X124776033Y-125464649D02*
X124076033Y-125464649D01*
X124076033Y-125464649D02*
X124076033Y-125297982D01*
X124076033Y-125297982D02*
X124109366Y-125197982D01*
X124109366Y-125197982D02*
X124176033Y-125131316D01*
X124176033Y-125131316D02*
X124242700Y-125097982D01*
X124242700Y-125097982D02*
X124376033Y-125064649D01*
X124376033Y-125064649D02*
X124476033Y-125064649D01*
X124476033Y-125064649D02*
X124609366Y-125097982D01*
X124609366Y-125097982D02*
X124676033Y-125131316D01*
X124676033Y-125131316D02*
X124742700Y-125197982D01*
X124742700Y-125197982D02*
X124776033Y-125297982D01*
X124776033Y-125297982D02*
X124776033Y-125464649D01*
X124142700Y-124797982D02*
X124109366Y-124764649D01*
X124109366Y-124764649D02*
X124076033Y-124697982D01*
X124076033Y-124697982D02*
X124076033Y-124531316D01*
X124076033Y-124531316D02*
X124109366Y-124464649D01*
X124109366Y-124464649D02*
X124142700Y-124431316D01*
X124142700Y-124431316D02*
X124209366Y-124397982D01*
X124209366Y-124397982D02*
X124276033Y-124397982D01*
X124276033Y-124397982D02*
X124376033Y-124431316D01*
X124376033Y-124431316D02*
X124776033Y-124831316D01*
X124776033Y-124831316D02*
X124776033Y-124397982D01*
X85814819Y-125488458D02*
X85814819Y-124869411D01*
X85814819Y-124869411D02*
X86195771Y-125202744D01*
X86195771Y-125202744D02*
X86195771Y-125059887D01*
X86195771Y-125059887D02*
X86243390Y-124964649D01*
X86243390Y-124964649D02*
X86291009Y-124917030D01*
X86291009Y-124917030D02*
X86386247Y-124869411D01*
X86386247Y-124869411D02*
X86624342Y-124869411D01*
X86624342Y-124869411D02*
X86719580Y-124917030D01*
X86719580Y-124917030D02*
X86767200Y-124964649D01*
X86767200Y-124964649D02*
X86814819Y-125059887D01*
X86814819Y-125059887D02*
X86814819Y-125345601D01*
X86814819Y-125345601D02*
X86767200Y-125440839D01*
X86767200Y-125440839D02*
X86719580Y-125488458D01*
X85814819Y-124583696D02*
X86814819Y-124250363D01*
X86814819Y-124250363D02*
X85814819Y-123917030D01*
X85814819Y-123678934D02*
X85814819Y-123059887D01*
X85814819Y-123059887D02*
X86195771Y-123393220D01*
X86195771Y-123393220D02*
X86195771Y-123250363D01*
X86195771Y-123250363D02*
X86243390Y-123155125D01*
X86243390Y-123155125D02*
X86291009Y-123107506D01*
X86291009Y-123107506D02*
X86386247Y-123059887D01*
X86386247Y-123059887D02*
X86624342Y-123059887D01*
X86624342Y-123059887D02*
X86719580Y-123107506D01*
X86719580Y-123107506D02*
X86767200Y-123155125D01*
X86767200Y-123155125D02*
X86814819Y-123250363D01*
X86814819Y-123250363D02*
X86814819Y-123536077D01*
X86814819Y-123536077D02*
X86767200Y-123631315D01*
X86767200Y-123631315D02*
X86719580Y-123678934D01*
X98709366Y-125097982D02*
X98676033Y-125164649D01*
X98676033Y-125164649D02*
X98676033Y-125264649D01*
X98676033Y-125264649D02*
X98709366Y-125364649D01*
X98709366Y-125364649D02*
X98776033Y-125431316D01*
X98776033Y-125431316D02*
X98842700Y-125464649D01*
X98842700Y-125464649D02*
X98976033Y-125497982D01*
X98976033Y-125497982D02*
X99076033Y-125497982D01*
X99076033Y-125497982D02*
X99209366Y-125464649D01*
X99209366Y-125464649D02*
X99276033Y-125431316D01*
X99276033Y-125431316D02*
X99342700Y-125364649D01*
X99342700Y-125364649D02*
X99376033Y-125264649D01*
X99376033Y-125264649D02*
X99376033Y-125197982D01*
X99376033Y-125197982D02*
X99342700Y-125097982D01*
X99342700Y-125097982D02*
X99309366Y-125064649D01*
X99309366Y-125064649D02*
X99076033Y-125064649D01*
X99076033Y-125064649D02*
X99076033Y-125197982D01*
X99376033Y-124764649D02*
X98676033Y-124764649D01*
X98676033Y-124764649D02*
X98676033Y-124497982D01*
X98676033Y-124497982D02*
X98709366Y-124431316D01*
X98709366Y-124431316D02*
X98742700Y-124397982D01*
X98742700Y-124397982D02*
X98809366Y-124364649D01*
X98809366Y-124364649D02*
X98909366Y-124364649D01*
X98909366Y-124364649D02*
X98976033Y-124397982D01*
X98976033Y-124397982D02*
X99009366Y-124431316D01*
X99009366Y-124431316D02*
X99042700Y-124497982D01*
X99042700Y-124497982D02*
X99042700Y-124764649D01*
X99376033Y-124064649D02*
X98676033Y-124064649D01*
X98676033Y-123597983D02*
X98676033Y-123464649D01*
X98676033Y-123464649D02*
X98709366Y-123397983D01*
X98709366Y-123397983D02*
X98776033Y-123331316D01*
X98776033Y-123331316D02*
X98909366Y-123297983D01*
X98909366Y-123297983D02*
X99142700Y-123297983D01*
X99142700Y-123297983D02*
X99276033Y-123331316D01*
X99276033Y-123331316D02*
X99342700Y-123397983D01*
X99342700Y-123397983D02*
X99376033Y-123464649D01*
X99376033Y-123464649D02*
X99376033Y-123597983D01*
X99376033Y-123597983D02*
X99342700Y-123664649D01*
X99342700Y-123664649D02*
X99276033Y-123731316D01*
X99276033Y-123731316D02*
X99142700Y-123764649D01*
X99142700Y-123764649D02*
X98909366Y-123764649D01*
X98909366Y-123764649D02*
X98776033Y-123731316D01*
X98776033Y-123731316D02*
X98709366Y-123664649D01*
X98709366Y-123664649D02*
X98676033Y-123597983D01*
X98676033Y-123064650D02*
X98676033Y-122631316D01*
X98676033Y-122631316D02*
X98942700Y-122864650D01*
X98942700Y-122864650D02*
X98942700Y-122764650D01*
X98942700Y-122764650D02*
X98976033Y-122697983D01*
X98976033Y-122697983D02*
X99009366Y-122664650D01*
X99009366Y-122664650D02*
X99076033Y-122631316D01*
X99076033Y-122631316D02*
X99242700Y-122631316D01*
X99242700Y-122631316D02*
X99309366Y-122664650D01*
X99309366Y-122664650D02*
X99342700Y-122697983D01*
X99342700Y-122697983D02*
X99376033Y-122764650D01*
X99376033Y-122764650D02*
X99376033Y-122964650D01*
X99376033Y-122964650D02*
X99342700Y-123031316D01*
X99342700Y-123031316D02*
X99309366Y-123064650D01*
X98676033Y-121997983D02*
X98676033Y-122331316D01*
X98676033Y-122331316D02*
X99009366Y-122364649D01*
X99009366Y-122364649D02*
X98976033Y-122331316D01*
X98976033Y-122331316D02*
X98942700Y-122264649D01*
X98942700Y-122264649D02*
X98942700Y-122097983D01*
X98942700Y-122097983D02*
X98976033Y-122031316D01*
X98976033Y-122031316D02*
X99009366Y-121997983D01*
X99009366Y-121997983D02*
X99076033Y-121964649D01*
X99076033Y-121964649D02*
X99242700Y-121964649D01*
X99242700Y-121964649D02*
X99309366Y-121997983D01*
X99309366Y-121997983D02*
X99342700Y-122031316D01*
X99342700Y-122031316D02*
X99376033Y-122097983D01*
X99376033Y-122097983D02*
X99376033Y-122264649D01*
X99376033Y-122264649D02*
X99342700Y-122331316D01*
X99342700Y-122331316D02*
X99309366Y-122364649D01*
X106329366Y-125097982D02*
X106296033Y-125164649D01*
X106296033Y-125164649D02*
X106296033Y-125264649D01*
X106296033Y-125264649D02*
X106329366Y-125364649D01*
X106329366Y-125364649D02*
X106396033Y-125431316D01*
X106396033Y-125431316D02*
X106462700Y-125464649D01*
X106462700Y-125464649D02*
X106596033Y-125497982D01*
X106596033Y-125497982D02*
X106696033Y-125497982D01*
X106696033Y-125497982D02*
X106829366Y-125464649D01*
X106829366Y-125464649D02*
X106896033Y-125431316D01*
X106896033Y-125431316D02*
X106962700Y-125364649D01*
X106962700Y-125364649D02*
X106996033Y-125264649D01*
X106996033Y-125264649D02*
X106996033Y-125197982D01*
X106996033Y-125197982D02*
X106962700Y-125097982D01*
X106962700Y-125097982D02*
X106929366Y-125064649D01*
X106929366Y-125064649D02*
X106696033Y-125064649D01*
X106696033Y-125064649D02*
X106696033Y-125197982D01*
X106996033Y-124764649D02*
X106296033Y-124764649D01*
X106296033Y-124764649D02*
X106296033Y-124497982D01*
X106296033Y-124497982D02*
X106329366Y-124431316D01*
X106329366Y-124431316D02*
X106362700Y-124397982D01*
X106362700Y-124397982D02*
X106429366Y-124364649D01*
X106429366Y-124364649D02*
X106529366Y-124364649D01*
X106529366Y-124364649D02*
X106596033Y-124397982D01*
X106596033Y-124397982D02*
X106629366Y-124431316D01*
X106629366Y-124431316D02*
X106662700Y-124497982D01*
X106662700Y-124497982D02*
X106662700Y-124764649D01*
X106996033Y-124064649D02*
X106296033Y-124064649D01*
X106296033Y-123597983D02*
X106296033Y-123464649D01*
X106296033Y-123464649D02*
X106329366Y-123397983D01*
X106329366Y-123397983D02*
X106396033Y-123331316D01*
X106396033Y-123331316D02*
X106529366Y-123297983D01*
X106529366Y-123297983D02*
X106762700Y-123297983D01*
X106762700Y-123297983D02*
X106896033Y-123331316D01*
X106896033Y-123331316D02*
X106962700Y-123397983D01*
X106962700Y-123397983D02*
X106996033Y-123464649D01*
X106996033Y-123464649D02*
X106996033Y-123597983D01*
X106996033Y-123597983D02*
X106962700Y-123664649D01*
X106962700Y-123664649D02*
X106896033Y-123731316D01*
X106896033Y-123731316D02*
X106762700Y-123764649D01*
X106762700Y-123764649D02*
X106529366Y-123764649D01*
X106529366Y-123764649D02*
X106396033Y-123731316D01*
X106396033Y-123731316D02*
X106329366Y-123664649D01*
X106329366Y-123664649D02*
X106296033Y-123597983D01*
X106362700Y-123031316D02*
X106329366Y-122997983D01*
X106329366Y-122997983D02*
X106296033Y-122931316D01*
X106296033Y-122931316D02*
X106296033Y-122764650D01*
X106296033Y-122764650D02*
X106329366Y-122697983D01*
X106329366Y-122697983D02*
X106362700Y-122664650D01*
X106362700Y-122664650D02*
X106429366Y-122631316D01*
X106429366Y-122631316D02*
X106496033Y-122631316D01*
X106496033Y-122631316D02*
X106596033Y-122664650D01*
X106596033Y-122664650D02*
X106996033Y-123064650D01*
X106996033Y-123064650D02*
X106996033Y-122631316D01*
X106296033Y-121997983D02*
X106296033Y-122331316D01*
X106296033Y-122331316D02*
X106629366Y-122364649D01*
X106629366Y-122364649D02*
X106596033Y-122331316D01*
X106596033Y-122331316D02*
X106562700Y-122264649D01*
X106562700Y-122264649D02*
X106562700Y-122097983D01*
X106562700Y-122097983D02*
X106596033Y-122031316D01*
X106596033Y-122031316D02*
X106629366Y-121997983D01*
X106629366Y-121997983D02*
X106696033Y-121964649D01*
X106696033Y-121964649D02*
X106862700Y-121964649D01*
X106862700Y-121964649D02*
X106929366Y-121997983D01*
X106929366Y-121997983D02*
X106962700Y-122031316D01*
X106962700Y-122031316D02*
X106996033Y-122097983D01*
X106996033Y-122097983D02*
X106996033Y-122264649D01*
X106996033Y-122264649D02*
X106962700Y-122331316D01*
X106962700Y-122331316D02*
X106929366Y-122364649D01*
X85862438Y-105254398D02*
X85814819Y-105349636D01*
X85814819Y-105349636D02*
X85814819Y-105492493D01*
X85814819Y-105492493D02*
X85862438Y-105635350D01*
X85862438Y-105635350D02*
X85957676Y-105730588D01*
X85957676Y-105730588D02*
X86052914Y-105778207D01*
X86052914Y-105778207D02*
X86243390Y-105825826D01*
X86243390Y-105825826D02*
X86386247Y-105825826D01*
X86386247Y-105825826D02*
X86576723Y-105778207D01*
X86576723Y-105778207D02*
X86671961Y-105730588D01*
X86671961Y-105730588D02*
X86767200Y-105635350D01*
X86767200Y-105635350D02*
X86814819Y-105492493D01*
X86814819Y-105492493D02*
X86814819Y-105397255D01*
X86814819Y-105397255D02*
X86767200Y-105254398D01*
X86767200Y-105254398D02*
X86719580Y-105206779D01*
X86719580Y-105206779D02*
X86386247Y-105206779D01*
X86386247Y-105206779D02*
X86386247Y-105397255D01*
X86814819Y-104778207D02*
X85814819Y-104778207D01*
X85814819Y-104778207D02*
X86814819Y-104206779D01*
X86814819Y-104206779D02*
X85814819Y-104206779D01*
X86814819Y-103730588D02*
X85814819Y-103730588D01*
X85814819Y-103730588D02*
X85814819Y-103492493D01*
X85814819Y-103492493D02*
X85862438Y-103349636D01*
X85862438Y-103349636D02*
X85957676Y-103254398D01*
X85957676Y-103254398D02*
X86052914Y-103206779D01*
X86052914Y-103206779D02*
X86243390Y-103159160D01*
X86243390Y-103159160D02*
X86386247Y-103159160D01*
X86386247Y-103159160D02*
X86576723Y-103206779D01*
X86576723Y-103206779D02*
X86671961Y-103254398D01*
X86671961Y-103254398D02*
X86767200Y-103349636D01*
X86767200Y-103349636D02*
X86814819Y-103492493D01*
X86814819Y-103492493D02*
X86814819Y-103730588D01*
X129789366Y-125064649D02*
X129822700Y-125097982D01*
X129822700Y-125097982D02*
X129856033Y-125197982D01*
X129856033Y-125197982D02*
X129856033Y-125264649D01*
X129856033Y-125264649D02*
X129822700Y-125364649D01*
X129822700Y-125364649D02*
X129756033Y-125431316D01*
X129756033Y-125431316D02*
X129689366Y-125464649D01*
X129689366Y-125464649D02*
X129556033Y-125497982D01*
X129556033Y-125497982D02*
X129456033Y-125497982D01*
X129456033Y-125497982D02*
X129322700Y-125464649D01*
X129322700Y-125464649D02*
X129256033Y-125431316D01*
X129256033Y-125431316D02*
X129189366Y-125364649D01*
X129189366Y-125364649D02*
X129156033Y-125264649D01*
X129156033Y-125264649D02*
X129156033Y-125197982D01*
X129156033Y-125197982D02*
X129189366Y-125097982D01*
X129189366Y-125097982D02*
X129222700Y-125064649D01*
X129856033Y-124764649D02*
X129156033Y-124764649D01*
X129156033Y-124764649D02*
X129656033Y-124531316D01*
X129656033Y-124531316D02*
X129156033Y-124297982D01*
X129156033Y-124297982D02*
X129856033Y-124297982D01*
X129856033Y-123964649D02*
X129156033Y-123964649D01*
X129156033Y-123964649D02*
X129156033Y-123797982D01*
X129156033Y-123797982D02*
X129189366Y-123697982D01*
X129189366Y-123697982D02*
X129256033Y-123631316D01*
X129256033Y-123631316D02*
X129322700Y-123597982D01*
X129322700Y-123597982D02*
X129456033Y-123564649D01*
X129456033Y-123564649D02*
X129556033Y-123564649D01*
X129556033Y-123564649D02*
X129689366Y-123597982D01*
X129689366Y-123597982D02*
X129756033Y-123631316D01*
X129756033Y-123631316D02*
X129822700Y-123697982D01*
X129822700Y-123697982D02*
X129856033Y-123797982D01*
X129856033Y-123797982D02*
X129856033Y-123964649D01*
X91056033Y-125564649D02*
X91756033Y-125331316D01*
X91756033Y-125331316D02*
X91056033Y-125097982D01*
X91756033Y-124864649D02*
X91056033Y-124864649D01*
X91056033Y-124864649D02*
X91056033Y-124597982D01*
X91056033Y-124597982D02*
X91089366Y-124531316D01*
X91089366Y-124531316D02*
X91122700Y-124497982D01*
X91122700Y-124497982D02*
X91189366Y-124464649D01*
X91189366Y-124464649D02*
X91289366Y-124464649D01*
X91289366Y-124464649D02*
X91356033Y-124497982D01*
X91356033Y-124497982D02*
X91389366Y-124531316D01*
X91389366Y-124531316D02*
X91422700Y-124597982D01*
X91422700Y-124597982D02*
X91422700Y-124864649D01*
X91022700Y-123664649D02*
X91922700Y-124264649D01*
X91089366Y-123064649D02*
X91056033Y-123131316D01*
X91056033Y-123131316D02*
X91056033Y-123231316D01*
X91056033Y-123231316D02*
X91089366Y-123331316D01*
X91089366Y-123331316D02*
X91156033Y-123397983D01*
X91156033Y-123397983D02*
X91222700Y-123431316D01*
X91222700Y-123431316D02*
X91356033Y-123464649D01*
X91356033Y-123464649D02*
X91456033Y-123464649D01*
X91456033Y-123464649D02*
X91589366Y-123431316D01*
X91589366Y-123431316D02*
X91656033Y-123397983D01*
X91656033Y-123397983D02*
X91722700Y-123331316D01*
X91722700Y-123331316D02*
X91756033Y-123231316D01*
X91756033Y-123231316D02*
X91756033Y-123164649D01*
X91756033Y-123164649D02*
X91722700Y-123064649D01*
X91722700Y-123064649D02*
X91689366Y-123031316D01*
X91689366Y-123031316D02*
X91456033Y-123031316D01*
X91456033Y-123031316D02*
X91456033Y-123164649D01*
X91756033Y-122731316D02*
X91056033Y-122731316D01*
X91056033Y-122731316D02*
X91056033Y-122464649D01*
X91056033Y-122464649D02*
X91089366Y-122397983D01*
X91089366Y-122397983D02*
X91122700Y-122364649D01*
X91122700Y-122364649D02*
X91189366Y-122331316D01*
X91189366Y-122331316D02*
X91289366Y-122331316D01*
X91289366Y-122331316D02*
X91356033Y-122364649D01*
X91356033Y-122364649D02*
X91389366Y-122397983D01*
X91389366Y-122397983D02*
X91422700Y-122464649D01*
X91422700Y-122464649D02*
X91422700Y-122731316D01*
X91756033Y-122031316D02*
X91056033Y-122031316D01*
X91056033Y-121564650D02*
X91056033Y-121431316D01*
X91056033Y-121431316D02*
X91089366Y-121364650D01*
X91089366Y-121364650D02*
X91156033Y-121297983D01*
X91156033Y-121297983D02*
X91289366Y-121264650D01*
X91289366Y-121264650D02*
X91522700Y-121264650D01*
X91522700Y-121264650D02*
X91656033Y-121297983D01*
X91656033Y-121297983D02*
X91722700Y-121364650D01*
X91722700Y-121364650D02*
X91756033Y-121431316D01*
X91756033Y-121431316D02*
X91756033Y-121564650D01*
X91756033Y-121564650D02*
X91722700Y-121631316D01*
X91722700Y-121631316D02*
X91656033Y-121697983D01*
X91656033Y-121697983D02*
X91522700Y-121731316D01*
X91522700Y-121731316D02*
X91289366Y-121731316D01*
X91289366Y-121731316D02*
X91156033Y-121697983D01*
X91156033Y-121697983D02*
X91089366Y-121631316D01*
X91089366Y-121631316D02*
X91056033Y-121564650D01*
X91056033Y-121031317D02*
X91056033Y-120597983D01*
X91056033Y-120597983D02*
X91322700Y-120831317D01*
X91322700Y-120831317D02*
X91322700Y-120731317D01*
X91322700Y-120731317D02*
X91356033Y-120664650D01*
X91356033Y-120664650D02*
X91389366Y-120631317D01*
X91389366Y-120631317D02*
X91456033Y-120597983D01*
X91456033Y-120597983D02*
X91622700Y-120597983D01*
X91622700Y-120597983D02*
X91689366Y-120631317D01*
X91689366Y-120631317D02*
X91722700Y-120664650D01*
X91722700Y-120664650D02*
X91756033Y-120731317D01*
X91756033Y-120731317D02*
X91756033Y-120931317D01*
X91756033Y-120931317D02*
X91722700Y-120997983D01*
X91722700Y-120997983D02*
X91689366Y-121031317D01*
X91056033Y-119997983D02*
X91056033Y-120131316D01*
X91056033Y-120131316D02*
X91089366Y-120197983D01*
X91089366Y-120197983D02*
X91122700Y-120231316D01*
X91122700Y-120231316D02*
X91222700Y-120297983D01*
X91222700Y-120297983D02*
X91356033Y-120331316D01*
X91356033Y-120331316D02*
X91622700Y-120331316D01*
X91622700Y-120331316D02*
X91689366Y-120297983D01*
X91689366Y-120297983D02*
X91722700Y-120264650D01*
X91722700Y-120264650D02*
X91756033Y-120197983D01*
X91756033Y-120197983D02*
X91756033Y-120064650D01*
X91756033Y-120064650D02*
X91722700Y-119997983D01*
X91722700Y-119997983D02*
X91689366Y-119964650D01*
X91689366Y-119964650D02*
X91622700Y-119931316D01*
X91622700Y-119931316D02*
X91456033Y-119931316D01*
X91456033Y-119931316D02*
X91389366Y-119964650D01*
X91389366Y-119964650D02*
X91356033Y-119997983D01*
X91356033Y-119997983D02*
X91322700Y-120064650D01*
X91322700Y-120064650D02*
X91322700Y-120197983D01*
X91322700Y-120197983D02*
X91356033Y-120264650D01*
X91356033Y-120264650D02*
X91389366Y-120297983D01*
X91389366Y-120297983D02*
X91456033Y-120331316D01*
X127316033Y-104168684D02*
X126616033Y-104168684D01*
X126616033Y-104168684D02*
X126616033Y-104002017D01*
X126616033Y-104002017D02*
X126649366Y-103902017D01*
X126649366Y-103902017D02*
X126716033Y-103835351D01*
X126716033Y-103835351D02*
X126782700Y-103802017D01*
X126782700Y-103802017D02*
X126916033Y-103768684D01*
X126916033Y-103768684D02*
X127016033Y-103768684D01*
X127016033Y-103768684D02*
X127149366Y-103802017D01*
X127149366Y-103802017D02*
X127216033Y-103835351D01*
X127216033Y-103835351D02*
X127282700Y-103902017D01*
X127282700Y-103902017D02*
X127316033Y-104002017D01*
X127316033Y-104002017D02*
X127316033Y-104168684D01*
X127316033Y-103102017D02*
X127316033Y-103502017D01*
X127316033Y-103302017D02*
X126616033Y-103302017D01*
X126616033Y-103302017D02*
X126716033Y-103368684D01*
X126716033Y-103368684D02*
X126782700Y-103435351D01*
X126782700Y-103435351D02*
X126816033Y-103502017D01*
X116489366Y-105568683D02*
X116456033Y-105635350D01*
X116456033Y-105635350D02*
X116456033Y-105735350D01*
X116456033Y-105735350D02*
X116489366Y-105835350D01*
X116489366Y-105835350D02*
X116556033Y-105902017D01*
X116556033Y-105902017D02*
X116622700Y-105935350D01*
X116622700Y-105935350D02*
X116756033Y-105968683D01*
X116756033Y-105968683D02*
X116856033Y-105968683D01*
X116856033Y-105968683D02*
X116989366Y-105935350D01*
X116989366Y-105935350D02*
X117056033Y-105902017D01*
X117056033Y-105902017D02*
X117122700Y-105835350D01*
X117122700Y-105835350D02*
X117156033Y-105735350D01*
X117156033Y-105735350D02*
X117156033Y-105668683D01*
X117156033Y-105668683D02*
X117122700Y-105568683D01*
X117122700Y-105568683D02*
X117089366Y-105535350D01*
X117089366Y-105535350D02*
X116856033Y-105535350D01*
X116856033Y-105535350D02*
X116856033Y-105668683D01*
X117156033Y-105235350D02*
X116456033Y-105235350D01*
X116456033Y-105235350D02*
X116456033Y-104968683D01*
X116456033Y-104968683D02*
X116489366Y-104902017D01*
X116489366Y-104902017D02*
X116522700Y-104868683D01*
X116522700Y-104868683D02*
X116589366Y-104835350D01*
X116589366Y-104835350D02*
X116689366Y-104835350D01*
X116689366Y-104835350D02*
X116756033Y-104868683D01*
X116756033Y-104868683D02*
X116789366Y-104902017D01*
X116789366Y-104902017D02*
X116822700Y-104968683D01*
X116822700Y-104968683D02*
X116822700Y-105235350D01*
X117156033Y-104535350D02*
X116456033Y-104535350D01*
X116456033Y-104068684D02*
X116456033Y-103935350D01*
X116456033Y-103935350D02*
X116489366Y-103868684D01*
X116489366Y-103868684D02*
X116556033Y-103802017D01*
X116556033Y-103802017D02*
X116689366Y-103768684D01*
X116689366Y-103768684D02*
X116922700Y-103768684D01*
X116922700Y-103768684D02*
X117056033Y-103802017D01*
X117056033Y-103802017D02*
X117122700Y-103868684D01*
X117122700Y-103868684D02*
X117156033Y-103935350D01*
X117156033Y-103935350D02*
X117156033Y-104068684D01*
X117156033Y-104068684D02*
X117122700Y-104135350D01*
X117122700Y-104135350D02*
X117056033Y-104202017D01*
X117056033Y-104202017D02*
X116922700Y-104235350D01*
X116922700Y-104235350D02*
X116689366Y-104235350D01*
X116689366Y-104235350D02*
X116556033Y-104202017D01*
X116556033Y-104202017D02*
X116489366Y-104135350D01*
X116489366Y-104135350D02*
X116456033Y-104068684D01*
X116689366Y-103168684D02*
X117156033Y-103168684D01*
X116422700Y-103335351D02*
X116922700Y-103502017D01*
X116922700Y-103502017D02*
X116922700Y-103068684D01*
X121569366Y-105568683D02*
X121536033Y-105635350D01*
X121536033Y-105635350D02*
X121536033Y-105735350D01*
X121536033Y-105735350D02*
X121569366Y-105835350D01*
X121569366Y-105835350D02*
X121636033Y-105902017D01*
X121636033Y-105902017D02*
X121702700Y-105935350D01*
X121702700Y-105935350D02*
X121836033Y-105968683D01*
X121836033Y-105968683D02*
X121936033Y-105968683D01*
X121936033Y-105968683D02*
X122069366Y-105935350D01*
X122069366Y-105935350D02*
X122136033Y-105902017D01*
X122136033Y-105902017D02*
X122202700Y-105835350D01*
X122202700Y-105835350D02*
X122236033Y-105735350D01*
X122236033Y-105735350D02*
X122236033Y-105668683D01*
X122236033Y-105668683D02*
X122202700Y-105568683D01*
X122202700Y-105568683D02*
X122169366Y-105535350D01*
X122169366Y-105535350D02*
X121936033Y-105535350D01*
X121936033Y-105535350D02*
X121936033Y-105668683D01*
X122236033Y-105235350D02*
X121536033Y-105235350D01*
X121536033Y-105235350D02*
X121536033Y-104968683D01*
X121536033Y-104968683D02*
X121569366Y-104902017D01*
X121569366Y-104902017D02*
X121602700Y-104868683D01*
X121602700Y-104868683D02*
X121669366Y-104835350D01*
X121669366Y-104835350D02*
X121769366Y-104835350D01*
X121769366Y-104835350D02*
X121836033Y-104868683D01*
X121836033Y-104868683D02*
X121869366Y-104902017D01*
X121869366Y-104902017D02*
X121902700Y-104968683D01*
X121902700Y-104968683D02*
X121902700Y-105235350D01*
X122236033Y-104535350D02*
X121536033Y-104535350D01*
X121536033Y-104068684D02*
X121536033Y-103935350D01*
X121536033Y-103935350D02*
X121569366Y-103868684D01*
X121569366Y-103868684D02*
X121636033Y-103802017D01*
X121636033Y-103802017D02*
X121769366Y-103768684D01*
X121769366Y-103768684D02*
X122002700Y-103768684D01*
X122002700Y-103768684D02*
X122136033Y-103802017D01*
X122136033Y-103802017D02*
X122202700Y-103868684D01*
X122202700Y-103868684D02*
X122236033Y-103935350D01*
X122236033Y-103935350D02*
X122236033Y-104068684D01*
X122236033Y-104068684D02*
X122202700Y-104135350D01*
X122202700Y-104135350D02*
X122136033Y-104202017D01*
X122136033Y-104202017D02*
X122002700Y-104235350D01*
X122002700Y-104235350D02*
X121769366Y-104235350D01*
X121769366Y-104235350D02*
X121636033Y-104202017D01*
X121636033Y-104202017D02*
X121569366Y-104135350D01*
X121569366Y-104135350D02*
X121536033Y-104068684D01*
X121602700Y-103502017D02*
X121569366Y-103468684D01*
X121569366Y-103468684D02*
X121536033Y-103402017D01*
X121536033Y-103402017D02*
X121536033Y-103235351D01*
X121536033Y-103235351D02*
X121569366Y-103168684D01*
X121569366Y-103168684D02*
X121602700Y-103135351D01*
X121602700Y-103135351D02*
X121669366Y-103102017D01*
X121669366Y-103102017D02*
X121736033Y-103102017D01*
X121736033Y-103102017D02*
X121836033Y-103135351D01*
X121836033Y-103135351D02*
X122236033Y-103535351D01*
X122236033Y-103535351D02*
X122236033Y-103102017D01*
X98709366Y-106235350D02*
X98676033Y-106302017D01*
X98676033Y-106302017D02*
X98676033Y-106402017D01*
X98676033Y-106402017D02*
X98709366Y-106502017D01*
X98709366Y-106502017D02*
X98776033Y-106568684D01*
X98776033Y-106568684D02*
X98842700Y-106602017D01*
X98842700Y-106602017D02*
X98976033Y-106635350D01*
X98976033Y-106635350D02*
X99076033Y-106635350D01*
X99076033Y-106635350D02*
X99209366Y-106602017D01*
X99209366Y-106602017D02*
X99276033Y-106568684D01*
X99276033Y-106568684D02*
X99342700Y-106502017D01*
X99342700Y-106502017D02*
X99376033Y-106402017D01*
X99376033Y-106402017D02*
X99376033Y-106335350D01*
X99376033Y-106335350D02*
X99342700Y-106235350D01*
X99342700Y-106235350D02*
X99309366Y-106202017D01*
X99309366Y-106202017D02*
X99076033Y-106202017D01*
X99076033Y-106202017D02*
X99076033Y-106335350D01*
X99376033Y-105902017D02*
X98676033Y-105902017D01*
X98676033Y-105902017D02*
X98676033Y-105635350D01*
X98676033Y-105635350D02*
X98709366Y-105568684D01*
X98709366Y-105568684D02*
X98742700Y-105535350D01*
X98742700Y-105535350D02*
X98809366Y-105502017D01*
X98809366Y-105502017D02*
X98909366Y-105502017D01*
X98909366Y-105502017D02*
X98976033Y-105535350D01*
X98976033Y-105535350D02*
X99009366Y-105568684D01*
X99009366Y-105568684D02*
X99042700Y-105635350D01*
X99042700Y-105635350D02*
X99042700Y-105902017D01*
X99376033Y-105202017D02*
X98676033Y-105202017D01*
X98676033Y-104735351D02*
X98676033Y-104602017D01*
X98676033Y-104602017D02*
X98709366Y-104535351D01*
X98709366Y-104535351D02*
X98776033Y-104468684D01*
X98776033Y-104468684D02*
X98909366Y-104435351D01*
X98909366Y-104435351D02*
X99142700Y-104435351D01*
X99142700Y-104435351D02*
X99276033Y-104468684D01*
X99276033Y-104468684D02*
X99342700Y-104535351D01*
X99342700Y-104535351D02*
X99376033Y-104602017D01*
X99376033Y-104602017D02*
X99376033Y-104735351D01*
X99376033Y-104735351D02*
X99342700Y-104802017D01*
X99342700Y-104802017D02*
X99276033Y-104868684D01*
X99276033Y-104868684D02*
X99142700Y-104902017D01*
X99142700Y-104902017D02*
X98909366Y-104902017D01*
X98909366Y-104902017D02*
X98776033Y-104868684D01*
X98776033Y-104868684D02*
X98709366Y-104802017D01*
X98709366Y-104802017D02*
X98676033Y-104735351D01*
X98742700Y-104168684D02*
X98709366Y-104135351D01*
X98709366Y-104135351D02*
X98676033Y-104068684D01*
X98676033Y-104068684D02*
X98676033Y-103902018D01*
X98676033Y-103902018D02*
X98709366Y-103835351D01*
X98709366Y-103835351D02*
X98742700Y-103802018D01*
X98742700Y-103802018D02*
X98809366Y-103768684D01*
X98809366Y-103768684D02*
X98876033Y-103768684D01*
X98876033Y-103768684D02*
X98976033Y-103802018D01*
X98976033Y-103802018D02*
X99376033Y-104202018D01*
X99376033Y-104202018D02*
X99376033Y-103768684D01*
X99376033Y-103102017D02*
X99376033Y-103502017D01*
X99376033Y-103302017D02*
X98676033Y-103302017D01*
X98676033Y-103302017D02*
X98776033Y-103368684D01*
X98776033Y-103368684D02*
X98842700Y-103435351D01*
X98842700Y-103435351D02*
X98876033Y-103502017D01*
X113949366Y-125097982D02*
X113916033Y-125164649D01*
X113916033Y-125164649D02*
X113916033Y-125264649D01*
X113916033Y-125264649D02*
X113949366Y-125364649D01*
X113949366Y-125364649D02*
X114016033Y-125431316D01*
X114016033Y-125431316D02*
X114082700Y-125464649D01*
X114082700Y-125464649D02*
X114216033Y-125497982D01*
X114216033Y-125497982D02*
X114316033Y-125497982D01*
X114316033Y-125497982D02*
X114449366Y-125464649D01*
X114449366Y-125464649D02*
X114516033Y-125431316D01*
X114516033Y-125431316D02*
X114582700Y-125364649D01*
X114582700Y-125364649D02*
X114616033Y-125264649D01*
X114616033Y-125264649D02*
X114616033Y-125197982D01*
X114616033Y-125197982D02*
X114582700Y-125097982D01*
X114582700Y-125097982D02*
X114549366Y-125064649D01*
X114549366Y-125064649D02*
X114316033Y-125064649D01*
X114316033Y-125064649D02*
X114316033Y-125197982D01*
X114616033Y-124764649D02*
X113916033Y-124764649D01*
X113916033Y-124764649D02*
X113916033Y-124497982D01*
X113916033Y-124497982D02*
X113949366Y-124431316D01*
X113949366Y-124431316D02*
X113982700Y-124397982D01*
X113982700Y-124397982D02*
X114049366Y-124364649D01*
X114049366Y-124364649D02*
X114149366Y-124364649D01*
X114149366Y-124364649D02*
X114216033Y-124397982D01*
X114216033Y-124397982D02*
X114249366Y-124431316D01*
X114249366Y-124431316D02*
X114282700Y-124497982D01*
X114282700Y-124497982D02*
X114282700Y-124764649D01*
X114616033Y-124064649D02*
X113916033Y-124064649D01*
X113916033Y-123597983D02*
X113916033Y-123464649D01*
X113916033Y-123464649D02*
X113949366Y-123397983D01*
X113949366Y-123397983D02*
X114016033Y-123331316D01*
X114016033Y-123331316D02*
X114149366Y-123297983D01*
X114149366Y-123297983D02*
X114382700Y-123297983D01*
X114382700Y-123297983D02*
X114516033Y-123331316D01*
X114516033Y-123331316D02*
X114582700Y-123397983D01*
X114582700Y-123397983D02*
X114616033Y-123464649D01*
X114616033Y-123464649D02*
X114616033Y-123597983D01*
X114616033Y-123597983D02*
X114582700Y-123664649D01*
X114582700Y-123664649D02*
X114516033Y-123731316D01*
X114516033Y-123731316D02*
X114382700Y-123764649D01*
X114382700Y-123764649D02*
X114149366Y-123764649D01*
X114149366Y-123764649D02*
X114016033Y-123731316D01*
X114016033Y-123731316D02*
X113949366Y-123664649D01*
X113949366Y-123664649D02*
X113916033Y-123597983D01*
X114616033Y-122631316D02*
X114616033Y-123031316D01*
X114616033Y-122831316D02*
X113916033Y-122831316D01*
X113916033Y-122831316D02*
X114016033Y-122897983D01*
X114016033Y-122897983D02*
X114082700Y-122964650D01*
X114082700Y-122964650D02*
X114116033Y-123031316D01*
X114149366Y-122031316D02*
X114616033Y-122031316D01*
X113882700Y-122197983D02*
X114382700Y-122364649D01*
X114382700Y-122364649D02*
X114382700Y-121931316D01*
X113882700Y-121164649D02*
X114782700Y-121764649D01*
X114616033Y-120931316D02*
X113916033Y-120931316D01*
X113916033Y-120931316D02*
X114416033Y-120697983D01*
X114416033Y-120697983D02*
X113916033Y-120464649D01*
X113916033Y-120464649D02*
X114616033Y-120464649D01*
X113916033Y-120231316D02*
X113916033Y-119831316D01*
X114616033Y-120031316D02*
X113916033Y-120031316D01*
X114616033Y-119597983D02*
X113916033Y-119597983D01*
X113916033Y-119597983D02*
X114416033Y-119364650D01*
X114416033Y-119364650D02*
X113916033Y-119131316D01*
X113916033Y-119131316D02*
X114616033Y-119131316D01*
X114582700Y-118831316D02*
X114616033Y-118731316D01*
X114616033Y-118731316D02*
X114616033Y-118564650D01*
X114616033Y-118564650D02*
X114582700Y-118497983D01*
X114582700Y-118497983D02*
X114549366Y-118464650D01*
X114549366Y-118464650D02*
X114482700Y-118431316D01*
X114482700Y-118431316D02*
X114416033Y-118431316D01*
X114416033Y-118431316D02*
X114349366Y-118464650D01*
X114349366Y-118464650D02*
X114316033Y-118497983D01*
X114316033Y-118497983D02*
X114282700Y-118564650D01*
X114282700Y-118564650D02*
X114249366Y-118697983D01*
X114249366Y-118697983D02*
X114216033Y-118764650D01*
X114216033Y-118764650D02*
X114182700Y-118797983D01*
X114182700Y-118797983D02*
X114116033Y-118831316D01*
X114116033Y-118831316D02*
X114049366Y-118831316D01*
X114049366Y-118831316D02*
X113982700Y-118797983D01*
X113982700Y-118797983D02*
X113949366Y-118764650D01*
X113949366Y-118764650D02*
X113916033Y-118697983D01*
X113916033Y-118697983D02*
X113916033Y-118531316D01*
X113916033Y-118531316D02*
X113949366Y-118431316D01*
X121569366Y-125097982D02*
X121536033Y-125164649D01*
X121536033Y-125164649D02*
X121536033Y-125264649D01*
X121536033Y-125264649D02*
X121569366Y-125364649D01*
X121569366Y-125364649D02*
X121636033Y-125431316D01*
X121636033Y-125431316D02*
X121702700Y-125464649D01*
X121702700Y-125464649D02*
X121836033Y-125497982D01*
X121836033Y-125497982D02*
X121936033Y-125497982D01*
X121936033Y-125497982D02*
X122069366Y-125464649D01*
X122069366Y-125464649D02*
X122136033Y-125431316D01*
X122136033Y-125431316D02*
X122202700Y-125364649D01*
X122202700Y-125364649D02*
X122236033Y-125264649D01*
X122236033Y-125264649D02*
X122236033Y-125197982D01*
X122236033Y-125197982D02*
X122202700Y-125097982D01*
X122202700Y-125097982D02*
X122169366Y-125064649D01*
X122169366Y-125064649D02*
X121936033Y-125064649D01*
X121936033Y-125064649D02*
X121936033Y-125197982D01*
X122236033Y-124764649D02*
X121536033Y-124764649D01*
X121536033Y-124764649D02*
X121536033Y-124497982D01*
X121536033Y-124497982D02*
X121569366Y-124431316D01*
X121569366Y-124431316D02*
X121602700Y-124397982D01*
X121602700Y-124397982D02*
X121669366Y-124364649D01*
X121669366Y-124364649D02*
X121769366Y-124364649D01*
X121769366Y-124364649D02*
X121836033Y-124397982D01*
X121836033Y-124397982D02*
X121869366Y-124431316D01*
X121869366Y-124431316D02*
X121902700Y-124497982D01*
X121902700Y-124497982D02*
X121902700Y-124764649D01*
X122236033Y-124064649D02*
X121536033Y-124064649D01*
X121536033Y-123597983D02*
X121536033Y-123464649D01*
X121536033Y-123464649D02*
X121569366Y-123397983D01*
X121569366Y-123397983D02*
X121636033Y-123331316D01*
X121636033Y-123331316D02*
X121769366Y-123297983D01*
X121769366Y-123297983D02*
X122002700Y-123297983D01*
X122002700Y-123297983D02*
X122136033Y-123331316D01*
X122136033Y-123331316D02*
X122202700Y-123397983D01*
X122202700Y-123397983D02*
X122236033Y-123464649D01*
X122236033Y-123464649D02*
X122236033Y-123597983D01*
X122236033Y-123597983D02*
X122202700Y-123664649D01*
X122202700Y-123664649D02*
X122136033Y-123731316D01*
X122136033Y-123731316D02*
X122002700Y-123764649D01*
X122002700Y-123764649D02*
X121769366Y-123764649D01*
X121769366Y-123764649D02*
X121636033Y-123731316D01*
X121636033Y-123731316D02*
X121569366Y-123664649D01*
X121569366Y-123664649D02*
X121536033Y-123597983D01*
X122236033Y-122631316D02*
X122236033Y-123031316D01*
X122236033Y-122831316D02*
X121536033Y-122831316D01*
X121536033Y-122831316D02*
X121636033Y-122897983D01*
X121636033Y-122897983D02*
X121702700Y-122964650D01*
X121702700Y-122964650D02*
X121736033Y-123031316D01*
X121536033Y-122397983D02*
X121536033Y-121964649D01*
X121536033Y-121964649D02*
X121802700Y-122197983D01*
X121802700Y-122197983D02*
X121802700Y-122097983D01*
X121802700Y-122097983D02*
X121836033Y-122031316D01*
X121836033Y-122031316D02*
X121869366Y-121997983D01*
X121869366Y-121997983D02*
X121936033Y-121964649D01*
X121936033Y-121964649D02*
X122102700Y-121964649D01*
X122102700Y-121964649D02*
X122169366Y-121997983D01*
X122169366Y-121997983D02*
X122202700Y-122031316D01*
X122202700Y-122031316D02*
X122236033Y-122097983D01*
X122236033Y-122097983D02*
X122236033Y-122297983D01*
X122236033Y-122297983D02*
X122202700Y-122364649D01*
X122202700Y-122364649D02*
X122169366Y-122397983D01*
X121502700Y-121164649D02*
X122402700Y-121764649D01*
X122236033Y-120931316D02*
X121536033Y-120931316D01*
X121536033Y-120931316D02*
X122036033Y-120697983D01*
X122036033Y-120697983D02*
X121536033Y-120464649D01*
X121536033Y-120464649D02*
X122236033Y-120464649D01*
X121536033Y-120231316D02*
X121536033Y-119831316D01*
X122236033Y-120031316D02*
X121536033Y-120031316D01*
X122169366Y-119197983D02*
X122202700Y-119231316D01*
X122202700Y-119231316D02*
X122236033Y-119331316D01*
X122236033Y-119331316D02*
X122236033Y-119397983D01*
X122236033Y-119397983D02*
X122202700Y-119497983D01*
X122202700Y-119497983D02*
X122136033Y-119564650D01*
X122136033Y-119564650D02*
X122069366Y-119597983D01*
X122069366Y-119597983D02*
X121936033Y-119631316D01*
X121936033Y-119631316D02*
X121836033Y-119631316D01*
X121836033Y-119631316D02*
X121702700Y-119597983D01*
X121702700Y-119597983D02*
X121636033Y-119564650D01*
X121636033Y-119564650D02*
X121569366Y-119497983D01*
X121569366Y-119497983D02*
X121536033Y-119397983D01*
X121536033Y-119397983D02*
X121536033Y-119331316D01*
X121536033Y-119331316D02*
X121569366Y-119231316D01*
X121569366Y-119231316D02*
X121602700Y-119197983D01*
X122236033Y-118897983D02*
X121536033Y-118897983D01*
X122236033Y-118497983D02*
X121836033Y-118797983D01*
X121536033Y-118497983D02*
X121936033Y-118897983D01*
X132329366Y-104368684D02*
X132362700Y-104402017D01*
X132362700Y-104402017D02*
X132396033Y-104502017D01*
X132396033Y-104502017D02*
X132396033Y-104568684D01*
X132396033Y-104568684D02*
X132362700Y-104668684D01*
X132362700Y-104668684D02*
X132296033Y-104735351D01*
X132296033Y-104735351D02*
X132229366Y-104768684D01*
X132229366Y-104768684D02*
X132096033Y-104802017D01*
X132096033Y-104802017D02*
X131996033Y-104802017D01*
X131996033Y-104802017D02*
X131862700Y-104768684D01*
X131862700Y-104768684D02*
X131796033Y-104735351D01*
X131796033Y-104735351D02*
X131729366Y-104668684D01*
X131729366Y-104668684D02*
X131696033Y-104568684D01*
X131696033Y-104568684D02*
X131696033Y-104502017D01*
X131696033Y-104502017D02*
X131729366Y-104402017D01*
X131729366Y-104402017D02*
X131762700Y-104368684D01*
X132396033Y-103735351D02*
X132396033Y-104068684D01*
X132396033Y-104068684D02*
X131696033Y-104068684D01*
X132396033Y-103502017D02*
X131696033Y-103502017D01*
X132396033Y-103102017D02*
X131996033Y-103402017D01*
X131696033Y-103102017D02*
X132096033Y-103502017D01*
X93629366Y-109602016D02*
X93596033Y-109668683D01*
X93596033Y-109668683D02*
X93596033Y-109768683D01*
X93596033Y-109768683D02*
X93629366Y-109868683D01*
X93629366Y-109868683D02*
X93696033Y-109935350D01*
X93696033Y-109935350D02*
X93762700Y-109968683D01*
X93762700Y-109968683D02*
X93896033Y-110002016D01*
X93896033Y-110002016D02*
X93996033Y-110002016D01*
X93996033Y-110002016D02*
X94129366Y-109968683D01*
X94129366Y-109968683D02*
X94196033Y-109935350D01*
X94196033Y-109935350D02*
X94262700Y-109868683D01*
X94262700Y-109868683D02*
X94296033Y-109768683D01*
X94296033Y-109768683D02*
X94296033Y-109702016D01*
X94296033Y-109702016D02*
X94262700Y-109602016D01*
X94262700Y-109602016D02*
X94229366Y-109568683D01*
X94229366Y-109568683D02*
X93996033Y-109568683D01*
X93996033Y-109568683D02*
X93996033Y-109702016D01*
X94296033Y-109268683D02*
X93596033Y-109268683D01*
X93596033Y-109268683D02*
X93596033Y-109002016D01*
X93596033Y-109002016D02*
X93629366Y-108935350D01*
X93629366Y-108935350D02*
X93662700Y-108902016D01*
X93662700Y-108902016D02*
X93729366Y-108868683D01*
X93729366Y-108868683D02*
X93829366Y-108868683D01*
X93829366Y-108868683D02*
X93896033Y-108902016D01*
X93896033Y-108902016D02*
X93929366Y-108935350D01*
X93929366Y-108935350D02*
X93962700Y-109002016D01*
X93962700Y-109002016D02*
X93962700Y-109268683D01*
X94296033Y-108568683D02*
X93596033Y-108568683D01*
X93596033Y-108102017D02*
X93596033Y-107968683D01*
X93596033Y-107968683D02*
X93629366Y-107902017D01*
X93629366Y-107902017D02*
X93696033Y-107835350D01*
X93696033Y-107835350D02*
X93829366Y-107802017D01*
X93829366Y-107802017D02*
X94062700Y-107802017D01*
X94062700Y-107802017D02*
X94196033Y-107835350D01*
X94196033Y-107835350D02*
X94262700Y-107902017D01*
X94262700Y-107902017D02*
X94296033Y-107968683D01*
X94296033Y-107968683D02*
X94296033Y-108102017D01*
X94296033Y-108102017D02*
X94262700Y-108168683D01*
X94262700Y-108168683D02*
X94196033Y-108235350D01*
X94196033Y-108235350D02*
X94062700Y-108268683D01*
X94062700Y-108268683D02*
X93829366Y-108268683D01*
X93829366Y-108268683D02*
X93696033Y-108235350D01*
X93696033Y-108235350D02*
X93629366Y-108168683D01*
X93629366Y-108168683D02*
X93596033Y-108102017D01*
X94296033Y-107135350D02*
X94296033Y-107535350D01*
X94296033Y-107335350D02*
X93596033Y-107335350D01*
X93596033Y-107335350D02*
X93696033Y-107402017D01*
X93696033Y-107402017D02*
X93762700Y-107468684D01*
X93762700Y-107468684D02*
X93796033Y-107535350D01*
X93562700Y-106335350D02*
X94462700Y-106935350D01*
X93596033Y-106102017D02*
X94162700Y-106102017D01*
X94162700Y-106102017D02*
X94229366Y-106068684D01*
X94229366Y-106068684D02*
X94262700Y-106035350D01*
X94262700Y-106035350D02*
X94296033Y-105968684D01*
X94296033Y-105968684D02*
X94296033Y-105835350D01*
X94296033Y-105835350D02*
X94262700Y-105768684D01*
X94262700Y-105768684D02*
X94229366Y-105735350D01*
X94229366Y-105735350D02*
X94162700Y-105702017D01*
X94162700Y-105702017D02*
X93596033Y-105702017D01*
X93596033Y-105235351D02*
X93596033Y-105168684D01*
X93596033Y-105168684D02*
X93629366Y-105102017D01*
X93629366Y-105102017D02*
X93662700Y-105068684D01*
X93662700Y-105068684D02*
X93729366Y-105035351D01*
X93729366Y-105035351D02*
X93862700Y-105002017D01*
X93862700Y-105002017D02*
X94029366Y-105002017D01*
X94029366Y-105002017D02*
X94162700Y-105035351D01*
X94162700Y-105035351D02*
X94229366Y-105068684D01*
X94229366Y-105068684D02*
X94262700Y-105102017D01*
X94262700Y-105102017D02*
X94296033Y-105168684D01*
X94296033Y-105168684D02*
X94296033Y-105235351D01*
X94296033Y-105235351D02*
X94262700Y-105302017D01*
X94262700Y-105302017D02*
X94229366Y-105335351D01*
X94229366Y-105335351D02*
X94162700Y-105368684D01*
X94162700Y-105368684D02*
X94029366Y-105402017D01*
X94029366Y-105402017D02*
X93862700Y-105402017D01*
X93862700Y-105402017D02*
X93729366Y-105368684D01*
X93729366Y-105368684D02*
X93662700Y-105335351D01*
X93662700Y-105335351D02*
X93629366Y-105302017D01*
X93629366Y-105302017D02*
X93596033Y-105235351D01*
X93596033Y-104802017D02*
X93596033Y-104402017D01*
X94296033Y-104602017D02*
X93596033Y-104602017D01*
X93596033Y-104235351D02*
X94296033Y-103768684D01*
X93596033Y-103768684D02*
X94296033Y-104235351D01*
X94296033Y-103502017D02*
X93596033Y-103502017D01*
X93596033Y-103502017D02*
X93596033Y-103335350D01*
X93596033Y-103335350D02*
X93629366Y-103235350D01*
X93629366Y-103235350D02*
X93696033Y-103168684D01*
X93696033Y-103168684D02*
X93762700Y-103135350D01*
X93762700Y-103135350D02*
X93896033Y-103102017D01*
X93896033Y-103102017D02*
X93996033Y-103102017D01*
X93996033Y-103102017D02*
X94129366Y-103135350D01*
X94129366Y-103135350D02*
X94196033Y-103168684D01*
X94196033Y-103168684D02*
X94262700Y-103235350D01*
X94262700Y-103235350D02*
X94296033Y-103335350D01*
X94296033Y-103335350D02*
X94296033Y-103502017D01*
X127316033Y-125464649D02*
X126616033Y-125464649D01*
X126616033Y-125464649D02*
X126616033Y-125297982D01*
X126616033Y-125297982D02*
X126649366Y-125197982D01*
X126649366Y-125197982D02*
X126716033Y-125131316D01*
X126716033Y-125131316D02*
X126782700Y-125097982D01*
X126782700Y-125097982D02*
X126916033Y-125064649D01*
X126916033Y-125064649D02*
X127016033Y-125064649D01*
X127016033Y-125064649D02*
X127149366Y-125097982D01*
X127149366Y-125097982D02*
X127216033Y-125131316D01*
X127216033Y-125131316D02*
X127282700Y-125197982D01*
X127282700Y-125197982D02*
X127316033Y-125297982D01*
X127316033Y-125297982D02*
X127316033Y-125464649D01*
X126616033Y-124831316D02*
X126616033Y-124397982D01*
X126616033Y-124397982D02*
X126882700Y-124631316D01*
X126882700Y-124631316D02*
X126882700Y-124531316D01*
X126882700Y-124531316D02*
X126916033Y-124464649D01*
X126916033Y-124464649D02*
X126949366Y-124431316D01*
X126949366Y-124431316D02*
X127016033Y-124397982D01*
X127016033Y-124397982D02*
X127182700Y-124397982D01*
X127182700Y-124397982D02*
X127249366Y-124431316D01*
X127249366Y-124431316D02*
X127282700Y-124464649D01*
X127282700Y-124464649D02*
X127316033Y-124531316D01*
X127316033Y-124531316D02*
X127316033Y-124731316D01*
X127316033Y-124731316D02*
X127282700Y-124797982D01*
X127282700Y-124797982D02*
X127249366Y-124831316D01*
X113949366Y-106235350D02*
X113916033Y-106302017D01*
X113916033Y-106302017D02*
X113916033Y-106402017D01*
X113916033Y-106402017D02*
X113949366Y-106502017D01*
X113949366Y-106502017D02*
X114016033Y-106568684D01*
X114016033Y-106568684D02*
X114082700Y-106602017D01*
X114082700Y-106602017D02*
X114216033Y-106635350D01*
X114216033Y-106635350D02*
X114316033Y-106635350D01*
X114316033Y-106635350D02*
X114449366Y-106602017D01*
X114449366Y-106602017D02*
X114516033Y-106568684D01*
X114516033Y-106568684D02*
X114582700Y-106502017D01*
X114582700Y-106502017D02*
X114616033Y-106402017D01*
X114616033Y-106402017D02*
X114616033Y-106335350D01*
X114616033Y-106335350D02*
X114582700Y-106235350D01*
X114582700Y-106235350D02*
X114549366Y-106202017D01*
X114549366Y-106202017D02*
X114316033Y-106202017D01*
X114316033Y-106202017D02*
X114316033Y-106335350D01*
X114616033Y-105902017D02*
X113916033Y-105902017D01*
X113916033Y-105902017D02*
X113916033Y-105635350D01*
X113916033Y-105635350D02*
X113949366Y-105568684D01*
X113949366Y-105568684D02*
X113982700Y-105535350D01*
X113982700Y-105535350D02*
X114049366Y-105502017D01*
X114049366Y-105502017D02*
X114149366Y-105502017D01*
X114149366Y-105502017D02*
X114216033Y-105535350D01*
X114216033Y-105535350D02*
X114249366Y-105568684D01*
X114249366Y-105568684D02*
X114282700Y-105635350D01*
X114282700Y-105635350D02*
X114282700Y-105902017D01*
X114616033Y-105202017D02*
X113916033Y-105202017D01*
X113916033Y-104735351D02*
X113916033Y-104602017D01*
X113916033Y-104602017D02*
X113949366Y-104535351D01*
X113949366Y-104535351D02*
X114016033Y-104468684D01*
X114016033Y-104468684D02*
X114149366Y-104435351D01*
X114149366Y-104435351D02*
X114382700Y-104435351D01*
X114382700Y-104435351D02*
X114516033Y-104468684D01*
X114516033Y-104468684D02*
X114582700Y-104535351D01*
X114582700Y-104535351D02*
X114616033Y-104602017D01*
X114616033Y-104602017D02*
X114616033Y-104735351D01*
X114616033Y-104735351D02*
X114582700Y-104802017D01*
X114582700Y-104802017D02*
X114516033Y-104868684D01*
X114516033Y-104868684D02*
X114382700Y-104902017D01*
X114382700Y-104902017D02*
X114149366Y-104902017D01*
X114149366Y-104902017D02*
X114016033Y-104868684D01*
X114016033Y-104868684D02*
X113949366Y-104802017D01*
X113949366Y-104802017D02*
X113916033Y-104735351D01*
X114616033Y-103768684D02*
X114616033Y-104168684D01*
X114616033Y-103968684D02*
X113916033Y-103968684D01*
X113916033Y-103968684D02*
X114016033Y-104035351D01*
X114016033Y-104035351D02*
X114082700Y-104102018D01*
X114082700Y-104102018D02*
X114116033Y-104168684D01*
X113916033Y-103168684D02*
X113916033Y-103302017D01*
X113916033Y-103302017D02*
X113949366Y-103368684D01*
X113949366Y-103368684D02*
X113982700Y-103402017D01*
X113982700Y-103402017D02*
X114082700Y-103468684D01*
X114082700Y-103468684D02*
X114216033Y-103502017D01*
X114216033Y-103502017D02*
X114482700Y-103502017D01*
X114482700Y-103502017D02*
X114549366Y-103468684D01*
X114549366Y-103468684D02*
X114582700Y-103435351D01*
X114582700Y-103435351D02*
X114616033Y-103368684D01*
X114616033Y-103368684D02*
X114616033Y-103235351D01*
X114616033Y-103235351D02*
X114582700Y-103168684D01*
X114582700Y-103168684D02*
X114549366Y-103135351D01*
X114549366Y-103135351D02*
X114482700Y-103102017D01*
X114482700Y-103102017D02*
X114316033Y-103102017D01*
X114316033Y-103102017D02*
X114249366Y-103135351D01*
X114249366Y-103135351D02*
X114216033Y-103168684D01*
X114216033Y-103168684D02*
X114182700Y-103235351D01*
X114182700Y-103235351D02*
X114182700Y-103368684D01*
X114182700Y-103368684D02*
X114216033Y-103435351D01*
X114216033Y-103435351D02*
X114249366Y-103468684D01*
X114249366Y-103468684D02*
X114316033Y-103502017D01*
X118882438Y-124869411D02*
X118834819Y-124964649D01*
X118834819Y-124964649D02*
X118834819Y-125107506D01*
X118834819Y-125107506D02*
X118882438Y-125250363D01*
X118882438Y-125250363D02*
X118977676Y-125345601D01*
X118977676Y-125345601D02*
X119072914Y-125393220D01*
X119072914Y-125393220D02*
X119263390Y-125440839D01*
X119263390Y-125440839D02*
X119406247Y-125440839D01*
X119406247Y-125440839D02*
X119596723Y-125393220D01*
X119596723Y-125393220D02*
X119691961Y-125345601D01*
X119691961Y-125345601D02*
X119787200Y-125250363D01*
X119787200Y-125250363D02*
X119834819Y-125107506D01*
X119834819Y-125107506D02*
X119834819Y-125012268D01*
X119834819Y-125012268D02*
X119787200Y-124869411D01*
X119787200Y-124869411D02*
X119739580Y-124821792D01*
X119739580Y-124821792D02*
X119406247Y-124821792D01*
X119406247Y-124821792D02*
X119406247Y-125012268D01*
X119834819Y-124393220D02*
X118834819Y-124393220D01*
X118834819Y-124393220D02*
X119834819Y-123821792D01*
X119834819Y-123821792D02*
X118834819Y-123821792D01*
X119834819Y-123345601D02*
X118834819Y-123345601D01*
X118834819Y-123345601D02*
X118834819Y-123107506D01*
X118834819Y-123107506D02*
X118882438Y-122964649D01*
X118882438Y-122964649D02*
X118977676Y-122869411D01*
X118977676Y-122869411D02*
X119072914Y-122821792D01*
X119072914Y-122821792D02*
X119263390Y-122774173D01*
X119263390Y-122774173D02*
X119406247Y-122774173D01*
X119406247Y-122774173D02*
X119596723Y-122821792D01*
X119596723Y-122821792D02*
X119691961Y-122869411D01*
X119691961Y-122869411D02*
X119787200Y-122964649D01*
X119787200Y-122964649D02*
X119834819Y-123107506D01*
X119834819Y-123107506D02*
X119834819Y-123345601D01*
X88828289Y-125498078D02*
X88828289Y-125164745D01*
X89352099Y-125021888D02*
X89352099Y-125498078D01*
X89352099Y-125498078D02*
X88352099Y-125498078D01*
X88352099Y-125498078D02*
X88352099Y-125021888D01*
X89352099Y-124593316D02*
X88352099Y-124593316D01*
X88352099Y-124593316D02*
X89352099Y-124021888D01*
X89352099Y-124021888D02*
X88352099Y-124021888D01*
X88304480Y-122831412D02*
X89590194Y-123688554D01*
X89352099Y-121926650D02*
X88875908Y-122259983D01*
X89352099Y-122498078D02*
X88352099Y-122498078D01*
X88352099Y-122498078D02*
X88352099Y-122117126D01*
X88352099Y-122117126D02*
X88399718Y-122021888D01*
X88399718Y-122021888D02*
X88447337Y-121974269D01*
X88447337Y-121974269D02*
X88542575Y-121926650D01*
X88542575Y-121926650D02*
X88685432Y-121926650D01*
X88685432Y-121926650D02*
X88780670Y-121974269D01*
X88780670Y-121974269D02*
X88828289Y-122021888D01*
X88828289Y-122021888D02*
X88875908Y-122117126D01*
X88875908Y-122117126D02*
X88875908Y-122498078D01*
X88828289Y-121498078D02*
X88828289Y-121164745D01*
X89352099Y-121021888D02*
X89352099Y-121498078D01*
X89352099Y-121498078D02*
X88352099Y-121498078D01*
X88352099Y-121498078D02*
X88352099Y-121021888D01*
X89304480Y-120640935D02*
X89352099Y-120498078D01*
X89352099Y-120498078D02*
X89352099Y-120259983D01*
X89352099Y-120259983D02*
X89304480Y-120164745D01*
X89304480Y-120164745D02*
X89256860Y-120117126D01*
X89256860Y-120117126D02*
X89161622Y-120069507D01*
X89161622Y-120069507D02*
X89066384Y-120069507D01*
X89066384Y-120069507D02*
X88971146Y-120117126D01*
X88971146Y-120117126D02*
X88923527Y-120164745D01*
X88923527Y-120164745D02*
X88875908Y-120259983D01*
X88875908Y-120259983D02*
X88828289Y-120450459D01*
X88828289Y-120450459D02*
X88780670Y-120545697D01*
X88780670Y-120545697D02*
X88733051Y-120593316D01*
X88733051Y-120593316D02*
X88637813Y-120640935D01*
X88637813Y-120640935D02*
X88542575Y-120640935D01*
X88542575Y-120640935D02*
X88447337Y-120593316D01*
X88447337Y-120593316D02*
X88399718Y-120545697D01*
X88399718Y-120545697D02*
X88352099Y-120450459D01*
X88352099Y-120450459D02*
X88352099Y-120212364D01*
X88352099Y-120212364D02*
X88399718Y-120069507D01*
X88828289Y-119640935D02*
X88828289Y-119307602D01*
X89352099Y-119164745D02*
X89352099Y-119640935D01*
X89352099Y-119640935D02*
X88352099Y-119640935D01*
X88352099Y-119640935D02*
X88352099Y-119164745D01*
X88352099Y-118879030D02*
X88352099Y-118307602D01*
X89352099Y-118593316D02*
X88352099Y-118593316D01*
X101102438Y-105254398D02*
X101054819Y-105349636D01*
X101054819Y-105349636D02*
X101054819Y-105492493D01*
X101054819Y-105492493D02*
X101102438Y-105635350D01*
X101102438Y-105635350D02*
X101197676Y-105730588D01*
X101197676Y-105730588D02*
X101292914Y-105778207D01*
X101292914Y-105778207D02*
X101483390Y-105825826D01*
X101483390Y-105825826D02*
X101626247Y-105825826D01*
X101626247Y-105825826D02*
X101816723Y-105778207D01*
X101816723Y-105778207D02*
X101911961Y-105730588D01*
X101911961Y-105730588D02*
X102007200Y-105635350D01*
X102007200Y-105635350D02*
X102054819Y-105492493D01*
X102054819Y-105492493D02*
X102054819Y-105397255D01*
X102054819Y-105397255D02*
X102007200Y-105254398D01*
X102007200Y-105254398D02*
X101959580Y-105206779D01*
X101959580Y-105206779D02*
X101626247Y-105206779D01*
X101626247Y-105206779D02*
X101626247Y-105397255D01*
X102054819Y-104778207D02*
X101054819Y-104778207D01*
X101054819Y-104778207D02*
X102054819Y-104206779D01*
X102054819Y-104206779D02*
X101054819Y-104206779D01*
X102054819Y-103730588D02*
X101054819Y-103730588D01*
X101054819Y-103730588D02*
X101054819Y-103492493D01*
X101054819Y-103492493D02*
X101102438Y-103349636D01*
X101102438Y-103349636D02*
X101197676Y-103254398D01*
X101197676Y-103254398D02*
X101292914Y-103206779D01*
X101292914Y-103206779D02*
X101483390Y-103159160D01*
X101483390Y-103159160D02*
X101626247Y-103159160D01*
X101626247Y-103159160D02*
X101816723Y-103206779D01*
X101816723Y-103206779D02*
X101911961Y-103254398D01*
X101911961Y-103254398D02*
X102007200Y-103349636D01*
X102007200Y-103349636D02*
X102054819Y-103492493D01*
X102054819Y-103492493D02*
X102054819Y-103730588D01*
X96169366Y-109768683D02*
X96136033Y-109835350D01*
X96136033Y-109835350D02*
X96136033Y-109935350D01*
X96136033Y-109935350D02*
X96169366Y-110035350D01*
X96169366Y-110035350D02*
X96236033Y-110102017D01*
X96236033Y-110102017D02*
X96302700Y-110135350D01*
X96302700Y-110135350D02*
X96436033Y-110168683D01*
X96436033Y-110168683D02*
X96536033Y-110168683D01*
X96536033Y-110168683D02*
X96669366Y-110135350D01*
X96669366Y-110135350D02*
X96736033Y-110102017D01*
X96736033Y-110102017D02*
X96802700Y-110035350D01*
X96802700Y-110035350D02*
X96836033Y-109935350D01*
X96836033Y-109935350D02*
X96836033Y-109868683D01*
X96836033Y-109868683D02*
X96802700Y-109768683D01*
X96802700Y-109768683D02*
X96769366Y-109735350D01*
X96769366Y-109735350D02*
X96536033Y-109735350D01*
X96536033Y-109735350D02*
X96536033Y-109868683D01*
X96836033Y-109435350D02*
X96136033Y-109435350D01*
X96136033Y-109435350D02*
X96136033Y-109168683D01*
X96136033Y-109168683D02*
X96169366Y-109102017D01*
X96169366Y-109102017D02*
X96202700Y-109068683D01*
X96202700Y-109068683D02*
X96269366Y-109035350D01*
X96269366Y-109035350D02*
X96369366Y-109035350D01*
X96369366Y-109035350D02*
X96436033Y-109068683D01*
X96436033Y-109068683D02*
X96469366Y-109102017D01*
X96469366Y-109102017D02*
X96502700Y-109168683D01*
X96502700Y-109168683D02*
X96502700Y-109435350D01*
X96836033Y-108735350D02*
X96136033Y-108735350D01*
X96136033Y-108268684D02*
X96136033Y-108135350D01*
X96136033Y-108135350D02*
X96169366Y-108068684D01*
X96169366Y-108068684D02*
X96236033Y-108002017D01*
X96236033Y-108002017D02*
X96369366Y-107968684D01*
X96369366Y-107968684D02*
X96602700Y-107968684D01*
X96602700Y-107968684D02*
X96736033Y-108002017D01*
X96736033Y-108002017D02*
X96802700Y-108068684D01*
X96802700Y-108068684D02*
X96836033Y-108135350D01*
X96836033Y-108135350D02*
X96836033Y-108268684D01*
X96836033Y-108268684D02*
X96802700Y-108335350D01*
X96802700Y-108335350D02*
X96736033Y-108402017D01*
X96736033Y-108402017D02*
X96602700Y-108435350D01*
X96602700Y-108435350D02*
X96369366Y-108435350D01*
X96369366Y-108435350D02*
X96236033Y-108402017D01*
X96236033Y-108402017D02*
X96169366Y-108335350D01*
X96169366Y-108335350D02*
X96136033Y-108268684D01*
X96136033Y-107735351D02*
X96136033Y-107302017D01*
X96136033Y-107302017D02*
X96402700Y-107535351D01*
X96402700Y-107535351D02*
X96402700Y-107435351D01*
X96402700Y-107435351D02*
X96436033Y-107368684D01*
X96436033Y-107368684D02*
X96469366Y-107335351D01*
X96469366Y-107335351D02*
X96536033Y-107302017D01*
X96536033Y-107302017D02*
X96702700Y-107302017D01*
X96702700Y-107302017D02*
X96769366Y-107335351D01*
X96769366Y-107335351D02*
X96802700Y-107368684D01*
X96802700Y-107368684D02*
X96836033Y-107435351D01*
X96836033Y-107435351D02*
X96836033Y-107635351D01*
X96836033Y-107635351D02*
X96802700Y-107702017D01*
X96802700Y-107702017D02*
X96769366Y-107735351D01*
X96102700Y-106502017D02*
X97002700Y-107102017D01*
X96136033Y-106268684D02*
X96702700Y-106268684D01*
X96702700Y-106268684D02*
X96769366Y-106235351D01*
X96769366Y-106235351D02*
X96802700Y-106202017D01*
X96802700Y-106202017D02*
X96836033Y-106135351D01*
X96836033Y-106135351D02*
X96836033Y-106002017D01*
X96836033Y-106002017D02*
X96802700Y-105935351D01*
X96802700Y-105935351D02*
X96769366Y-105902017D01*
X96769366Y-105902017D02*
X96702700Y-105868684D01*
X96702700Y-105868684D02*
X96136033Y-105868684D01*
X96136033Y-105402018D02*
X96136033Y-105335351D01*
X96136033Y-105335351D02*
X96169366Y-105268684D01*
X96169366Y-105268684D02*
X96202700Y-105235351D01*
X96202700Y-105235351D02*
X96269366Y-105202018D01*
X96269366Y-105202018D02*
X96402700Y-105168684D01*
X96402700Y-105168684D02*
X96569366Y-105168684D01*
X96569366Y-105168684D02*
X96702700Y-105202018D01*
X96702700Y-105202018D02*
X96769366Y-105235351D01*
X96769366Y-105235351D02*
X96802700Y-105268684D01*
X96802700Y-105268684D02*
X96836033Y-105335351D01*
X96836033Y-105335351D02*
X96836033Y-105402018D01*
X96836033Y-105402018D02*
X96802700Y-105468684D01*
X96802700Y-105468684D02*
X96769366Y-105502018D01*
X96769366Y-105502018D02*
X96702700Y-105535351D01*
X96702700Y-105535351D02*
X96569366Y-105568684D01*
X96569366Y-105568684D02*
X96402700Y-105568684D01*
X96402700Y-105568684D02*
X96269366Y-105535351D01*
X96269366Y-105535351D02*
X96202700Y-105502018D01*
X96202700Y-105502018D02*
X96169366Y-105468684D01*
X96169366Y-105468684D02*
X96136033Y-105402018D01*
X96836033Y-104468684D02*
X96502700Y-104702017D01*
X96836033Y-104868684D02*
X96136033Y-104868684D01*
X96136033Y-104868684D02*
X96136033Y-104602017D01*
X96136033Y-104602017D02*
X96169366Y-104535351D01*
X96169366Y-104535351D02*
X96202700Y-104502017D01*
X96202700Y-104502017D02*
X96269366Y-104468684D01*
X96269366Y-104468684D02*
X96369366Y-104468684D01*
X96369366Y-104468684D02*
X96436033Y-104502017D01*
X96436033Y-104502017D02*
X96469366Y-104535351D01*
X96469366Y-104535351D02*
X96502700Y-104602017D01*
X96502700Y-104602017D02*
X96502700Y-104868684D01*
X96136033Y-104235351D02*
X96836033Y-103768684D01*
X96136033Y-103768684D02*
X96836033Y-104235351D01*
X96836033Y-103502017D02*
X96136033Y-103502017D01*
X96136033Y-103502017D02*
X96136033Y-103335350D01*
X96136033Y-103335350D02*
X96169366Y-103235350D01*
X96169366Y-103235350D02*
X96236033Y-103168684D01*
X96236033Y-103168684D02*
X96302700Y-103135350D01*
X96302700Y-103135350D02*
X96436033Y-103102017D01*
X96436033Y-103102017D02*
X96536033Y-103102017D01*
X96536033Y-103102017D02*
X96669366Y-103135350D01*
X96669366Y-103135350D02*
X96736033Y-103168684D01*
X96736033Y-103168684D02*
X96802700Y-103235350D01*
X96802700Y-103235350D02*
X96836033Y-103335350D01*
X96836033Y-103335350D02*
X96836033Y-103502017D01*
X129856033Y-104168684D02*
X129156033Y-104168684D01*
X129156033Y-104168684D02*
X129156033Y-104002017D01*
X129156033Y-104002017D02*
X129189366Y-103902017D01*
X129189366Y-103902017D02*
X129256033Y-103835351D01*
X129256033Y-103835351D02*
X129322700Y-103802017D01*
X129322700Y-103802017D02*
X129456033Y-103768684D01*
X129456033Y-103768684D02*
X129556033Y-103768684D01*
X129556033Y-103768684D02*
X129689366Y-103802017D01*
X129689366Y-103802017D02*
X129756033Y-103835351D01*
X129756033Y-103835351D02*
X129822700Y-103902017D01*
X129822700Y-103902017D02*
X129856033Y-104002017D01*
X129856033Y-104002017D02*
X129856033Y-104168684D01*
X129156033Y-103335351D02*
X129156033Y-103268684D01*
X129156033Y-103268684D02*
X129189366Y-103202017D01*
X129189366Y-103202017D02*
X129222700Y-103168684D01*
X129222700Y-103168684D02*
X129289366Y-103135351D01*
X129289366Y-103135351D02*
X129422700Y-103102017D01*
X129422700Y-103102017D02*
X129589366Y-103102017D01*
X129589366Y-103102017D02*
X129722700Y-103135351D01*
X129722700Y-103135351D02*
X129789366Y-103168684D01*
X129789366Y-103168684D02*
X129822700Y-103202017D01*
X129822700Y-103202017D02*
X129856033Y-103268684D01*
X129856033Y-103268684D02*
X129856033Y-103335351D01*
X129856033Y-103335351D02*
X129822700Y-103402017D01*
X129822700Y-103402017D02*
X129789366Y-103435351D01*
X129789366Y-103435351D02*
X129722700Y-103468684D01*
X129722700Y-103468684D02*
X129589366Y-103502017D01*
X129589366Y-103502017D02*
X129422700Y-103502017D01*
X129422700Y-103502017D02*
X129289366Y-103468684D01*
X129289366Y-103468684D02*
X129222700Y-103435351D01*
X129222700Y-103435351D02*
X129189366Y-103402017D01*
X129189366Y-103402017D02*
X129156033Y-103335351D01*
X103789366Y-125097982D02*
X103756033Y-125164649D01*
X103756033Y-125164649D02*
X103756033Y-125264649D01*
X103756033Y-125264649D02*
X103789366Y-125364649D01*
X103789366Y-125364649D02*
X103856033Y-125431316D01*
X103856033Y-125431316D02*
X103922700Y-125464649D01*
X103922700Y-125464649D02*
X104056033Y-125497982D01*
X104056033Y-125497982D02*
X104156033Y-125497982D01*
X104156033Y-125497982D02*
X104289366Y-125464649D01*
X104289366Y-125464649D02*
X104356033Y-125431316D01*
X104356033Y-125431316D02*
X104422700Y-125364649D01*
X104422700Y-125364649D02*
X104456033Y-125264649D01*
X104456033Y-125264649D02*
X104456033Y-125197982D01*
X104456033Y-125197982D02*
X104422700Y-125097982D01*
X104422700Y-125097982D02*
X104389366Y-125064649D01*
X104389366Y-125064649D02*
X104156033Y-125064649D01*
X104156033Y-125064649D02*
X104156033Y-125197982D01*
X104456033Y-124764649D02*
X103756033Y-124764649D01*
X103756033Y-124764649D02*
X103756033Y-124497982D01*
X103756033Y-124497982D02*
X103789366Y-124431316D01*
X103789366Y-124431316D02*
X103822700Y-124397982D01*
X103822700Y-124397982D02*
X103889366Y-124364649D01*
X103889366Y-124364649D02*
X103989366Y-124364649D01*
X103989366Y-124364649D02*
X104056033Y-124397982D01*
X104056033Y-124397982D02*
X104089366Y-124431316D01*
X104089366Y-124431316D02*
X104122700Y-124497982D01*
X104122700Y-124497982D02*
X104122700Y-124764649D01*
X104456033Y-124064649D02*
X103756033Y-124064649D01*
X103756033Y-123597983D02*
X103756033Y-123464649D01*
X103756033Y-123464649D02*
X103789366Y-123397983D01*
X103789366Y-123397983D02*
X103856033Y-123331316D01*
X103856033Y-123331316D02*
X103989366Y-123297983D01*
X103989366Y-123297983D02*
X104222700Y-123297983D01*
X104222700Y-123297983D02*
X104356033Y-123331316D01*
X104356033Y-123331316D02*
X104422700Y-123397983D01*
X104422700Y-123397983D02*
X104456033Y-123464649D01*
X104456033Y-123464649D02*
X104456033Y-123597983D01*
X104456033Y-123597983D02*
X104422700Y-123664649D01*
X104422700Y-123664649D02*
X104356033Y-123731316D01*
X104356033Y-123731316D02*
X104222700Y-123764649D01*
X104222700Y-123764649D02*
X103989366Y-123764649D01*
X103989366Y-123764649D02*
X103856033Y-123731316D01*
X103856033Y-123731316D02*
X103789366Y-123664649D01*
X103789366Y-123664649D02*
X103756033Y-123597983D01*
X103756033Y-123064650D02*
X103756033Y-122631316D01*
X103756033Y-122631316D02*
X104022700Y-122864650D01*
X104022700Y-122864650D02*
X104022700Y-122764650D01*
X104022700Y-122764650D02*
X104056033Y-122697983D01*
X104056033Y-122697983D02*
X104089366Y-122664650D01*
X104089366Y-122664650D02*
X104156033Y-122631316D01*
X104156033Y-122631316D02*
X104322700Y-122631316D01*
X104322700Y-122631316D02*
X104389366Y-122664650D01*
X104389366Y-122664650D02*
X104422700Y-122697983D01*
X104422700Y-122697983D02*
X104456033Y-122764650D01*
X104456033Y-122764650D02*
X104456033Y-122964650D01*
X104456033Y-122964650D02*
X104422700Y-123031316D01*
X104422700Y-123031316D02*
X104389366Y-123064650D01*
X103756033Y-122397983D02*
X103756033Y-121964649D01*
X103756033Y-121964649D02*
X104022700Y-122197983D01*
X104022700Y-122197983D02*
X104022700Y-122097983D01*
X104022700Y-122097983D02*
X104056033Y-122031316D01*
X104056033Y-122031316D02*
X104089366Y-121997983D01*
X104089366Y-121997983D02*
X104156033Y-121964649D01*
X104156033Y-121964649D02*
X104322700Y-121964649D01*
X104322700Y-121964649D02*
X104389366Y-121997983D01*
X104389366Y-121997983D02*
X104422700Y-122031316D01*
X104422700Y-122031316D02*
X104456033Y-122097983D01*
X104456033Y-122097983D02*
X104456033Y-122297983D01*
X104456033Y-122297983D02*
X104422700Y-122364649D01*
X104422700Y-122364649D02*
X104389366Y-122397983D01*
X101249366Y-125097982D02*
X101216033Y-125164649D01*
X101216033Y-125164649D02*
X101216033Y-125264649D01*
X101216033Y-125264649D02*
X101249366Y-125364649D01*
X101249366Y-125364649D02*
X101316033Y-125431316D01*
X101316033Y-125431316D02*
X101382700Y-125464649D01*
X101382700Y-125464649D02*
X101516033Y-125497982D01*
X101516033Y-125497982D02*
X101616033Y-125497982D01*
X101616033Y-125497982D02*
X101749366Y-125464649D01*
X101749366Y-125464649D02*
X101816033Y-125431316D01*
X101816033Y-125431316D02*
X101882700Y-125364649D01*
X101882700Y-125364649D02*
X101916033Y-125264649D01*
X101916033Y-125264649D02*
X101916033Y-125197982D01*
X101916033Y-125197982D02*
X101882700Y-125097982D01*
X101882700Y-125097982D02*
X101849366Y-125064649D01*
X101849366Y-125064649D02*
X101616033Y-125064649D01*
X101616033Y-125064649D02*
X101616033Y-125197982D01*
X101916033Y-124764649D02*
X101216033Y-124764649D01*
X101216033Y-124764649D02*
X101216033Y-124497982D01*
X101216033Y-124497982D02*
X101249366Y-124431316D01*
X101249366Y-124431316D02*
X101282700Y-124397982D01*
X101282700Y-124397982D02*
X101349366Y-124364649D01*
X101349366Y-124364649D02*
X101449366Y-124364649D01*
X101449366Y-124364649D02*
X101516033Y-124397982D01*
X101516033Y-124397982D02*
X101549366Y-124431316D01*
X101549366Y-124431316D02*
X101582700Y-124497982D01*
X101582700Y-124497982D02*
X101582700Y-124764649D01*
X101916033Y-124064649D02*
X101216033Y-124064649D01*
X101216033Y-123597983D02*
X101216033Y-123464649D01*
X101216033Y-123464649D02*
X101249366Y-123397983D01*
X101249366Y-123397983D02*
X101316033Y-123331316D01*
X101316033Y-123331316D02*
X101449366Y-123297983D01*
X101449366Y-123297983D02*
X101682700Y-123297983D01*
X101682700Y-123297983D02*
X101816033Y-123331316D01*
X101816033Y-123331316D02*
X101882700Y-123397983D01*
X101882700Y-123397983D02*
X101916033Y-123464649D01*
X101916033Y-123464649D02*
X101916033Y-123597983D01*
X101916033Y-123597983D02*
X101882700Y-123664649D01*
X101882700Y-123664649D02*
X101816033Y-123731316D01*
X101816033Y-123731316D02*
X101682700Y-123764649D01*
X101682700Y-123764649D02*
X101449366Y-123764649D01*
X101449366Y-123764649D02*
X101316033Y-123731316D01*
X101316033Y-123731316D02*
X101249366Y-123664649D01*
X101249366Y-123664649D02*
X101216033Y-123597983D01*
X101216033Y-123064650D02*
X101216033Y-122631316D01*
X101216033Y-122631316D02*
X101482700Y-122864650D01*
X101482700Y-122864650D02*
X101482700Y-122764650D01*
X101482700Y-122764650D02*
X101516033Y-122697983D01*
X101516033Y-122697983D02*
X101549366Y-122664650D01*
X101549366Y-122664650D02*
X101616033Y-122631316D01*
X101616033Y-122631316D02*
X101782700Y-122631316D01*
X101782700Y-122631316D02*
X101849366Y-122664650D01*
X101849366Y-122664650D02*
X101882700Y-122697983D01*
X101882700Y-122697983D02*
X101916033Y-122764650D01*
X101916033Y-122764650D02*
X101916033Y-122964650D01*
X101916033Y-122964650D02*
X101882700Y-123031316D01*
X101882700Y-123031316D02*
X101849366Y-123064650D01*
X101282700Y-122364649D02*
X101249366Y-122331316D01*
X101249366Y-122331316D02*
X101216033Y-122264649D01*
X101216033Y-122264649D02*
X101216033Y-122097983D01*
X101216033Y-122097983D02*
X101249366Y-122031316D01*
X101249366Y-122031316D02*
X101282700Y-121997983D01*
X101282700Y-121997983D02*
X101349366Y-121964649D01*
X101349366Y-121964649D02*
X101416033Y-121964649D01*
X101416033Y-121964649D02*
X101516033Y-121997983D01*
X101516033Y-121997983D02*
X101916033Y-122397983D01*
X101916033Y-122397983D02*
X101916033Y-121964649D01*
X124109366Y-109735349D02*
X124076033Y-109802016D01*
X124076033Y-109802016D02*
X124076033Y-109902016D01*
X124076033Y-109902016D02*
X124109366Y-110002016D01*
X124109366Y-110002016D02*
X124176033Y-110068683D01*
X124176033Y-110068683D02*
X124242700Y-110102016D01*
X124242700Y-110102016D02*
X124376033Y-110135349D01*
X124376033Y-110135349D02*
X124476033Y-110135349D01*
X124476033Y-110135349D02*
X124609366Y-110102016D01*
X124609366Y-110102016D02*
X124676033Y-110068683D01*
X124676033Y-110068683D02*
X124742700Y-110002016D01*
X124742700Y-110002016D02*
X124776033Y-109902016D01*
X124776033Y-109902016D02*
X124776033Y-109835349D01*
X124776033Y-109835349D02*
X124742700Y-109735349D01*
X124742700Y-109735349D02*
X124709366Y-109702016D01*
X124709366Y-109702016D02*
X124476033Y-109702016D01*
X124476033Y-109702016D02*
X124476033Y-109835349D01*
X124776033Y-109402016D02*
X124076033Y-109402016D01*
X124076033Y-109402016D02*
X124076033Y-109135349D01*
X124076033Y-109135349D02*
X124109366Y-109068683D01*
X124109366Y-109068683D02*
X124142700Y-109035349D01*
X124142700Y-109035349D02*
X124209366Y-109002016D01*
X124209366Y-109002016D02*
X124309366Y-109002016D01*
X124309366Y-109002016D02*
X124376033Y-109035349D01*
X124376033Y-109035349D02*
X124409366Y-109068683D01*
X124409366Y-109068683D02*
X124442700Y-109135349D01*
X124442700Y-109135349D02*
X124442700Y-109402016D01*
X124776033Y-108702016D02*
X124076033Y-108702016D01*
X124076033Y-108235350D02*
X124076033Y-108102016D01*
X124076033Y-108102016D02*
X124109366Y-108035350D01*
X124109366Y-108035350D02*
X124176033Y-107968683D01*
X124176033Y-107968683D02*
X124309366Y-107935350D01*
X124309366Y-107935350D02*
X124542700Y-107935350D01*
X124542700Y-107935350D02*
X124676033Y-107968683D01*
X124676033Y-107968683D02*
X124742700Y-108035350D01*
X124742700Y-108035350D02*
X124776033Y-108102016D01*
X124776033Y-108102016D02*
X124776033Y-108235350D01*
X124776033Y-108235350D02*
X124742700Y-108302016D01*
X124742700Y-108302016D02*
X124676033Y-108368683D01*
X124676033Y-108368683D02*
X124542700Y-108402016D01*
X124542700Y-108402016D02*
X124309366Y-108402016D01*
X124309366Y-108402016D02*
X124176033Y-108368683D01*
X124176033Y-108368683D02*
X124109366Y-108302016D01*
X124109366Y-108302016D02*
X124076033Y-108235350D01*
X124776033Y-107268683D02*
X124776033Y-107668683D01*
X124776033Y-107468683D02*
X124076033Y-107468683D01*
X124076033Y-107468683D02*
X124176033Y-107535350D01*
X124176033Y-107535350D02*
X124242700Y-107602017D01*
X124242700Y-107602017D02*
X124276033Y-107668683D01*
X124076033Y-106635350D02*
X124076033Y-106968683D01*
X124076033Y-106968683D02*
X124409366Y-107002016D01*
X124409366Y-107002016D02*
X124376033Y-106968683D01*
X124376033Y-106968683D02*
X124342700Y-106902016D01*
X124342700Y-106902016D02*
X124342700Y-106735350D01*
X124342700Y-106735350D02*
X124376033Y-106668683D01*
X124376033Y-106668683D02*
X124409366Y-106635350D01*
X124409366Y-106635350D02*
X124476033Y-106602016D01*
X124476033Y-106602016D02*
X124642700Y-106602016D01*
X124642700Y-106602016D02*
X124709366Y-106635350D01*
X124709366Y-106635350D02*
X124742700Y-106668683D01*
X124742700Y-106668683D02*
X124776033Y-106735350D01*
X124776033Y-106735350D02*
X124776033Y-106902016D01*
X124776033Y-106902016D02*
X124742700Y-106968683D01*
X124742700Y-106968683D02*
X124709366Y-107002016D01*
X124042700Y-105802016D02*
X124942700Y-106402016D01*
X124776033Y-105568683D02*
X124076033Y-105568683D01*
X124076033Y-105568683D02*
X124576033Y-105335350D01*
X124576033Y-105335350D02*
X124076033Y-105102016D01*
X124076033Y-105102016D02*
X124776033Y-105102016D01*
X124076033Y-104868683D02*
X124076033Y-104468683D01*
X124776033Y-104668683D02*
X124076033Y-104668683D01*
X124776033Y-104235350D02*
X124076033Y-104235350D01*
X124076033Y-104235350D02*
X124076033Y-104068683D01*
X124076033Y-104068683D02*
X124109366Y-103968683D01*
X124109366Y-103968683D02*
X124176033Y-103902017D01*
X124176033Y-103902017D02*
X124242700Y-103868683D01*
X124242700Y-103868683D02*
X124376033Y-103835350D01*
X124376033Y-103835350D02*
X124476033Y-103835350D01*
X124476033Y-103835350D02*
X124609366Y-103868683D01*
X124609366Y-103868683D02*
X124676033Y-103902017D01*
X124676033Y-103902017D02*
X124742700Y-103968683D01*
X124742700Y-103968683D02*
X124776033Y-104068683D01*
X124776033Y-104068683D02*
X124776033Y-104235350D01*
X124076033Y-103402017D02*
X124076033Y-103268683D01*
X124076033Y-103268683D02*
X124109366Y-103202017D01*
X124109366Y-103202017D02*
X124176033Y-103135350D01*
X124176033Y-103135350D02*
X124309366Y-103102017D01*
X124309366Y-103102017D02*
X124542700Y-103102017D01*
X124542700Y-103102017D02*
X124676033Y-103135350D01*
X124676033Y-103135350D02*
X124742700Y-103202017D01*
X124742700Y-103202017D02*
X124776033Y-103268683D01*
X124776033Y-103268683D02*
X124776033Y-103402017D01*
X124776033Y-103402017D02*
X124742700Y-103468683D01*
X124742700Y-103468683D02*
X124676033Y-103535350D01*
X124676033Y-103535350D02*
X124542700Y-103568683D01*
X124542700Y-103568683D02*
X124309366Y-103568683D01*
X124309366Y-103568683D02*
X124176033Y-103535350D01*
X124176033Y-103535350D02*
X124109366Y-103468683D01*
X124109366Y-103468683D02*
X124076033Y-103402017D01*
X93596033Y-125564649D02*
X94296033Y-125331316D01*
X94296033Y-125331316D02*
X93596033Y-125097982D01*
X94296033Y-124864649D02*
X93596033Y-124864649D01*
X93596033Y-124864649D02*
X94296033Y-124464649D01*
X94296033Y-124464649D02*
X93596033Y-124464649D01*
X93562700Y-123631316D02*
X94462700Y-124231316D01*
X93629366Y-123031316D02*
X93596033Y-123097983D01*
X93596033Y-123097983D02*
X93596033Y-123197983D01*
X93596033Y-123197983D02*
X93629366Y-123297983D01*
X93629366Y-123297983D02*
X93696033Y-123364650D01*
X93696033Y-123364650D02*
X93762700Y-123397983D01*
X93762700Y-123397983D02*
X93896033Y-123431316D01*
X93896033Y-123431316D02*
X93996033Y-123431316D01*
X93996033Y-123431316D02*
X94129366Y-123397983D01*
X94129366Y-123397983D02*
X94196033Y-123364650D01*
X94196033Y-123364650D02*
X94262700Y-123297983D01*
X94262700Y-123297983D02*
X94296033Y-123197983D01*
X94296033Y-123197983D02*
X94296033Y-123131316D01*
X94296033Y-123131316D02*
X94262700Y-123031316D01*
X94262700Y-123031316D02*
X94229366Y-122997983D01*
X94229366Y-122997983D02*
X93996033Y-122997983D01*
X93996033Y-122997983D02*
X93996033Y-123131316D01*
X94296033Y-122697983D02*
X93596033Y-122697983D01*
X93596033Y-122697983D02*
X93596033Y-122431316D01*
X93596033Y-122431316D02*
X93629366Y-122364650D01*
X93629366Y-122364650D02*
X93662700Y-122331316D01*
X93662700Y-122331316D02*
X93729366Y-122297983D01*
X93729366Y-122297983D02*
X93829366Y-122297983D01*
X93829366Y-122297983D02*
X93896033Y-122331316D01*
X93896033Y-122331316D02*
X93929366Y-122364650D01*
X93929366Y-122364650D02*
X93962700Y-122431316D01*
X93962700Y-122431316D02*
X93962700Y-122697983D01*
X94296033Y-121997983D02*
X93596033Y-121997983D01*
X93596033Y-121531317D02*
X93596033Y-121397983D01*
X93596033Y-121397983D02*
X93629366Y-121331317D01*
X93629366Y-121331317D02*
X93696033Y-121264650D01*
X93696033Y-121264650D02*
X93829366Y-121231317D01*
X93829366Y-121231317D02*
X94062700Y-121231317D01*
X94062700Y-121231317D02*
X94196033Y-121264650D01*
X94196033Y-121264650D02*
X94262700Y-121331317D01*
X94262700Y-121331317D02*
X94296033Y-121397983D01*
X94296033Y-121397983D02*
X94296033Y-121531317D01*
X94296033Y-121531317D02*
X94262700Y-121597983D01*
X94262700Y-121597983D02*
X94196033Y-121664650D01*
X94196033Y-121664650D02*
X94062700Y-121697983D01*
X94062700Y-121697983D02*
X93829366Y-121697983D01*
X93829366Y-121697983D02*
X93696033Y-121664650D01*
X93696033Y-121664650D02*
X93629366Y-121597983D01*
X93629366Y-121597983D02*
X93596033Y-121531317D01*
X93596033Y-120997984D02*
X93596033Y-120564650D01*
X93596033Y-120564650D02*
X93862700Y-120797984D01*
X93862700Y-120797984D02*
X93862700Y-120697984D01*
X93862700Y-120697984D02*
X93896033Y-120631317D01*
X93896033Y-120631317D02*
X93929366Y-120597984D01*
X93929366Y-120597984D02*
X93996033Y-120564650D01*
X93996033Y-120564650D02*
X94162700Y-120564650D01*
X94162700Y-120564650D02*
X94229366Y-120597984D01*
X94229366Y-120597984D02*
X94262700Y-120631317D01*
X94262700Y-120631317D02*
X94296033Y-120697984D01*
X94296033Y-120697984D02*
X94296033Y-120897984D01*
X94296033Y-120897984D02*
X94262700Y-120964650D01*
X94262700Y-120964650D02*
X94229366Y-120997984D01*
X94296033Y-120231317D02*
X94296033Y-120097983D01*
X94296033Y-120097983D02*
X94262700Y-120031317D01*
X94262700Y-120031317D02*
X94229366Y-119997983D01*
X94229366Y-119997983D02*
X94129366Y-119931317D01*
X94129366Y-119931317D02*
X93996033Y-119897983D01*
X93996033Y-119897983D02*
X93729366Y-119897983D01*
X93729366Y-119897983D02*
X93662700Y-119931317D01*
X93662700Y-119931317D02*
X93629366Y-119964650D01*
X93629366Y-119964650D02*
X93596033Y-120031317D01*
X93596033Y-120031317D02*
X93596033Y-120164650D01*
X93596033Y-120164650D02*
X93629366Y-120231317D01*
X93629366Y-120231317D02*
X93662700Y-120264650D01*
X93662700Y-120264650D02*
X93729366Y-120297983D01*
X93729366Y-120297983D02*
X93896033Y-120297983D01*
X93896033Y-120297983D02*
X93962700Y-120264650D01*
X93962700Y-120264650D02*
X93996033Y-120231317D01*
X93996033Y-120231317D02*
X94029366Y-120164650D01*
X94029366Y-120164650D02*
X94029366Y-120031317D01*
X94029366Y-120031317D02*
X93996033Y-119964650D01*
X93996033Y-119964650D02*
X93962700Y-119931317D01*
X93962700Y-119931317D02*
X93896033Y-119897983D01*
X96169366Y-125097982D02*
X96136033Y-125164649D01*
X96136033Y-125164649D02*
X96136033Y-125264649D01*
X96136033Y-125264649D02*
X96169366Y-125364649D01*
X96169366Y-125364649D02*
X96236033Y-125431316D01*
X96236033Y-125431316D02*
X96302700Y-125464649D01*
X96302700Y-125464649D02*
X96436033Y-125497982D01*
X96436033Y-125497982D02*
X96536033Y-125497982D01*
X96536033Y-125497982D02*
X96669366Y-125464649D01*
X96669366Y-125464649D02*
X96736033Y-125431316D01*
X96736033Y-125431316D02*
X96802700Y-125364649D01*
X96802700Y-125364649D02*
X96836033Y-125264649D01*
X96836033Y-125264649D02*
X96836033Y-125197982D01*
X96836033Y-125197982D02*
X96802700Y-125097982D01*
X96802700Y-125097982D02*
X96769366Y-125064649D01*
X96769366Y-125064649D02*
X96536033Y-125064649D01*
X96536033Y-125064649D02*
X96536033Y-125197982D01*
X96836033Y-124764649D02*
X96136033Y-124764649D01*
X96136033Y-124764649D02*
X96136033Y-124497982D01*
X96136033Y-124497982D02*
X96169366Y-124431316D01*
X96169366Y-124431316D02*
X96202700Y-124397982D01*
X96202700Y-124397982D02*
X96269366Y-124364649D01*
X96269366Y-124364649D02*
X96369366Y-124364649D01*
X96369366Y-124364649D02*
X96436033Y-124397982D01*
X96436033Y-124397982D02*
X96469366Y-124431316D01*
X96469366Y-124431316D02*
X96502700Y-124497982D01*
X96502700Y-124497982D02*
X96502700Y-124764649D01*
X96836033Y-124064649D02*
X96136033Y-124064649D01*
X96136033Y-123597983D02*
X96136033Y-123464649D01*
X96136033Y-123464649D02*
X96169366Y-123397983D01*
X96169366Y-123397983D02*
X96236033Y-123331316D01*
X96236033Y-123331316D02*
X96369366Y-123297983D01*
X96369366Y-123297983D02*
X96602700Y-123297983D01*
X96602700Y-123297983D02*
X96736033Y-123331316D01*
X96736033Y-123331316D02*
X96802700Y-123397983D01*
X96802700Y-123397983D02*
X96836033Y-123464649D01*
X96836033Y-123464649D02*
X96836033Y-123597983D01*
X96836033Y-123597983D02*
X96802700Y-123664649D01*
X96802700Y-123664649D02*
X96736033Y-123731316D01*
X96736033Y-123731316D02*
X96602700Y-123764649D01*
X96602700Y-123764649D02*
X96369366Y-123764649D01*
X96369366Y-123764649D02*
X96236033Y-123731316D01*
X96236033Y-123731316D02*
X96169366Y-123664649D01*
X96169366Y-123664649D02*
X96136033Y-123597983D01*
X96136033Y-123064650D02*
X96136033Y-122631316D01*
X96136033Y-122631316D02*
X96402700Y-122864650D01*
X96402700Y-122864650D02*
X96402700Y-122764650D01*
X96402700Y-122764650D02*
X96436033Y-122697983D01*
X96436033Y-122697983D02*
X96469366Y-122664650D01*
X96469366Y-122664650D02*
X96536033Y-122631316D01*
X96536033Y-122631316D02*
X96702700Y-122631316D01*
X96702700Y-122631316D02*
X96769366Y-122664650D01*
X96769366Y-122664650D02*
X96802700Y-122697983D01*
X96802700Y-122697983D02*
X96836033Y-122764650D01*
X96836033Y-122764650D02*
X96836033Y-122964650D01*
X96836033Y-122964650D02*
X96802700Y-123031316D01*
X96802700Y-123031316D02*
X96769366Y-123064650D01*
X96369366Y-122031316D02*
X96836033Y-122031316D01*
X96102700Y-122197983D02*
X96602700Y-122364649D01*
X96602700Y-122364649D02*
X96602700Y-121931316D01*
X111409366Y-106235350D02*
X111376033Y-106302017D01*
X111376033Y-106302017D02*
X111376033Y-106402017D01*
X111376033Y-106402017D02*
X111409366Y-106502017D01*
X111409366Y-106502017D02*
X111476033Y-106568684D01*
X111476033Y-106568684D02*
X111542700Y-106602017D01*
X111542700Y-106602017D02*
X111676033Y-106635350D01*
X111676033Y-106635350D02*
X111776033Y-106635350D01*
X111776033Y-106635350D02*
X111909366Y-106602017D01*
X111909366Y-106602017D02*
X111976033Y-106568684D01*
X111976033Y-106568684D02*
X112042700Y-106502017D01*
X112042700Y-106502017D02*
X112076033Y-106402017D01*
X112076033Y-106402017D02*
X112076033Y-106335350D01*
X112076033Y-106335350D02*
X112042700Y-106235350D01*
X112042700Y-106235350D02*
X112009366Y-106202017D01*
X112009366Y-106202017D02*
X111776033Y-106202017D01*
X111776033Y-106202017D02*
X111776033Y-106335350D01*
X112076033Y-105902017D02*
X111376033Y-105902017D01*
X111376033Y-105902017D02*
X111376033Y-105635350D01*
X111376033Y-105635350D02*
X111409366Y-105568684D01*
X111409366Y-105568684D02*
X111442700Y-105535350D01*
X111442700Y-105535350D02*
X111509366Y-105502017D01*
X111509366Y-105502017D02*
X111609366Y-105502017D01*
X111609366Y-105502017D02*
X111676033Y-105535350D01*
X111676033Y-105535350D02*
X111709366Y-105568684D01*
X111709366Y-105568684D02*
X111742700Y-105635350D01*
X111742700Y-105635350D02*
X111742700Y-105902017D01*
X112076033Y-105202017D02*
X111376033Y-105202017D01*
X111376033Y-104735351D02*
X111376033Y-104602017D01*
X111376033Y-104602017D02*
X111409366Y-104535351D01*
X111409366Y-104535351D02*
X111476033Y-104468684D01*
X111476033Y-104468684D02*
X111609366Y-104435351D01*
X111609366Y-104435351D02*
X111842700Y-104435351D01*
X111842700Y-104435351D02*
X111976033Y-104468684D01*
X111976033Y-104468684D02*
X112042700Y-104535351D01*
X112042700Y-104535351D02*
X112076033Y-104602017D01*
X112076033Y-104602017D02*
X112076033Y-104735351D01*
X112076033Y-104735351D02*
X112042700Y-104802017D01*
X112042700Y-104802017D02*
X111976033Y-104868684D01*
X111976033Y-104868684D02*
X111842700Y-104902017D01*
X111842700Y-104902017D02*
X111609366Y-104902017D01*
X111609366Y-104902017D02*
X111476033Y-104868684D01*
X111476033Y-104868684D02*
X111409366Y-104802017D01*
X111409366Y-104802017D02*
X111376033Y-104735351D01*
X112076033Y-103768684D02*
X112076033Y-104168684D01*
X112076033Y-103968684D02*
X111376033Y-103968684D01*
X111376033Y-103968684D02*
X111476033Y-104035351D01*
X111476033Y-104035351D02*
X111542700Y-104102018D01*
X111542700Y-104102018D02*
X111576033Y-104168684D01*
X111376033Y-103535351D02*
X111376033Y-103068684D01*
X111376033Y-103068684D02*
X112076033Y-103368684D01*
X108869366Y-125097982D02*
X108836033Y-125164649D01*
X108836033Y-125164649D02*
X108836033Y-125264649D01*
X108836033Y-125264649D02*
X108869366Y-125364649D01*
X108869366Y-125364649D02*
X108936033Y-125431316D01*
X108936033Y-125431316D02*
X109002700Y-125464649D01*
X109002700Y-125464649D02*
X109136033Y-125497982D01*
X109136033Y-125497982D02*
X109236033Y-125497982D01*
X109236033Y-125497982D02*
X109369366Y-125464649D01*
X109369366Y-125464649D02*
X109436033Y-125431316D01*
X109436033Y-125431316D02*
X109502700Y-125364649D01*
X109502700Y-125364649D02*
X109536033Y-125264649D01*
X109536033Y-125264649D02*
X109536033Y-125197982D01*
X109536033Y-125197982D02*
X109502700Y-125097982D01*
X109502700Y-125097982D02*
X109469366Y-125064649D01*
X109469366Y-125064649D02*
X109236033Y-125064649D01*
X109236033Y-125064649D02*
X109236033Y-125197982D01*
X109536033Y-124764649D02*
X108836033Y-124764649D01*
X108836033Y-124764649D02*
X108836033Y-124497982D01*
X108836033Y-124497982D02*
X108869366Y-124431316D01*
X108869366Y-124431316D02*
X108902700Y-124397982D01*
X108902700Y-124397982D02*
X108969366Y-124364649D01*
X108969366Y-124364649D02*
X109069366Y-124364649D01*
X109069366Y-124364649D02*
X109136033Y-124397982D01*
X109136033Y-124397982D02*
X109169366Y-124431316D01*
X109169366Y-124431316D02*
X109202700Y-124497982D01*
X109202700Y-124497982D02*
X109202700Y-124764649D01*
X109536033Y-124064649D02*
X108836033Y-124064649D01*
X108836033Y-123597983D02*
X108836033Y-123464649D01*
X108836033Y-123464649D02*
X108869366Y-123397983D01*
X108869366Y-123397983D02*
X108936033Y-123331316D01*
X108936033Y-123331316D02*
X109069366Y-123297983D01*
X109069366Y-123297983D02*
X109302700Y-123297983D01*
X109302700Y-123297983D02*
X109436033Y-123331316D01*
X109436033Y-123331316D02*
X109502700Y-123397983D01*
X109502700Y-123397983D02*
X109536033Y-123464649D01*
X109536033Y-123464649D02*
X109536033Y-123597983D01*
X109536033Y-123597983D02*
X109502700Y-123664649D01*
X109502700Y-123664649D02*
X109436033Y-123731316D01*
X109436033Y-123731316D02*
X109302700Y-123764649D01*
X109302700Y-123764649D02*
X109069366Y-123764649D01*
X109069366Y-123764649D02*
X108936033Y-123731316D01*
X108936033Y-123731316D02*
X108869366Y-123664649D01*
X108869366Y-123664649D02*
X108836033Y-123597983D01*
X108902700Y-123031316D02*
X108869366Y-122997983D01*
X108869366Y-122997983D02*
X108836033Y-122931316D01*
X108836033Y-122931316D02*
X108836033Y-122764650D01*
X108836033Y-122764650D02*
X108869366Y-122697983D01*
X108869366Y-122697983D02*
X108902700Y-122664650D01*
X108902700Y-122664650D02*
X108969366Y-122631316D01*
X108969366Y-122631316D02*
X109036033Y-122631316D01*
X109036033Y-122631316D02*
X109136033Y-122664650D01*
X109136033Y-122664650D02*
X109536033Y-123064650D01*
X109536033Y-123064650D02*
X109536033Y-122631316D01*
X108836033Y-122031316D02*
X108836033Y-122164649D01*
X108836033Y-122164649D02*
X108869366Y-122231316D01*
X108869366Y-122231316D02*
X108902700Y-122264649D01*
X108902700Y-122264649D02*
X109002700Y-122331316D01*
X109002700Y-122331316D02*
X109136033Y-122364649D01*
X109136033Y-122364649D02*
X109402700Y-122364649D01*
X109402700Y-122364649D02*
X109469366Y-122331316D01*
X109469366Y-122331316D02*
X109502700Y-122297983D01*
X109502700Y-122297983D02*
X109536033Y-122231316D01*
X109536033Y-122231316D02*
X109536033Y-122097983D01*
X109536033Y-122097983D02*
X109502700Y-122031316D01*
X109502700Y-122031316D02*
X109469366Y-121997983D01*
X109469366Y-121997983D02*
X109402700Y-121964649D01*
X109402700Y-121964649D02*
X109236033Y-121964649D01*
X109236033Y-121964649D02*
X109169366Y-121997983D01*
X109169366Y-121997983D02*
X109136033Y-122031316D01*
X109136033Y-122031316D02*
X109102700Y-122097983D01*
X109102700Y-122097983D02*
X109102700Y-122231316D01*
X109102700Y-122231316D02*
X109136033Y-122297983D01*
X109136033Y-122297983D02*
X109169366Y-122331316D01*
X109169366Y-122331316D02*
X109236033Y-122364649D01*
X131786099Y-119840710D02*
X131786099Y-120316900D01*
X131786099Y-120316900D02*
X132262289Y-120364519D01*
X132262289Y-120364519D02*
X132214670Y-120316900D01*
X132214670Y-120316900D02*
X132167051Y-120221662D01*
X132167051Y-120221662D02*
X132167051Y-119983567D01*
X132167051Y-119983567D02*
X132214670Y-119888329D01*
X132214670Y-119888329D02*
X132262289Y-119840710D01*
X132262289Y-119840710D02*
X132357527Y-119793091D01*
X132357527Y-119793091D02*
X132595622Y-119793091D01*
X132595622Y-119793091D02*
X132690860Y-119840710D01*
X132690860Y-119840710D02*
X132738480Y-119888329D01*
X132738480Y-119888329D02*
X132786099Y-119983567D01*
X132786099Y-119983567D02*
X132786099Y-120221662D01*
X132786099Y-120221662D02*
X132738480Y-120316900D01*
X132738480Y-120316900D02*
X132690860Y-120364519D01*
X131786099Y-119507376D02*
X132786099Y-119174043D01*
X132786099Y-119174043D02*
X131786099Y-118840710D01*
X119029366Y-105568683D02*
X118996033Y-105635350D01*
X118996033Y-105635350D02*
X118996033Y-105735350D01*
X118996033Y-105735350D02*
X119029366Y-105835350D01*
X119029366Y-105835350D02*
X119096033Y-105902017D01*
X119096033Y-105902017D02*
X119162700Y-105935350D01*
X119162700Y-105935350D02*
X119296033Y-105968683D01*
X119296033Y-105968683D02*
X119396033Y-105968683D01*
X119396033Y-105968683D02*
X119529366Y-105935350D01*
X119529366Y-105935350D02*
X119596033Y-105902017D01*
X119596033Y-105902017D02*
X119662700Y-105835350D01*
X119662700Y-105835350D02*
X119696033Y-105735350D01*
X119696033Y-105735350D02*
X119696033Y-105668683D01*
X119696033Y-105668683D02*
X119662700Y-105568683D01*
X119662700Y-105568683D02*
X119629366Y-105535350D01*
X119629366Y-105535350D02*
X119396033Y-105535350D01*
X119396033Y-105535350D02*
X119396033Y-105668683D01*
X119696033Y-105235350D02*
X118996033Y-105235350D01*
X118996033Y-105235350D02*
X118996033Y-104968683D01*
X118996033Y-104968683D02*
X119029366Y-104902017D01*
X119029366Y-104902017D02*
X119062700Y-104868683D01*
X119062700Y-104868683D02*
X119129366Y-104835350D01*
X119129366Y-104835350D02*
X119229366Y-104835350D01*
X119229366Y-104835350D02*
X119296033Y-104868683D01*
X119296033Y-104868683D02*
X119329366Y-104902017D01*
X119329366Y-104902017D02*
X119362700Y-104968683D01*
X119362700Y-104968683D02*
X119362700Y-105235350D01*
X119696033Y-104535350D02*
X118996033Y-104535350D01*
X118996033Y-104068684D02*
X118996033Y-103935350D01*
X118996033Y-103935350D02*
X119029366Y-103868684D01*
X119029366Y-103868684D02*
X119096033Y-103802017D01*
X119096033Y-103802017D02*
X119229366Y-103768684D01*
X119229366Y-103768684D02*
X119462700Y-103768684D01*
X119462700Y-103768684D02*
X119596033Y-103802017D01*
X119596033Y-103802017D02*
X119662700Y-103868684D01*
X119662700Y-103868684D02*
X119696033Y-103935350D01*
X119696033Y-103935350D02*
X119696033Y-104068684D01*
X119696033Y-104068684D02*
X119662700Y-104135350D01*
X119662700Y-104135350D02*
X119596033Y-104202017D01*
X119596033Y-104202017D02*
X119462700Y-104235350D01*
X119462700Y-104235350D02*
X119229366Y-104235350D01*
X119229366Y-104235350D02*
X119096033Y-104202017D01*
X119096033Y-104202017D02*
X119029366Y-104135350D01*
X119029366Y-104135350D02*
X118996033Y-104068684D01*
X118996033Y-103335351D02*
X118996033Y-103268684D01*
X118996033Y-103268684D02*
X119029366Y-103202017D01*
X119029366Y-103202017D02*
X119062700Y-103168684D01*
X119062700Y-103168684D02*
X119129366Y-103135351D01*
X119129366Y-103135351D02*
X119262700Y-103102017D01*
X119262700Y-103102017D02*
X119429366Y-103102017D01*
X119429366Y-103102017D02*
X119562700Y-103135351D01*
X119562700Y-103135351D02*
X119629366Y-103168684D01*
X119629366Y-103168684D02*
X119662700Y-103202017D01*
X119662700Y-103202017D02*
X119696033Y-103268684D01*
X119696033Y-103268684D02*
X119696033Y-103335351D01*
X119696033Y-103335351D02*
X119662700Y-103402017D01*
X119662700Y-103402017D02*
X119629366Y-103435351D01*
X119629366Y-103435351D02*
X119562700Y-103468684D01*
X119562700Y-103468684D02*
X119429366Y-103502017D01*
X119429366Y-103502017D02*
X119262700Y-103502017D01*
X119262700Y-103502017D02*
X119129366Y-103468684D01*
X119129366Y-103468684D02*
X119062700Y-103435351D01*
X119062700Y-103435351D02*
X119029366Y-103402017D01*
X119029366Y-103402017D02*
X118996033Y-103335351D01*
X103789366Y-106235350D02*
X103756033Y-106302017D01*
X103756033Y-106302017D02*
X103756033Y-106402017D01*
X103756033Y-106402017D02*
X103789366Y-106502017D01*
X103789366Y-106502017D02*
X103856033Y-106568684D01*
X103856033Y-106568684D02*
X103922700Y-106602017D01*
X103922700Y-106602017D02*
X104056033Y-106635350D01*
X104056033Y-106635350D02*
X104156033Y-106635350D01*
X104156033Y-106635350D02*
X104289366Y-106602017D01*
X104289366Y-106602017D02*
X104356033Y-106568684D01*
X104356033Y-106568684D02*
X104422700Y-106502017D01*
X104422700Y-106502017D02*
X104456033Y-106402017D01*
X104456033Y-106402017D02*
X104456033Y-106335350D01*
X104456033Y-106335350D02*
X104422700Y-106235350D01*
X104422700Y-106235350D02*
X104389366Y-106202017D01*
X104389366Y-106202017D02*
X104156033Y-106202017D01*
X104156033Y-106202017D02*
X104156033Y-106335350D01*
X104456033Y-105902017D02*
X103756033Y-105902017D01*
X103756033Y-105902017D02*
X103756033Y-105635350D01*
X103756033Y-105635350D02*
X103789366Y-105568684D01*
X103789366Y-105568684D02*
X103822700Y-105535350D01*
X103822700Y-105535350D02*
X103889366Y-105502017D01*
X103889366Y-105502017D02*
X103989366Y-105502017D01*
X103989366Y-105502017D02*
X104056033Y-105535350D01*
X104056033Y-105535350D02*
X104089366Y-105568684D01*
X104089366Y-105568684D02*
X104122700Y-105635350D01*
X104122700Y-105635350D02*
X104122700Y-105902017D01*
X104456033Y-105202017D02*
X103756033Y-105202017D01*
X103756033Y-104735351D02*
X103756033Y-104602017D01*
X103756033Y-104602017D02*
X103789366Y-104535351D01*
X103789366Y-104535351D02*
X103856033Y-104468684D01*
X103856033Y-104468684D02*
X103989366Y-104435351D01*
X103989366Y-104435351D02*
X104222700Y-104435351D01*
X104222700Y-104435351D02*
X104356033Y-104468684D01*
X104356033Y-104468684D02*
X104422700Y-104535351D01*
X104422700Y-104535351D02*
X104456033Y-104602017D01*
X104456033Y-104602017D02*
X104456033Y-104735351D01*
X104456033Y-104735351D02*
X104422700Y-104802017D01*
X104422700Y-104802017D02*
X104356033Y-104868684D01*
X104356033Y-104868684D02*
X104222700Y-104902017D01*
X104222700Y-104902017D02*
X103989366Y-104902017D01*
X103989366Y-104902017D02*
X103856033Y-104868684D01*
X103856033Y-104868684D02*
X103789366Y-104802017D01*
X103789366Y-104802017D02*
X103756033Y-104735351D01*
X104456033Y-103768684D02*
X104456033Y-104168684D01*
X104456033Y-103968684D02*
X103756033Y-103968684D01*
X103756033Y-103968684D02*
X103856033Y-104035351D01*
X103856033Y-104035351D02*
X103922700Y-104102018D01*
X103922700Y-104102018D02*
X103956033Y-104168684D01*
X104456033Y-103435351D02*
X104456033Y-103302017D01*
X104456033Y-103302017D02*
X104422700Y-103235351D01*
X104422700Y-103235351D02*
X104389366Y-103202017D01*
X104389366Y-103202017D02*
X104289366Y-103135351D01*
X104289366Y-103135351D02*
X104156033Y-103102017D01*
X104156033Y-103102017D02*
X103889366Y-103102017D01*
X103889366Y-103102017D02*
X103822700Y-103135351D01*
X103822700Y-103135351D02*
X103789366Y-103168684D01*
X103789366Y-103168684D02*
X103756033Y-103235351D01*
X103756033Y-103235351D02*
X103756033Y-103368684D01*
X103756033Y-103368684D02*
X103789366Y-103435351D01*
X103789366Y-103435351D02*
X103822700Y-103468684D01*
X103822700Y-103468684D02*
X103889366Y-103502017D01*
X103889366Y-103502017D02*
X104056033Y-103502017D01*
X104056033Y-103502017D02*
X104122700Y-103468684D01*
X104122700Y-103468684D02*
X104156033Y-103435351D01*
X104156033Y-103435351D02*
X104189366Y-103368684D01*
X104189366Y-103368684D02*
X104189366Y-103235351D01*
X104189366Y-103235351D02*
X104156033Y-103168684D01*
X104156033Y-103168684D02*
X104122700Y-103135351D01*
X104122700Y-103135351D02*
X104056033Y-103102017D01*
X88549366Y-106235350D02*
X88516033Y-106302017D01*
X88516033Y-106302017D02*
X88516033Y-106402017D01*
X88516033Y-106402017D02*
X88549366Y-106502017D01*
X88549366Y-106502017D02*
X88616033Y-106568684D01*
X88616033Y-106568684D02*
X88682700Y-106602017D01*
X88682700Y-106602017D02*
X88816033Y-106635350D01*
X88816033Y-106635350D02*
X88916033Y-106635350D01*
X88916033Y-106635350D02*
X89049366Y-106602017D01*
X89049366Y-106602017D02*
X89116033Y-106568684D01*
X89116033Y-106568684D02*
X89182700Y-106502017D01*
X89182700Y-106502017D02*
X89216033Y-106402017D01*
X89216033Y-106402017D02*
X89216033Y-106335350D01*
X89216033Y-106335350D02*
X89182700Y-106235350D01*
X89182700Y-106235350D02*
X89149366Y-106202017D01*
X89149366Y-106202017D02*
X88916033Y-106202017D01*
X88916033Y-106202017D02*
X88916033Y-106335350D01*
X89216033Y-105902017D02*
X88516033Y-105902017D01*
X88516033Y-105902017D02*
X88516033Y-105635350D01*
X88516033Y-105635350D02*
X88549366Y-105568684D01*
X88549366Y-105568684D02*
X88582700Y-105535350D01*
X88582700Y-105535350D02*
X88649366Y-105502017D01*
X88649366Y-105502017D02*
X88749366Y-105502017D01*
X88749366Y-105502017D02*
X88816033Y-105535350D01*
X88816033Y-105535350D02*
X88849366Y-105568684D01*
X88849366Y-105568684D02*
X88882700Y-105635350D01*
X88882700Y-105635350D02*
X88882700Y-105902017D01*
X89216033Y-105202017D02*
X88516033Y-105202017D01*
X88516033Y-104735351D02*
X88516033Y-104602017D01*
X88516033Y-104602017D02*
X88549366Y-104535351D01*
X88549366Y-104535351D02*
X88616033Y-104468684D01*
X88616033Y-104468684D02*
X88749366Y-104435351D01*
X88749366Y-104435351D02*
X88982700Y-104435351D01*
X88982700Y-104435351D02*
X89116033Y-104468684D01*
X89116033Y-104468684D02*
X89182700Y-104535351D01*
X89182700Y-104535351D02*
X89216033Y-104602017D01*
X89216033Y-104602017D02*
X89216033Y-104735351D01*
X89216033Y-104735351D02*
X89182700Y-104802017D01*
X89182700Y-104802017D02*
X89116033Y-104868684D01*
X89116033Y-104868684D02*
X88982700Y-104902017D01*
X88982700Y-104902017D02*
X88749366Y-104902017D01*
X88749366Y-104902017D02*
X88616033Y-104868684D01*
X88616033Y-104868684D02*
X88549366Y-104802017D01*
X88549366Y-104802017D02*
X88516033Y-104735351D01*
X88582700Y-104168684D02*
X88549366Y-104135351D01*
X88549366Y-104135351D02*
X88516033Y-104068684D01*
X88516033Y-104068684D02*
X88516033Y-103902018D01*
X88516033Y-103902018D02*
X88549366Y-103835351D01*
X88549366Y-103835351D02*
X88582700Y-103802018D01*
X88582700Y-103802018D02*
X88649366Y-103768684D01*
X88649366Y-103768684D02*
X88716033Y-103768684D01*
X88716033Y-103768684D02*
X88816033Y-103802018D01*
X88816033Y-103802018D02*
X89216033Y-104202018D01*
X89216033Y-104202018D02*
X89216033Y-103768684D01*
X88516033Y-103535351D02*
X88516033Y-103102017D01*
X88516033Y-103102017D02*
X88782700Y-103335351D01*
X88782700Y-103335351D02*
X88782700Y-103235351D01*
X88782700Y-103235351D02*
X88816033Y-103168684D01*
X88816033Y-103168684D02*
X88849366Y-103135351D01*
X88849366Y-103135351D02*
X88916033Y-103102017D01*
X88916033Y-103102017D02*
X89082700Y-103102017D01*
X89082700Y-103102017D02*
X89149366Y-103135351D01*
X89149366Y-103135351D02*
X89182700Y-103168684D01*
X89182700Y-103168684D02*
X89216033Y-103235351D01*
X89216033Y-103235351D02*
X89216033Y-103435351D01*
X89216033Y-103435351D02*
X89182700Y-103502017D01*
X89182700Y-103502017D02*
X89149366Y-103535351D01*
X111409366Y-125097982D02*
X111376033Y-125164649D01*
X111376033Y-125164649D02*
X111376033Y-125264649D01*
X111376033Y-125264649D02*
X111409366Y-125364649D01*
X111409366Y-125364649D02*
X111476033Y-125431316D01*
X111476033Y-125431316D02*
X111542700Y-125464649D01*
X111542700Y-125464649D02*
X111676033Y-125497982D01*
X111676033Y-125497982D02*
X111776033Y-125497982D01*
X111776033Y-125497982D02*
X111909366Y-125464649D01*
X111909366Y-125464649D02*
X111976033Y-125431316D01*
X111976033Y-125431316D02*
X112042700Y-125364649D01*
X112042700Y-125364649D02*
X112076033Y-125264649D01*
X112076033Y-125264649D02*
X112076033Y-125197982D01*
X112076033Y-125197982D02*
X112042700Y-125097982D01*
X112042700Y-125097982D02*
X112009366Y-125064649D01*
X112009366Y-125064649D02*
X111776033Y-125064649D01*
X111776033Y-125064649D02*
X111776033Y-125197982D01*
X112076033Y-124764649D02*
X111376033Y-124764649D01*
X111376033Y-124764649D02*
X111376033Y-124497982D01*
X111376033Y-124497982D02*
X111409366Y-124431316D01*
X111409366Y-124431316D02*
X111442700Y-124397982D01*
X111442700Y-124397982D02*
X111509366Y-124364649D01*
X111509366Y-124364649D02*
X111609366Y-124364649D01*
X111609366Y-124364649D02*
X111676033Y-124397982D01*
X111676033Y-124397982D02*
X111709366Y-124431316D01*
X111709366Y-124431316D02*
X111742700Y-124497982D01*
X111742700Y-124497982D02*
X111742700Y-124764649D01*
X112076033Y-124064649D02*
X111376033Y-124064649D01*
X111376033Y-123597983D02*
X111376033Y-123464649D01*
X111376033Y-123464649D02*
X111409366Y-123397983D01*
X111409366Y-123397983D02*
X111476033Y-123331316D01*
X111476033Y-123331316D02*
X111609366Y-123297983D01*
X111609366Y-123297983D02*
X111842700Y-123297983D01*
X111842700Y-123297983D02*
X111976033Y-123331316D01*
X111976033Y-123331316D02*
X112042700Y-123397983D01*
X112042700Y-123397983D02*
X112076033Y-123464649D01*
X112076033Y-123464649D02*
X112076033Y-123597983D01*
X112076033Y-123597983D02*
X112042700Y-123664649D01*
X112042700Y-123664649D02*
X111976033Y-123731316D01*
X111976033Y-123731316D02*
X111842700Y-123764649D01*
X111842700Y-123764649D02*
X111609366Y-123764649D01*
X111609366Y-123764649D02*
X111476033Y-123731316D01*
X111476033Y-123731316D02*
X111409366Y-123664649D01*
X111409366Y-123664649D02*
X111376033Y-123597983D01*
X111442700Y-123031316D02*
X111409366Y-122997983D01*
X111409366Y-122997983D02*
X111376033Y-122931316D01*
X111376033Y-122931316D02*
X111376033Y-122764650D01*
X111376033Y-122764650D02*
X111409366Y-122697983D01*
X111409366Y-122697983D02*
X111442700Y-122664650D01*
X111442700Y-122664650D02*
X111509366Y-122631316D01*
X111509366Y-122631316D02*
X111576033Y-122631316D01*
X111576033Y-122631316D02*
X111676033Y-122664650D01*
X111676033Y-122664650D02*
X112076033Y-123064650D01*
X112076033Y-123064650D02*
X112076033Y-122631316D01*
X111376033Y-122397983D02*
X111376033Y-121931316D01*
X111376033Y-121931316D02*
X112076033Y-122231316D01*
X107188095Y-83714819D02*
X107188095Y-84524342D01*
X107188095Y-84524342D02*
X107235714Y-84619580D01*
X107235714Y-84619580D02*
X107283333Y-84667200D01*
X107283333Y-84667200D02*
X107378571Y-84714819D01*
X107378571Y-84714819D02*
X107569047Y-84714819D01*
X107569047Y-84714819D02*
X107664285Y-84667200D01*
X107664285Y-84667200D02*
X107711904Y-84619580D01*
X107711904Y-84619580D02*
X107759523Y-84524342D01*
X107759523Y-84524342D02*
X107759523Y-83714819D01*
X108188095Y-83810057D02*
X108235714Y-83762438D01*
X108235714Y-83762438D02*
X108330952Y-83714819D01*
X108330952Y-83714819D02*
X108569047Y-83714819D01*
X108569047Y-83714819D02*
X108664285Y-83762438D01*
X108664285Y-83762438D02*
X108711904Y-83810057D01*
X108711904Y-83810057D02*
X108759523Y-83905295D01*
X108759523Y-83905295D02*
X108759523Y-84000533D01*
X108759523Y-84000533D02*
X108711904Y-84143390D01*
X108711904Y-84143390D02*
X108140476Y-84714819D01*
X108140476Y-84714819D02*
X108759523Y-84714819D01*
X133858095Y-68194819D02*
X133858095Y-69004342D01*
X133858095Y-69004342D02*
X133905714Y-69099580D01*
X133905714Y-69099580D02*
X133953333Y-69147200D01*
X133953333Y-69147200D02*
X134048571Y-69194819D01*
X134048571Y-69194819D02*
X134239047Y-69194819D01*
X134239047Y-69194819D02*
X134334285Y-69147200D01*
X134334285Y-69147200D02*
X134381904Y-69099580D01*
X134381904Y-69099580D02*
X134429523Y-69004342D01*
X134429523Y-69004342D02*
X134429523Y-68194819D01*
X134810476Y-68194819D02*
X135429523Y-68194819D01*
X135429523Y-68194819D02*
X135096190Y-68575771D01*
X135096190Y-68575771D02*
X135239047Y-68575771D01*
X135239047Y-68575771D02*
X135334285Y-68623390D01*
X135334285Y-68623390D02*
X135381904Y-68671009D01*
X135381904Y-68671009D02*
X135429523Y-68766247D01*
X135429523Y-68766247D02*
X135429523Y-69004342D01*
X135429523Y-69004342D02*
X135381904Y-69099580D01*
X135381904Y-69099580D02*
X135334285Y-69147200D01*
X135334285Y-69147200D02*
X135239047Y-69194819D01*
X135239047Y-69194819D02*
X134953333Y-69194819D01*
X134953333Y-69194819D02*
X134858095Y-69147200D01*
X134858095Y-69147200D02*
X134810476Y-69099580D01*
X147256666Y-61474819D02*
X146923333Y-60998628D01*
X146685238Y-61474819D02*
X146685238Y-60474819D01*
X146685238Y-60474819D02*
X147066190Y-60474819D01*
X147066190Y-60474819D02*
X147161428Y-60522438D01*
X147161428Y-60522438D02*
X147209047Y-60570057D01*
X147209047Y-60570057D02*
X147256666Y-60665295D01*
X147256666Y-60665295D02*
X147256666Y-60808152D01*
X147256666Y-60808152D02*
X147209047Y-60903390D01*
X147209047Y-60903390D02*
X147161428Y-60951009D01*
X147161428Y-60951009D02*
X147066190Y-60998628D01*
X147066190Y-60998628D02*
X146685238Y-60998628D01*
X147685238Y-60951009D02*
X148018571Y-60951009D01*
X148161428Y-61474819D02*
X147685238Y-61474819D01*
X147685238Y-61474819D02*
X147685238Y-60474819D01*
X147685238Y-60474819D02*
X148161428Y-60474819D01*
X148923333Y-60951009D02*
X148590000Y-60951009D01*
X148590000Y-61474819D02*
X148590000Y-60474819D01*
X148590000Y-60474819D02*
X149066190Y-60474819D01*
X149590000Y-60474819D02*
X149590000Y-60712914D01*
X149351905Y-60617676D02*
X149590000Y-60712914D01*
X149590000Y-60712914D02*
X149828095Y-60617676D01*
X149447143Y-60903390D02*
X149590000Y-60712914D01*
X149590000Y-60712914D02*
X149732857Y-60903390D01*
X150351905Y-60474819D02*
X150351905Y-60712914D01*
X150113810Y-60617676D02*
X150351905Y-60712914D01*
X150351905Y-60712914D02*
X150590000Y-60617676D01*
X150209048Y-60903390D02*
X150351905Y-60712914D01*
X150351905Y-60712914D02*
X150494762Y-60903390D01*
X144446666Y-96134819D02*
X144446666Y-96849104D01*
X144446666Y-96849104D02*
X144399047Y-96991961D01*
X144399047Y-96991961D02*
X144303809Y-97087200D01*
X144303809Y-97087200D02*
X144160952Y-97134819D01*
X144160952Y-97134819D02*
X144065714Y-97134819D01*
X145446666Y-97134819D02*
X144875238Y-97134819D01*
X145160952Y-97134819D02*
X145160952Y-96134819D01*
X145160952Y-96134819D02*
X145065714Y-96277676D01*
X145065714Y-96277676D02*
X144970476Y-96372914D01*
X144970476Y-96372914D02*
X144875238Y-96420533D01*
D11*
%TO.C,J3*%
X100220000Y-64660000D02*
X101600000Y-64660000D01*
X100220000Y-66040000D02*
X100220000Y-64660000D01*
X100220000Y-67310000D02*
X100220000Y-80120000D01*
X100220000Y-67310000D02*
X102980000Y-67310000D01*
X100220000Y-80120000D02*
X102980000Y-80120000D01*
X102980000Y-67310000D02*
X102980000Y-80120000D01*
%TO.C,J2*%
X84980000Y-85200000D02*
X84980000Y-74820000D01*
X87630000Y-82550000D02*
X87630000Y-85200000D01*
X87630000Y-85200000D02*
X84980000Y-85200000D01*
X90280000Y-74820000D02*
X84980000Y-74820000D01*
X90280000Y-82550000D02*
X87630000Y-82550000D01*
X90280000Y-82550000D02*
X90280000Y-74820000D01*
X90280000Y-83820000D02*
X90280000Y-85200000D01*
X90280000Y-85200000D02*
X88900000Y-85200000D01*
%TO.C,U1*%
X79346880Y-105286680D02*
X85239680Y-105286680D01*
X79346880Y-123269880D02*
X79346880Y-105286680D01*
X85239680Y-123269880D02*
X79346880Y-123269880D01*
X85260000Y-100100000D02*
X85260000Y-128499999D01*
X85260000Y-128499999D02*
X133180000Y-128500000D01*
X133180000Y-100100001D02*
X85260000Y-100100000D01*
X133180000Y-128500000D02*
X133180000Y-100100001D01*
%TO.C,U2*%
X100100000Y-85260000D02*
X100100000Y-95079999D01*
X100100000Y-95079999D02*
X115800000Y-95080000D01*
X105333334Y-85260000D02*
X100100000Y-85260000D01*
X105333334Y-85620000D02*
X105333334Y-85260000D01*
X110566666Y-85260000D02*
X110566666Y-85620000D01*
X110566666Y-85620000D02*
X105333334Y-85620000D01*
X115800000Y-85260001D02*
X110566666Y-85260000D01*
X115800000Y-95080000D02*
X115800000Y-85260001D01*
%TO.C,U3*%
X133240000Y-69740000D02*
X134620000Y-69740000D01*
X133240000Y-71120000D02*
X133240000Y-69740000D01*
X133240000Y-72390000D02*
X133240000Y-95360000D01*
X133240000Y-72390000D02*
X136000000Y-72390000D01*
X133240000Y-95360000D02*
X136000000Y-95360000D01*
X136000000Y-72390000D02*
X136000000Y-95360000D01*
%TO.C,J1*%
X143400000Y-97680000D02*
X144780000Y-97680000D01*
X143400000Y-99060000D02*
X143400000Y-97680000D01*
X143400000Y-100330000D02*
X143400000Y-128380000D01*
X143400000Y-100330000D02*
X146160000Y-100330000D01*
X143400000Y-128380000D02*
X146160000Y-128380000D01*
X146160000Y-100330000D02*
X146160000Y-128380000D01*
%TD*%
M02*
