%TF.GenerationSoftware,KiCad,Pcbnew,9.0.2*%
%TF.CreationDate,2026-01-19T20:33:58+01:00*%
%TF.ProjectId,Filament-Silicagel-Dryer,46696c61-6d65-46e7-942d-53696c696361,rev?*%
%TF.SameCoordinates,Original*%
%TF.FileFunction,Copper,L1,Top*%
%TF.FilePolarity,Positive*%
%FSLAX46Y46*%
G04 Gerber Fmt 4.6, Leading zero omitted, Abs format (unit mm)*
G04 Created by KiCad (PCBNEW 9.0.2) date 2026-01-19 20:33:58*
%MOMM*%
%LPD*%
G01*
G04 APERTURE LIST*
%TA.AperFunction,ComponentPad*%
%ADD10R,1.700000X1.700000*%
%TD*%
%TA.AperFunction,ComponentPad*%
%ADD11C,1.700000*%
%TD*%
%TA.AperFunction,ComponentPad*%
%ADD12C,5.600000*%
%TD*%
%TA.AperFunction,ComponentPad*%
%ADD13R,1.200000X2.000000*%
%TD*%
%TA.AperFunction,ComponentPad*%
%ADD14O,1.200000X2.000000*%
%TD*%
%TA.AperFunction,ComponentPad*%
%ADD15O,2.000000X1.200000*%
%TD*%
%TA.AperFunction,ViaPad*%
%ADD16C,0.800000*%
%TD*%
%TA.AperFunction,Conductor*%
%ADD17C,0.250000*%
%TD*%
G04 APERTURE END LIST*
D10*
%TO.P,J3,1,GND*%
%TO.N,GND*%
X101600000Y-66040000D03*
D11*
%TO.P,J3,2,+5V*%
%TO.N,VDD*%
X101600000Y-68580000D03*
%TO.P,J3,3,CS*%
%TO.N,CS*%
X101600000Y-71120000D03*
%TO.P,J3,4,SCK*%
%TO.N,SCK*%
X101600000Y-73660000D03*
%TO.P,J3,5,SO*%
%TO.N,SO*%
X101600000Y-76200000D03*
%TO.P,J3,6,NC*%
%TO.N,unconnected-(J3-NC-Pad6)*%
X101600000Y-78740000D03*
%TD*%
D10*
%TO.P,J2,1,Pin_1*%
%TO.N,GND*%
X88900000Y-83820000D03*
D11*
%TO.P,J2,2,Pin_2*%
X86360000Y-83820000D03*
%TO.P,J2,3,Pin_3*%
%TO.N,RX2*%
X88900000Y-81280000D03*
%TO.P,J2,4,Pin_4*%
%TO.N,unconnected-(J2-Pin_4-Pad4)*%
X86360000Y-81280000D03*
%TO.P,J2,5,Pin_5*%
%TO.N,TX2*%
X88900000Y-78740000D03*
%TO.P,J2,6,Pin_6*%
%TO.N,unconnected-(J2-Pin_6-Pad6)*%
X86360000Y-78740000D03*
%TO.P,J2,7,Pin_7*%
%TO.N,unconnected-(J2-Pin_7-Pad7)*%
X88900000Y-76200000D03*
%TO.P,J2,8,Pin_8*%
%TO.N,VCC*%
X86360000Y-76200000D03*
%TD*%
D12*
%TO.P,REF\u002A\u002A,1*%
%TO.N,GND*%
X148590000Y-129540000D03*
%TD*%
D13*
%TO.P,U1,1,3V3*%
%TO.N,VDD*%
X86360000Y-127000000D03*
D14*
%TO.P,U1,2,CHIP_PU*%
%TO.N,unconnected-(U1-CHIP_PU-Pad2)*%
X88900000Y-127000000D03*
%TO.P,U1,3,SENSOR_VP/GPIO36/ADC1_CH0*%
%TO.N,unconnected-(U1-SENSOR_VP{slash}GPIO36{slash}ADC1_CH0-Pad3)*%
X91440000Y-127000000D03*
%TO.P,U1,4,SENSOR_VN/GPIO39/ADC1_CH3*%
%TO.N,unconnected-(U1-SENSOR_VN{slash}GPIO39{slash}ADC1_CH3-Pad4)*%
X93980000Y-127000000D03*
%TO.P,U1,5,VDET_1/GPIO34/ADC1_CH6*%
%TO.N,unconnected-(U1-VDET_1{slash}GPIO34{slash}ADC1_CH6-Pad5)*%
X96520000Y-127000000D03*
%TO.P,U1,6,VDET_2/GPIO35/ADC1_CH7*%
%TO.N,unconnected-(U1-VDET_2{slash}GPIO35{slash}ADC1_CH7-Pad6)*%
X99060000Y-127000000D03*
%TO.P,U1,7,32K_XP/GPIO32/ADC1_CH4*%
%TO.N,Net-(U1-32K_XP{slash}GPIO32{slash}ADC1_CH4)*%
X101600000Y-127000000D03*
%TO.P,U1,8,32K_XN/GPIO33/ADC1_CH5*%
%TO.N,Net-(U1-32K_XN{slash}GPIO33{slash}ADC1_CH5)*%
X104140000Y-127000000D03*
%TO.P,U1,9,DAC_1/ADC2_CH8/GPIO25*%
%TO.N,Net-(U1-DAC_1{slash}ADC2_CH8{slash}GPIO25)*%
X106680000Y-127000000D03*
%TO.P,U1,10,DAC_2/ADC2_CH9/GPIO26*%
%TO.N,Net-(U1-DAC_2{slash}ADC2_CH9{slash}GPIO26)*%
X109220000Y-127000000D03*
%TO.P,U1,11,ADC2_CH7/GPIO27*%
%TO.N,Net-(U1-ADC2_CH7{slash}GPIO27)*%
X111760000Y-127000000D03*
%TO.P,U1,12,MTMS/GPIO14/ADC2_CH6*%
%TO.N,DOOR*%
X114300000Y-127000000D03*
%TO.P,U1,13,MTDI/GPIO12/ADC2_CH5*%
%TO.N,Net-(U1-MTDI{slash}GPIO12{slash}ADC2_CH5)*%
X116840000Y-127000000D03*
%TO.P,U1,14,GND*%
%TO.N,GND*%
X119380000Y-127000000D03*
%TO.P,U1,15,MTCK/GPIO13/ADC2_CH4*%
%TO.N,unconnected-(U1-MTCK{slash}GPIO13{slash}ADC2_CH4-Pad15)*%
X121920000Y-127000000D03*
%TO.P,U1,16,SD_DATA2/GPIO9*%
%TO.N,unconnected-(U1-SD_DATA2{slash}GPIO9-Pad16)*%
X124460000Y-127000000D03*
%TO.P,U1,17,SD_DATA3/GPIO10*%
%TO.N,unconnected-(U1-SD_DATA3{slash}GPIO10-Pad17)*%
X127000000Y-127000000D03*
%TO.P,U1,18,CMD*%
%TO.N,unconnected-(U1-CMD-Pad18)*%
X129540000Y-127000000D03*
%TO.P,U1,19,5V*%
%TO.N,VCC*%
X132080000Y-127000000D03*
%TO.P,U1,20,SD_CLK/GPIO6*%
%TO.N,unconnected-(U1-SD_CLK{slash}GPIO6-Pad20)*%
X132077280Y-101603680D03*
%TO.P,U1,21,SD_DATA0/GPIO7*%
%TO.N,unconnected-(U1-SD_DATA0{slash}GPIO7-Pad21)*%
X129537280Y-101603680D03*
%TO.P,U1,22,SD_DATA1/GPIO8*%
%TO.N,unconnected-(U1-SD_DATA1{slash}GPIO8-Pad22)*%
X127000000Y-101600000D03*
%TO.P,U1,23,MTDO/GPIO15/ADC2_CH3*%
%TO.N,unconnected-(U1-MTDO{slash}GPIO15{slash}ADC2_CH3-Pad23)*%
X124460000Y-101600000D03*
%TO.P,U1,24,ADC2_CH2/GPIO2*%
%TO.N,unconnected-(U1-ADC2_CH2{slash}GPIO2-Pad24)*%
X121920000Y-101600000D03*
%TO.P,U1,25,GPIO0/BOOT/ADC2_CH1*%
%TO.N,unconnected-(U1-GPIO0{slash}BOOT{slash}ADC2_CH1-Pad25)*%
X119380000Y-101600000D03*
%TO.P,U1,26,ADC2_CH0/GPIO4*%
%TO.N,unconnected-(U1-ADC2_CH0{slash}GPIO4-Pad26)*%
X116840000Y-101600000D03*
%TO.P,U1,27,GPIO16*%
%TO.N,RX2*%
X114300000Y-101600000D03*
%TO.P,U1,28,GPIO17*%
%TO.N,TX2*%
X111760000Y-101600000D03*
%TO.P,U1,29,GPIO5*%
%TO.N,CS*%
X109220000Y-101600000D03*
%TO.P,U1,30,GPIO18*%
%TO.N,SCK*%
X106680000Y-101600000D03*
%TO.P,U1,31,GPIO19*%
%TO.N,SO*%
X104140000Y-101600000D03*
%TO.P,U1,32,GND*%
%TO.N,GND*%
X101600000Y-101600000D03*
%TO.P,U1,33,GPIO21*%
%TO.N,unconnected-(U1-GPIO21-Pad33)*%
X99060000Y-101600000D03*
%TO.P,U1,34,U0RXD/GPIO3*%
%TO.N,unconnected-(U1-U0RXD{slash}GPIO3-Pad34)*%
X96520000Y-101600000D03*
%TO.P,U1,35,U0TXD/GPIO1*%
%TO.N,unconnected-(U1-U0TXD{slash}GPIO1-Pad35)*%
X93980000Y-101600000D03*
%TO.P,U1,36,GPIO22*%
%TO.N,SDA_L*%
X91440000Y-101600000D03*
%TO.P,U1,37,GPIO23*%
%TO.N,SCL_L*%
X88900000Y-101600000D03*
%TO.P,U1,38,GND*%
%TO.N,GND*%
X86360000Y-101600000D03*
%TD*%
D15*
%TO.P,U2,1,3.3v*%
%TO.N,VDD*%
X101600000Y-86360000D03*
%TO.P,U2,2,3A*%
%TO.N,SCL_L*%
X101600000Y-88900000D03*
%TO.P,U2,3,3B*%
%TO.N,SDA_L*%
X101600000Y-91440000D03*
%TO.P,U2,4,GND*%
%TO.N,GND*%
X101600000Y-93980000D03*
%TO.P,U2,5,GND*%
X114300000Y-93980000D03*
%TO.P,U2,6,5B*%
%TO.N,SDA_H*%
X114300000Y-91440000D03*
%TO.P,U2,7,5A*%
%TO.N,SCL_H*%
X114300000Y-88900000D03*
%TO.P,U2,8,VIN*%
%TO.N,VCC*%
X114300000Y-86360000D03*
%TD*%
D10*
%TO.P,U3,1,VCC*%
%TO.N,VCC*%
X134620000Y-71120000D03*
D11*
%TO.P,U3,2,GND*%
%TO.N,GND*%
X134620000Y-73660000D03*
%TO.P,U3,3,SCL*%
%TO.N,SCL_H*%
X134620000Y-76200000D03*
%TO.P,U3,4,SDA*%
%TO.N,SDA_H*%
X134620000Y-78740000D03*
%TO.P,U3,5,ADDR*%
%TO.N,GND*%
X134620000Y-81280000D03*
%TO.P,U3,6,ALERT*%
%TO.N,unconnected-(U3-ALERT-Pad6)*%
X134620000Y-83820000D03*
%TO.P,U3,7,AIN0*%
%TO.N,INT_TEMPSENSOR*%
X134620000Y-86360000D03*
%TO.P,U3,8,AIN1*%
%TO.N,unconnected-(U3-AIN1-Pad8)*%
X134620000Y-88900000D03*
%TO.P,U3,9,AIN2*%
%TO.N,unconnected-(U3-AIN2-Pad9)*%
X134620000Y-91440000D03*
%TO.P,U3,10,AIN3*%
%TO.N,unconnected-(U3-AIN3-Pad10)*%
X134620000Y-93980000D03*
%TD*%
D12*
%TO.P,REF\u002A\u002A,1*%
%TO.N,GND*%
X148590000Y-64770000D03*
%TD*%
D10*
%TO.P,J1,1,Pin_1*%
%TO.N,INT_TEMPSENSOR*%
X144780000Y-99060000D03*
D11*
%TO.P,J1,2,Pin_2*%
%TO.N,VCC*%
X144780000Y-101600000D03*
%TO.P,J1,3,Pin_3*%
%TO.N,GND*%
X144780000Y-104140000D03*
%TO.P,J1,4,Pin_4*%
%TO.N,NC*%
X144780000Y-106680000D03*
%TO.P,J1,5,Pin_5*%
%TO.N,FAN12V*%
X144780000Y-109220000D03*
%TO.P,J1,6,Pin_6*%
%TO.N,HEATER*%
X144780000Y-111760000D03*
%TO.P,J1,7,Pin_7*%
%TO.N,FAN230V*%
X144780000Y-114300000D03*
%TO.P,J1,8,Pin_8*%
%TO.N,LAMP230V*%
X144780000Y-116840000D03*
%TO.P,J1,9,Pin_9*%
%TO.N,MOTOR230V*%
X144780000Y-119380000D03*
%TO.P,J1,10,Pin_10*%
%TO.N,FAN230V_SLOW*%
X144780000Y-121920000D03*
%TO.P,J1,11,Pin_11*%
%TO.N,NC*%
X144780000Y-124460000D03*
%TO.P,J1,12,Pin_12*%
%TO.N,DOOR*%
X144780000Y-127000000D03*
%TD*%
D16*
%TO.N,FAN230V_SLOW*%
X112150000Y-122998000D03*
%TO.N,HEATER*%
X116210000Y-113368000D03*
%TO.N,MOTOR230V*%
X109486000Y-122998000D03*
%TO.N,LAMP230V*%
X106375000Y-117883000D03*
%TO.N,FAN230V*%
X104322000Y-119570000D03*
%TO.N,FAN12V*%
X104750000Y-112437000D03*
%TO.N,TX2*%
X105723000Y-81871900D03*
%TD*%
D17*
%TO.N,GND*%
X114300000Y-93980000D02*
X101600000Y-93980000D01*
X86360000Y-101600000D02*
X86360000Y-102977000D01*
X134620000Y-81280000D02*
X121920000Y-93980000D01*
X101600000Y-102977000D02*
X102763000Y-104140000D01*
X86360000Y-102977000D02*
X101600000Y-102977000D01*
X101600000Y-101600000D02*
X101600000Y-102853000D01*
X101600000Y-102853000D02*
X101600000Y-102977000D01*
X86360000Y-83820000D02*
X88900000Y-83820000D01*
X102763000Y-104140000D02*
X144780000Y-104140000D01*
X121920000Y-93980000D02*
X114300000Y-93980000D01*
%TO.N,FAN230V_SLOW*%
X112150000Y-122998000D02*
X112386000Y-122762000D01*
X113228000Y-121920000D02*
X112386000Y-122762000D01*
X144780000Y-121920000D02*
X113228000Y-121920000D01*
X112386000Y-122762000D02*
X112150000Y-122998000D01*
X112386000Y-122762000D02*
X112150000Y-122998000D01*
%TO.N,HEATER*%
X116210000Y-113368000D02*
X117101000Y-113368000D01*
X143172000Y-113368000D02*
X117101000Y-113368000D01*
X144780000Y-111760000D02*
X143172000Y-113368000D01*
X117101000Y-113368000D02*
X116210000Y-113368000D01*
X117101000Y-113368000D02*
X116210000Y-113368000D01*
%TO.N,MOTOR230V*%
X144780000Y-119380000D02*
X113103000Y-119380000D01*
X113103000Y-119380000D02*
X109486000Y-122998000D01*
%TO.N,VCC*%
X87630000Y-77470000D02*
X86360000Y-76200000D01*
X87630000Y-79284800D02*
X87630000Y-77470000D01*
X87630000Y-77470000D02*
X127043000Y-77470000D01*
X89364800Y-80010000D02*
X88355200Y-80010000D01*
X88355200Y-80010000D02*
X87630000Y-79284800D01*
X111547000Y-84983300D02*
X94338100Y-84983300D01*
X112923000Y-86360000D02*
X111547000Y-84983300D01*
X94338100Y-84983300D02*
X89364800Y-80010000D01*
X114300000Y-86360000D02*
X112923000Y-86360000D01*
X127043000Y-77470000D02*
X133393000Y-71120000D01*
X134620000Y-71120000D02*
X133393000Y-71120000D01*
%TO.N,LAMP230V*%
X144780000Y-116840000D02*
X143737000Y-117883000D01*
X143737000Y-117883000D02*
X106375000Y-117883000D01*
%TO.N,DOOR*%
X114300000Y-127000000D02*
X114300000Y-128377000D01*
X143403000Y-128377000D02*
X114300000Y-128377000D01*
X144780000Y-127000000D02*
X143403000Y-128377000D01*
%TO.N,INT_TEMPSENSOR*%
X144780000Y-99060000D02*
X144780000Y-96520000D01*
X144780000Y-96520000D02*
X134620000Y-86360000D01*
%TO.N,FAN230V*%
X106741000Y-117150000D02*
X106697000Y-117106000D01*
X105599000Y-117561000D02*
X105599000Y-118205000D01*
X106054000Y-117106000D02*
X105599000Y-117561000D01*
X109592000Y-114300000D02*
X106741000Y-117150000D01*
X105643000Y-118249000D02*
X104322000Y-119570000D01*
X106697000Y-117106000D02*
X106054000Y-117106000D01*
X144780000Y-114300000D02*
X109592000Y-114300000D01*
X105599000Y-118205000D02*
X105643000Y-118249000D01*
X104322000Y-119570000D02*
X105643000Y-118249000D01*
X106741000Y-117150000D02*
X109592000Y-114300000D01*
X105643000Y-118249000D02*
X104322000Y-119570000D01*
X109592000Y-114300000D02*
X106741000Y-117150000D01*
%TO.N,FAN12V*%
X144780000Y-109220000D02*
X141563000Y-112437000D01*
X141563000Y-112437000D02*
X104750000Y-112437000D01*
%TO.N,TX2*%
X104750000Y-81871900D02*
X92031900Y-81871900D01*
X104750000Y-81871900D02*
X105222000Y-81871900D01*
X105222000Y-81871900D02*
X105723000Y-81871900D01*
X105014000Y-81871900D02*
X104750000Y-81871900D01*
X104750000Y-81871900D02*
X105014000Y-81871900D01*
X92031900Y-81871900D02*
X88900000Y-78740000D01*
%TO.N,RX2*%
X114300000Y-100223000D02*
X106057000Y-100223000D01*
X90214800Y-84380800D02*
X90214800Y-82594800D01*
X106057000Y-100223000D02*
X90214800Y-84380800D01*
X90214800Y-82594800D02*
X88900000Y-81280000D01*
X114300000Y-101600000D02*
X114300000Y-100223000D01*
%TO.N,SDA_H*%
X134620000Y-78740000D02*
X121920000Y-91440000D01*
X121920000Y-91440000D02*
X114300000Y-91440000D01*
%TO.N,SCL_H*%
X134620000Y-76200000D02*
X121920000Y-88900000D01*
X121920000Y-88900000D02*
X114300000Y-88900000D01*
%TD*%
%TA.AperFunction,Conductor*%
%TO.N,GND*%
G36*
X87701444Y-81933999D02*
G01*
X87740486Y-81979056D01*
X87744951Y-81987820D01*
X87869890Y-82159786D01*
X87983818Y-82273714D01*
X88017303Y-82335037D01*
X88012319Y-82404729D01*
X87970447Y-82460662D01*
X87939471Y-82477577D01*
X87807912Y-82526646D01*
X87807906Y-82526649D01*
X87692812Y-82612809D01*
X87692809Y-82612812D01*
X87606649Y-82727906D01*
X87606645Y-82727913D01*
X87556403Y-82862619D01*
X87556401Y-82862626D01*
X87547497Y-82945444D01*
X87544434Y-82945114D01*
X87545336Y-82962094D01*
X87512356Y-83021195D01*
X86842962Y-83690590D01*
X86825925Y-83627007D01*
X86760099Y-83512993D01*
X86667007Y-83419901D01*
X86552993Y-83354075D01*
X86489409Y-83337037D01*
X87121716Y-82704728D01*
X87067547Y-82665373D01*
X87067547Y-82665372D01*
X87058500Y-82660763D01*
X87007706Y-82612788D01*
X86990912Y-82544966D01*
X87013451Y-82478832D01*
X87058508Y-82439793D01*
X87067816Y-82435051D01*
X87147007Y-82377515D01*
X87239786Y-82310109D01*
X87239788Y-82310106D01*
X87239792Y-82310104D01*
X87390104Y-82159792D01*
X87390106Y-82159788D01*
X87390109Y-82159786D01*
X87515048Y-81987820D01*
X87515047Y-81987820D01*
X87515051Y-81987816D01*
X87519514Y-81979054D01*
X87567488Y-81928259D01*
X87635308Y-81911463D01*
X87701444Y-81933999D01*
G37*
%TD.AperFunction*%
%TA.AperFunction,Conductor*%
G36*
X151708039Y-61614685D02*
G01*
X151753794Y-61667489D01*
X151765000Y-61719000D01*
X151765000Y-132591000D01*
X151745315Y-132658039D01*
X151692511Y-132703794D01*
X151641000Y-132715000D01*
X76959000Y-132715000D01*
X76891961Y-132695315D01*
X76846206Y-132642511D01*
X76835000Y-132591000D01*
X76835000Y-125952135D01*
X85259500Y-125952135D01*
X85259500Y-128047870D01*
X85259501Y-128047876D01*
X85265908Y-128107483D01*
X85316202Y-128242328D01*
X85316206Y-128242335D01*
X85402452Y-128357544D01*
X85402455Y-128357547D01*
X85517664Y-128443793D01*
X85517671Y-128443797D01*
X85652517Y-128494091D01*
X85652516Y-128494091D01*
X85659444Y-128494835D01*
X85712127Y-128500500D01*
X87007872Y-128500499D01*
X87067483Y-128494091D01*
X87202331Y-128443796D01*
X87317546Y-128357546D01*
X87403796Y-128242331D01*
X87454091Y-128107483D01*
X87460500Y-128047873D01*
X87460499Y-126513389D01*
X87799500Y-126513389D01*
X87799500Y-127486610D01*
X87824609Y-127645147D01*
X87826598Y-127657701D01*
X87857075Y-127751500D01*
X87880128Y-127822447D01*
X87958768Y-127976788D01*
X88060586Y-128116928D01*
X88183072Y-128239414D01*
X88323212Y-128341232D01*
X88477555Y-128419873D01*
X88642299Y-128473402D01*
X88813389Y-128500500D01*
X88813390Y-128500500D01*
X88986610Y-128500500D01*
X88986611Y-128500500D01*
X89157701Y-128473402D01*
X89322445Y-128419873D01*
X89476788Y-128341232D01*
X89616928Y-128239414D01*
X89739414Y-128116928D01*
X89841232Y-127976788D01*
X89919873Y-127822445D01*
X89973402Y-127657701D01*
X90000500Y-127486611D01*
X90000500Y-126513389D01*
X90339500Y-126513389D01*
X90339500Y-127486610D01*
X90364609Y-127645147D01*
X90366598Y-127657701D01*
X90397075Y-127751500D01*
X90420128Y-127822447D01*
X90498768Y-127976788D01*
X90600586Y-128116928D01*
X90723072Y-128239414D01*
X90863212Y-128341232D01*
X91017555Y-128419873D01*
X91182299Y-128473402D01*
X91353389Y-128500500D01*
X91353390Y-128500500D01*
X91526610Y-128500500D01*
X91526611Y-128500500D01*
X91697701Y-128473402D01*
X91862445Y-128419873D01*
X92016788Y-128341232D01*
X92156928Y-128239414D01*
X92279414Y-128116928D01*
X92381232Y-127976788D01*
X92459873Y-127822445D01*
X92513402Y-127657701D01*
X92540500Y-127486611D01*
X92540500Y-126513389D01*
X92879500Y-126513389D01*
X92879500Y-127486610D01*
X92904609Y-127645147D01*
X92906598Y-127657701D01*
X92937075Y-127751500D01*
X92960128Y-127822447D01*
X93038768Y-127976788D01*
X93140586Y-128116928D01*
X93263072Y-128239414D01*
X93403212Y-128341232D01*
X93557555Y-128419873D01*
X93722299Y-128473402D01*
X93893389Y-128500500D01*
X93893390Y-128500500D01*
X94066610Y-128500500D01*
X94066611Y-128500500D01*
X94237701Y-128473402D01*
X94402445Y-128419873D01*
X94556788Y-128341232D01*
X94696928Y-128239414D01*
X94819414Y-128116928D01*
X94921232Y-127976788D01*
X94999873Y-127822445D01*
X95053402Y-127657701D01*
X95080500Y-127486611D01*
X95080500Y-126513389D01*
X95419500Y-126513389D01*
X95419500Y-127486610D01*
X95444609Y-127645147D01*
X95446598Y-127657701D01*
X95477075Y-127751500D01*
X95500128Y-127822447D01*
X95578768Y-127976788D01*
X95680586Y-128116928D01*
X95803072Y-128239414D01*
X95943212Y-128341232D01*
X96097555Y-128419873D01*
X96262299Y-128473402D01*
X96433389Y-128500500D01*
X96433390Y-128500500D01*
X96606610Y-128500500D01*
X96606611Y-128500500D01*
X96777701Y-128473402D01*
X96942445Y-128419873D01*
X97096788Y-128341232D01*
X97236928Y-128239414D01*
X97359414Y-128116928D01*
X97461232Y-127976788D01*
X97539873Y-127822445D01*
X97593402Y-127657701D01*
X97620500Y-127486611D01*
X97620500Y-126513389D01*
X97959500Y-126513389D01*
X97959500Y-127486610D01*
X97984609Y-127645147D01*
X97986598Y-127657701D01*
X98017075Y-127751500D01*
X98040128Y-127822447D01*
X98118768Y-127976788D01*
X98220586Y-128116928D01*
X98343072Y-128239414D01*
X98483212Y-128341232D01*
X98637555Y-128419873D01*
X98802299Y-128473402D01*
X98973389Y-128500500D01*
X98973390Y-128500500D01*
X99146610Y-128500500D01*
X99146611Y-128500500D01*
X99317701Y-128473402D01*
X99482445Y-128419873D01*
X99636788Y-128341232D01*
X99776928Y-128239414D01*
X99899414Y-128116928D01*
X100001232Y-127976788D01*
X100079873Y-127822445D01*
X100133402Y-127657701D01*
X100160500Y-127486611D01*
X100160500Y-126513389D01*
X100499500Y-126513389D01*
X100499500Y-127486610D01*
X100524609Y-127645147D01*
X100526598Y-127657701D01*
X100557075Y-127751500D01*
X100580128Y-127822447D01*
X100658768Y-127976788D01*
X100760586Y-128116928D01*
X100883072Y-128239414D01*
X101023212Y-128341232D01*
X101177555Y-128419873D01*
X101342299Y-128473402D01*
X101513389Y-128500500D01*
X101513390Y-128500500D01*
X101686610Y-128500500D01*
X101686611Y-128500500D01*
X101857701Y-128473402D01*
X102022445Y-128419873D01*
X102176788Y-128341232D01*
X102316928Y-128239414D01*
X102439414Y-128116928D01*
X102541232Y-127976788D01*
X102619873Y-127822445D01*
X102673402Y-127657701D01*
X102700500Y-127486611D01*
X102700500Y-126513389D01*
X103039500Y-126513389D01*
X103039500Y-127486610D01*
X103064609Y-127645147D01*
X103066598Y-127657701D01*
X103097075Y-127751500D01*
X103120128Y-127822447D01*
X103198768Y-127976788D01*
X103300586Y-128116928D01*
X103423072Y-128239414D01*
X103563212Y-128341232D01*
X103717555Y-128419873D01*
X103882299Y-128473402D01*
X104053389Y-128500500D01*
X104053390Y-128500500D01*
X104226610Y-128500500D01*
X104226611Y-128500500D01*
X104397701Y-128473402D01*
X104562445Y-128419873D01*
X104716788Y-128341232D01*
X104856928Y-128239414D01*
X104979414Y-128116928D01*
X105081232Y-127976788D01*
X105159873Y-127822445D01*
X105213402Y-127657701D01*
X105240500Y-127486611D01*
X105240500Y-126513389D01*
X105579500Y-126513389D01*
X105579500Y-127486610D01*
X105604609Y-127645147D01*
X105606598Y-127657701D01*
X105637075Y-127751500D01*
X105660128Y-127822447D01*
X105738768Y-127976788D01*
X105840586Y-128116928D01*
X105963072Y-128239414D01*
X106103212Y-128341232D01*
X106257555Y-128419873D01*
X106422299Y-128473402D01*
X106593389Y-128500500D01*
X106593390Y-128500500D01*
X106766610Y-128500500D01*
X106766611Y-128500500D01*
X106937701Y-128473402D01*
X107102445Y-128419873D01*
X107256788Y-128341232D01*
X107396928Y-128239414D01*
X107519414Y-128116928D01*
X107621232Y-127976788D01*
X107699873Y-127822445D01*
X107753402Y-127657701D01*
X107780500Y-127486611D01*
X107780500Y-126513389D01*
X108119500Y-126513389D01*
X108119500Y-127486610D01*
X108144609Y-127645147D01*
X108146598Y-127657701D01*
X108177075Y-127751500D01*
X108200128Y-127822447D01*
X108278768Y-127976788D01*
X108380586Y-128116928D01*
X108503072Y-128239414D01*
X108643212Y-128341232D01*
X108797555Y-128419873D01*
X108962299Y-128473402D01*
X109133389Y-128500500D01*
X109133390Y-128500500D01*
X109306610Y-128500500D01*
X109306611Y-128500500D01*
X109477701Y-128473402D01*
X109642445Y-128419873D01*
X109796788Y-128341232D01*
X109936928Y-128239414D01*
X110059414Y-128116928D01*
X110161232Y-127976788D01*
X110239873Y-127822445D01*
X110293402Y-127657701D01*
X110320500Y-127486611D01*
X110320500Y-126513389D01*
X110659500Y-126513389D01*
X110659500Y-127486610D01*
X110684609Y-127645147D01*
X110686598Y-127657701D01*
X110717075Y-127751500D01*
X110740128Y-127822447D01*
X110818768Y-127976788D01*
X110920586Y-128116928D01*
X111043072Y-128239414D01*
X111183212Y-128341232D01*
X111337555Y-128419873D01*
X111502299Y-128473402D01*
X111673389Y-128500500D01*
X111673390Y-128500500D01*
X111846610Y-128500500D01*
X111846611Y-128500500D01*
X112017701Y-128473402D01*
X112182445Y-128419873D01*
X112336788Y-128341232D01*
X112476928Y-128239414D01*
X112599414Y-128116928D01*
X112701232Y-127976788D01*
X112779873Y-127822445D01*
X112833402Y-127657701D01*
X112860500Y-127486611D01*
X112860500Y-126513389D01*
X112833402Y-126342299D01*
X112779873Y-126177555D01*
X112701232Y-126023212D01*
X112599414Y-125883072D01*
X112476928Y-125760586D01*
X112336788Y-125658768D01*
X112182445Y-125580127D01*
X112017701Y-125526598D01*
X112017699Y-125526597D01*
X112017698Y-125526597D01*
X111886271Y-125505781D01*
X111846611Y-125499500D01*
X111673389Y-125499500D01*
X111633728Y-125505781D01*
X111502302Y-125526597D01*
X111337552Y-125580128D01*
X111183211Y-125658768D01*
X111110554Y-125711557D01*
X111043072Y-125760586D01*
X111043070Y-125760588D01*
X111043069Y-125760588D01*
X110920588Y-125883069D01*
X110920588Y-125883070D01*
X110920586Y-125883072D01*
X110920350Y-125883397D01*
X110818768Y-126023211D01*
X110740128Y-126177552D01*
X110686597Y-126342302D01*
X110659500Y-126513389D01*
X110320500Y-126513389D01*
X110293402Y-126342299D01*
X110239873Y-126177555D01*
X110161232Y-126023212D01*
X110059414Y-125883072D01*
X109936928Y-125760586D01*
X109796788Y-125658768D01*
X109642445Y-125580127D01*
X109477701Y-125526598D01*
X109477699Y-125526597D01*
X109477698Y-125526597D01*
X109346271Y-125505781D01*
X109306611Y-125499500D01*
X109133389Y-125499500D01*
X109093728Y-125505781D01*
X108962302Y-125526597D01*
X108797552Y-125580128D01*
X108643211Y-125658768D01*
X108570554Y-125711557D01*
X108503072Y-125760586D01*
X108503070Y-125760588D01*
X108503069Y-125760588D01*
X108380588Y-125883069D01*
X108380588Y-125883070D01*
X108380586Y-125883072D01*
X108380350Y-125883397D01*
X108278768Y-126023211D01*
X108200128Y-126177552D01*
X108146597Y-126342302D01*
X108119500Y-126513389D01*
X107780500Y-126513389D01*
X107753402Y-126342299D01*
X107699873Y-126177555D01*
X107621232Y-126023212D01*
X107519414Y-125883072D01*
X107396928Y-125760586D01*
X107256788Y-125658768D01*
X107102445Y-125580127D01*
X106937701Y-125526598D01*
X106937699Y-125526597D01*
X106937698Y-125526597D01*
X106806271Y-125505781D01*
X106766611Y-125499500D01*
X106593389Y-125499500D01*
X106553728Y-125505781D01*
X106422302Y-125526597D01*
X106257552Y-125580128D01*
X106103211Y-125658768D01*
X106030554Y-125711557D01*
X105963072Y-125760586D01*
X105963070Y-125760588D01*
X105963069Y-125760588D01*
X105840588Y-125883069D01*
X105840588Y-125883070D01*
X105840586Y-125883072D01*
X105840350Y-125883397D01*
X105738768Y-126023211D01*
X105660128Y-126177552D01*
X105606597Y-126342302D01*
X105579500Y-126513389D01*
X105240500Y-126513389D01*
X105213402Y-126342299D01*
X105159873Y-126177555D01*
X105081232Y-126023212D01*
X104979414Y-125883072D01*
X104856928Y-125760586D01*
X104716788Y-125658768D01*
X104562445Y-125580127D01*
X104397701Y-125526598D01*
X104397699Y-125526597D01*
X104397698Y-125526597D01*
X104266271Y-125505781D01*
X104226611Y-125499500D01*
X104053389Y-125499500D01*
X104013728Y-125505781D01*
X103882302Y-125526597D01*
X103717552Y-125580128D01*
X103563211Y-125658768D01*
X103490554Y-125711557D01*
X103423072Y-125760586D01*
X103423070Y-125760588D01*
X103423069Y-125760588D01*
X103300588Y-125883069D01*
X103300588Y-125883070D01*
X103300586Y-125883072D01*
X103300350Y-125883397D01*
X103198768Y-126023211D01*
X103120128Y-126177552D01*
X103066597Y-126342302D01*
X103039500Y-126513389D01*
X102700500Y-126513389D01*
X102673402Y-126342299D01*
X102619873Y-126177555D01*
X102541232Y-126023212D01*
X102439414Y-125883072D01*
X102316928Y-125760586D01*
X102176788Y-125658768D01*
X102022445Y-125580127D01*
X101857701Y-125526598D01*
X101857699Y-125526597D01*
X101857698Y-125526597D01*
X101726271Y-125505781D01*
X101686611Y-125499500D01*
X101513389Y-125499500D01*
X101473728Y-125505781D01*
X101342302Y-125526597D01*
X101177552Y-125580128D01*
X101023211Y-125658768D01*
X100950554Y-125711557D01*
X100883072Y-125760586D01*
X100883070Y-125760588D01*
X100883069Y-125760588D01*
X100760588Y-125883069D01*
X100760588Y-125883070D01*
X100760586Y-125883072D01*
X100760350Y-125883397D01*
X100658768Y-126023211D01*
X100580128Y-126177552D01*
X100526597Y-126342302D01*
X100499500Y-126513389D01*
X100160500Y-126513389D01*
X100133402Y-126342299D01*
X100079873Y-126177555D01*
X100001232Y-126023212D01*
X99899414Y-125883072D01*
X99776928Y-125760586D01*
X99636788Y-125658768D01*
X99482445Y-125580127D01*
X99317701Y-125526598D01*
X99317699Y-125526597D01*
X99317698Y-125526597D01*
X99186271Y-125505781D01*
X99146611Y-125499500D01*
X98973389Y-125499500D01*
X98933728Y-125505781D01*
X98802302Y-125526597D01*
X98637552Y-125580128D01*
X98483211Y-125658768D01*
X98410554Y-125711557D01*
X98343072Y-125760586D01*
X98343070Y-125760588D01*
X98343069Y-125760588D01*
X98220588Y-125883069D01*
X98220588Y-125883070D01*
X98220586Y-125883072D01*
X98220350Y-125883397D01*
X98118768Y-126023211D01*
X98040128Y-126177552D01*
X97986597Y-126342302D01*
X97959500Y-126513389D01*
X97620500Y-126513389D01*
X97593402Y-126342299D01*
X97539873Y-126177555D01*
X97461232Y-126023212D01*
X97359414Y-125883072D01*
X97236928Y-125760586D01*
X97096788Y-125658768D01*
X96942445Y-125580127D01*
X96777701Y-125526598D01*
X96777699Y-125526597D01*
X96777698Y-125526597D01*
X96646271Y-125505781D01*
X96606611Y-125499500D01*
X96433389Y-125499500D01*
X96393728Y-125505781D01*
X96262302Y-125526597D01*
X96097552Y-125580128D01*
X95943211Y-125658768D01*
X95870554Y-125711557D01*
X95803072Y-125760586D01*
X95803070Y-125760588D01*
X95803069Y-125760588D01*
X95680588Y-125883069D01*
X95680588Y-125883070D01*
X95680586Y-125883072D01*
X95680350Y-125883397D01*
X95578768Y-126023211D01*
X95500128Y-126177552D01*
X95446597Y-126342302D01*
X95419500Y-126513389D01*
X95080500Y-126513389D01*
X95053402Y-126342299D01*
X94999873Y-126177555D01*
X94921232Y-126023212D01*
X94819414Y-125883072D01*
X94696928Y-125760586D01*
X94556788Y-125658768D01*
X94402445Y-125580127D01*
X94237701Y-125526598D01*
X94237699Y-125526597D01*
X94237698Y-125526597D01*
X94106271Y-125505781D01*
X94066611Y-125499500D01*
X93893389Y-125499500D01*
X93853728Y-125505781D01*
X93722302Y-125526597D01*
X93557552Y-125580128D01*
X93403211Y-125658768D01*
X93330554Y-125711557D01*
X93263072Y-125760586D01*
X93263070Y-125760588D01*
X93263069Y-125760588D01*
X93140588Y-125883069D01*
X93140588Y-125883070D01*
X93140586Y-125883072D01*
X93140350Y-125883397D01*
X93038768Y-126023211D01*
X92960128Y-126177552D01*
X92906597Y-126342302D01*
X92879500Y-126513389D01*
X92540500Y-126513389D01*
X92513402Y-126342299D01*
X92459873Y-126177555D01*
X92381232Y-126023212D01*
X92279414Y-125883072D01*
X92156928Y-125760586D01*
X92016788Y-125658768D01*
X91862445Y-125580127D01*
X91697701Y-125526598D01*
X91697699Y-125526597D01*
X91697698Y-125526597D01*
X91566271Y-125505781D01*
X91526611Y-125499500D01*
X91353389Y-125499500D01*
X91313728Y-125505781D01*
X91182302Y-125526597D01*
X91017552Y-125580128D01*
X90863211Y-125658768D01*
X90790554Y-125711557D01*
X90723072Y-125760586D01*
X90723070Y-125760588D01*
X90723069Y-125760588D01*
X90600588Y-125883069D01*
X90600588Y-125883070D01*
X90600586Y-125883072D01*
X90600350Y-125883397D01*
X90498768Y-126023211D01*
X90420128Y-126177552D01*
X90366597Y-126342302D01*
X90339500Y-126513389D01*
X90000500Y-126513389D01*
X89973402Y-126342299D01*
X89919873Y-126177555D01*
X89841232Y-126023212D01*
X89739414Y-125883072D01*
X89616928Y-125760586D01*
X89476788Y-125658768D01*
X89322445Y-125580127D01*
X89157701Y-125526598D01*
X89157699Y-125526597D01*
X89157698Y-125526597D01*
X89026271Y-125505781D01*
X88986611Y-125499500D01*
X88813389Y-125499500D01*
X88773728Y-125505781D01*
X88642302Y-125526597D01*
X88477552Y-125580128D01*
X88323211Y-125658768D01*
X88250554Y-125711557D01*
X88183072Y-125760586D01*
X88183070Y-125760588D01*
X88183069Y-125760588D01*
X88060588Y-125883069D01*
X88060588Y-125883070D01*
X88060586Y-125883072D01*
X88060350Y-125883397D01*
X87958768Y-126023211D01*
X87880128Y-126177552D01*
X87826597Y-126342302D01*
X87799500Y-126513389D01*
X87460499Y-126513389D01*
X87460499Y-125952128D01*
X87454091Y-125892517D01*
X87450689Y-125883397D01*
X87403797Y-125757671D01*
X87403793Y-125757664D01*
X87317547Y-125642455D01*
X87317544Y-125642452D01*
X87202335Y-125556206D01*
X87202328Y-125556202D01*
X87067482Y-125505908D01*
X87067483Y-125505908D01*
X87007883Y-125499501D01*
X87007881Y-125499500D01*
X87007873Y-125499500D01*
X87007864Y-125499500D01*
X85712129Y-125499500D01*
X85712123Y-125499501D01*
X85652516Y-125505908D01*
X85517671Y-125556202D01*
X85517664Y-125556206D01*
X85402455Y-125642452D01*
X85402452Y-125642455D01*
X85316206Y-125757664D01*
X85316202Y-125757671D01*
X85265908Y-125892517D01*
X85259501Y-125952116D01*
X85259501Y-125952123D01*
X85259500Y-125952135D01*
X76835000Y-125952135D01*
X76835000Y-101113428D01*
X85260000Y-101113428D01*
X85260000Y-101350000D01*
X86044314Y-101350000D01*
X86039920Y-101354394D01*
X85987259Y-101445606D01*
X85960000Y-101547339D01*
X85960000Y-101652661D01*
X85987259Y-101754394D01*
X86039920Y-101845606D01*
X86044314Y-101850000D01*
X85260000Y-101850000D01*
X85260000Y-102086571D01*
X85287085Y-102257584D01*
X85340591Y-102422257D01*
X85419195Y-102576524D01*
X85520967Y-102716602D01*
X85643397Y-102839032D01*
X85783475Y-102940804D01*
X85937744Y-103019408D01*
X86102415Y-103072914D01*
X86102414Y-103072914D01*
X86109999Y-103074115D01*
X86110000Y-103074114D01*
X86110000Y-101915686D01*
X86114394Y-101920080D01*
X86205606Y-101972741D01*
X86307339Y-102000000D01*
X86412661Y-102000000D01*
X86514394Y-101972741D01*
X86605606Y-101920080D01*
X86610000Y-101915686D01*
X86610000Y-103074115D01*
X86617584Y-103072914D01*
X86782255Y-103019408D01*
X86936524Y-102940804D01*
X87076602Y-102839032D01*
X87199032Y-102716602D01*
X87300804Y-102576524D01*
X87379408Y-102422257D01*
X87432914Y-102257584D01*
X87460000Y-102086571D01*
X87460000Y-101850000D01*
X86675686Y-101850000D01*
X86680080Y-101845606D01*
X86732741Y-101754394D01*
X86760000Y-101652661D01*
X86760000Y-101547339D01*
X86732741Y-101445606D01*
X86680080Y-101354394D01*
X86675686Y-101350000D01*
X87460000Y-101350000D01*
X87460000Y-101113428D01*
X87459994Y-101113389D01*
X87799500Y-101113389D01*
X87799500Y-102086611D01*
X87826598Y-102257701D01*
X87842881Y-102307816D01*
X87880128Y-102422447D01*
X87958633Y-102576524D01*
X87958768Y-102576788D01*
X88060586Y-102716928D01*
X88183072Y-102839414D01*
X88323212Y-102941232D01*
X88477555Y-103019873D01*
X88642299Y-103073402D01*
X88813389Y-103100500D01*
X88813390Y-103100500D01*
X88986610Y-103100500D01*
X88986611Y-103100500D01*
X89157701Y-103073402D01*
X89322445Y-103019873D01*
X89476788Y-102941232D01*
X89616928Y-102839414D01*
X89739414Y-102716928D01*
X89841232Y-102576788D01*
X89919873Y-102422445D01*
X89973402Y-102257701D01*
X90000500Y-102086611D01*
X90000500Y-101113389D01*
X90339500Y-101113389D01*
X90339500Y-102086611D01*
X90366598Y-102257701D01*
X90382881Y-102307816D01*
X90420128Y-102422447D01*
X90498633Y-102576524D01*
X90498768Y-102576788D01*
X90600586Y-102716928D01*
X90723072Y-102839414D01*
X90863212Y-102941232D01*
X91017555Y-103019873D01*
X91182299Y-103073402D01*
X91353389Y-103100500D01*
X91353390Y-103100500D01*
X91526610Y-103100500D01*
X91526611Y-103100500D01*
X91697701Y-103073402D01*
X91862445Y-103019873D01*
X92016788Y-102941232D01*
X92156928Y-102839414D01*
X92279414Y-102716928D01*
X92381232Y-102576788D01*
X92459873Y-102422445D01*
X92513402Y-102257701D01*
X92540500Y-102086611D01*
X92540500Y-101113389D01*
X92879500Y-101113389D01*
X92879500Y-102086611D01*
X92906598Y-102257701D01*
X92922881Y-102307816D01*
X92960128Y-102422447D01*
X93038633Y-102576524D01*
X93038768Y-102576788D01*
X93140586Y-102716928D01*
X93263072Y-102839414D01*
X93403212Y-102941232D01*
X93557555Y-103019873D01*
X93722299Y-103073402D01*
X93893389Y-103100500D01*
X93893390Y-103100500D01*
X94066610Y-103100500D01*
X94066611Y-103100500D01*
X94237701Y-103073402D01*
X94402445Y-103019873D01*
X94556788Y-102941232D01*
X94696928Y-102839414D01*
X94819414Y-102716928D01*
X94921232Y-102576788D01*
X94999873Y-102422445D01*
X95053402Y-102257701D01*
X95080500Y-102086611D01*
X95080500Y-101113389D01*
X95419500Y-101113389D01*
X95419500Y-102086611D01*
X95446598Y-102257701D01*
X95462881Y-102307816D01*
X95500128Y-102422447D01*
X95578633Y-102576524D01*
X95578768Y-102576788D01*
X95680586Y-102716928D01*
X95803072Y-102839414D01*
X95943212Y-102941232D01*
X96097555Y-103019873D01*
X96262299Y-103073402D01*
X96433389Y-103100500D01*
X96433390Y-103100500D01*
X96606610Y-103100500D01*
X96606611Y-103100500D01*
X96777701Y-103073402D01*
X96942445Y-103019873D01*
X97096788Y-102941232D01*
X97236928Y-102839414D01*
X97359414Y-102716928D01*
X97461232Y-102576788D01*
X97539873Y-102422445D01*
X97593402Y-102257701D01*
X97620500Y-102086611D01*
X97620500Y-101113389D01*
X97959500Y-101113389D01*
X97959500Y-102086611D01*
X97986598Y-102257701D01*
X98002881Y-102307816D01*
X98040128Y-102422447D01*
X98118633Y-102576524D01*
X98118768Y-102576788D01*
X98220586Y-102716928D01*
X98343072Y-102839414D01*
X98483212Y-102941232D01*
X98637555Y-103019873D01*
X98802299Y-103073402D01*
X98973389Y-103100500D01*
X98973390Y-103100500D01*
X99146610Y-103100500D01*
X99146611Y-103100500D01*
X99317701Y-103073402D01*
X99482445Y-103019873D01*
X99636788Y-102941232D01*
X99776928Y-102839414D01*
X99899414Y-102716928D01*
X100001232Y-102576788D01*
X100079873Y-102422445D01*
X100133402Y-102257701D01*
X100160500Y-102086611D01*
X100160500Y-101113428D01*
X100500000Y-101113428D01*
X100500000Y-101350000D01*
X101284314Y-101350000D01*
X101279920Y-101354394D01*
X101227259Y-101445606D01*
X101200000Y-101547339D01*
X101200000Y-101652661D01*
X101227259Y-101754394D01*
X101279920Y-101845606D01*
X101284314Y-101850000D01*
X100500000Y-101850000D01*
X100500000Y-102086571D01*
X100527085Y-102257584D01*
X100580591Y-102422257D01*
X100659195Y-102576524D01*
X100760967Y-102716602D01*
X100883397Y-102839032D01*
X101023475Y-102940804D01*
X101177744Y-103019408D01*
X101342415Y-103072914D01*
X101342414Y-103072914D01*
X101349999Y-103074115D01*
X101350000Y-103074114D01*
X101350000Y-101915686D01*
X101354394Y-101920080D01*
X101445606Y-101972741D01*
X101547339Y-102000000D01*
X101652661Y-102000000D01*
X101754394Y-101972741D01*
X101845606Y-101920080D01*
X101850000Y-101915686D01*
X101850000Y-103074115D01*
X101857584Y-103072914D01*
X102022255Y-103019408D01*
X102176524Y-102940804D01*
X102316602Y-102839032D01*
X102439032Y-102716602D01*
X102540804Y-102576524D01*
X102619408Y-102422257D01*
X102672914Y-102257584D01*
X102700000Y-102086571D01*
X102700000Y-101850000D01*
X101915686Y-101850000D01*
X101920080Y-101845606D01*
X101972741Y-101754394D01*
X102000000Y-101652661D01*
X102000000Y-101547339D01*
X101972741Y-101445606D01*
X101920080Y-101354394D01*
X101915686Y-101350000D01*
X102700000Y-101350000D01*
X102700000Y-101113428D01*
X102699994Y-101113389D01*
X103039500Y-101113389D01*
X103039500Y-102086611D01*
X103066598Y-102257701D01*
X103082881Y-102307816D01*
X103120128Y-102422447D01*
X103198633Y-102576524D01*
X103198768Y-102576788D01*
X103300586Y-102716928D01*
X103423072Y-102839414D01*
X103563212Y-102941232D01*
X103717555Y-103019873D01*
X103882299Y-103073402D01*
X104053389Y-103100500D01*
X104053390Y-103100500D01*
X104226610Y-103100500D01*
X104226611Y-103100500D01*
X104397701Y-103073402D01*
X104562445Y-103019873D01*
X104716788Y-102941232D01*
X104856928Y-102839414D01*
X104979414Y-102716928D01*
X105081232Y-102576788D01*
X105159873Y-102422445D01*
X105213402Y-102257701D01*
X105240500Y-102086611D01*
X105240500Y-101113389D01*
X105213402Y-100942299D01*
X105159873Y-100777555D01*
X105081232Y-100623212D01*
X104979414Y-100483072D01*
X104856928Y-100360586D01*
X104716788Y-100258768D01*
X104569669Y-100183808D01*
X104562447Y-100180128D01*
X104562446Y-100180127D01*
X104562445Y-100180127D01*
X104397701Y-100126598D01*
X104397699Y-100126597D01*
X104397698Y-100126597D01*
X104266271Y-100105781D01*
X104226611Y-100099500D01*
X104053389Y-100099500D01*
X104013728Y-100105781D01*
X103882302Y-100126597D01*
X103717552Y-100180128D01*
X103563211Y-100258768D01*
X103483256Y-100316859D01*
X103423072Y-100360586D01*
X103423070Y-100360588D01*
X103423069Y-100360588D01*
X103300588Y-100483069D01*
X103300588Y-100483070D01*
X103300586Y-100483072D01*
X103256859Y-100543256D01*
X103198768Y-100623211D01*
X103120128Y-100777552D01*
X103066597Y-100942302D01*
X103058742Y-100991897D01*
X103039500Y-101113389D01*
X102699994Y-101113389D01*
X102672914Y-100942415D01*
X102619408Y-100777742D01*
X102540804Y-100623475D01*
X102439032Y-100483397D01*
X102316602Y-100360967D01*
X102176524Y-100259195D01*
X102022257Y-100180591D01*
X101857589Y-100127087D01*
X101857581Y-100127085D01*
X101850000Y-100125884D01*
X101850000Y-101284314D01*
X101845606Y-101279920D01*
X101754394Y-101227259D01*
X101652661Y-101200000D01*
X101547339Y-101200000D01*
X101445606Y-101227259D01*
X101354394Y-101279920D01*
X101350000Y-101284314D01*
X101350000Y-100125884D01*
X101349999Y-100125884D01*
X101342418Y-100127085D01*
X101342410Y-100127087D01*
X101177742Y-100180591D01*
X101023475Y-100259195D01*
X100883397Y-100360967D01*
X100760967Y-100483397D01*
X100659195Y-100623475D01*
X100580591Y-100777742D01*
X100527085Y-100942415D01*
X100500000Y-101113428D01*
X100160500Y-101113428D01*
X100160500Y-101113389D01*
X100133402Y-100942299D01*
X100079873Y-100777555D01*
X100001232Y-100623212D01*
X99899414Y-100483072D01*
X99776928Y-100360586D01*
X99636788Y-100258768D01*
X99489669Y-100183808D01*
X99482447Y-100180128D01*
X99482446Y-100180127D01*
X99482445Y-100180127D01*
X99317701Y-100126598D01*
X99317699Y-100126597D01*
X99317698Y-100126597D01*
X99186271Y-100105781D01*
X99146611Y-100099500D01*
X98973389Y-100099500D01*
X98933728Y-100105781D01*
X98802302Y-100126597D01*
X98637552Y-100180128D01*
X98483211Y-100258768D01*
X98403256Y-100316859D01*
X98343072Y-100360586D01*
X98343070Y-100360588D01*
X98343069Y-100360588D01*
X98220588Y-100483069D01*
X98220588Y-100483070D01*
X98220586Y-100483072D01*
X98176859Y-100543256D01*
X98118768Y-100623211D01*
X98040128Y-100777552D01*
X97986597Y-100942302D01*
X97978742Y-100991897D01*
X97959500Y-101113389D01*
X97620500Y-101113389D01*
X97593402Y-100942299D01*
X97539873Y-100777555D01*
X97461232Y-100623212D01*
X97359414Y-100483072D01*
X97236928Y-100360586D01*
X97096788Y-100258768D01*
X96949669Y-100183808D01*
X96942447Y-100180128D01*
X96942446Y-100180127D01*
X96942445Y-100180127D01*
X96777701Y-100126598D01*
X96777699Y-100126597D01*
X96777698Y-100126597D01*
X96646271Y-100105781D01*
X96606611Y-100099500D01*
X96433389Y-100099500D01*
X96393728Y-100105781D01*
X96262302Y-100126597D01*
X96097552Y-100180128D01*
X95943211Y-100258768D01*
X95863256Y-100316859D01*
X95803072Y-100360586D01*
X95803070Y-100360588D01*
X95803069Y-100360588D01*
X95680588Y-100483069D01*
X95680588Y-100483070D01*
X95680586Y-100483072D01*
X95636859Y-100543256D01*
X95578768Y-100623211D01*
X95500128Y-100777552D01*
X95446597Y-100942302D01*
X95438742Y-100991897D01*
X95419500Y-101113389D01*
X95080500Y-101113389D01*
X95053402Y-100942299D01*
X94999873Y-100777555D01*
X94921232Y-100623212D01*
X94819414Y-100483072D01*
X94696928Y-100360586D01*
X94556788Y-100258768D01*
X94409669Y-100183808D01*
X94402447Y-100180128D01*
X94402446Y-100180127D01*
X94402445Y-100180127D01*
X94237701Y-100126598D01*
X94237699Y-100126597D01*
X94237698Y-100126597D01*
X94106271Y-100105781D01*
X94066611Y-100099500D01*
X93893389Y-100099500D01*
X93853728Y-100105781D01*
X93722302Y-100126597D01*
X93557552Y-100180128D01*
X93403211Y-100258768D01*
X93323256Y-100316859D01*
X93263072Y-100360586D01*
X93263070Y-100360588D01*
X93263069Y-100360588D01*
X93140588Y-100483069D01*
X93140588Y-100483070D01*
X93140586Y-100483072D01*
X93096859Y-100543256D01*
X93038768Y-100623211D01*
X92960128Y-100777552D01*
X92906597Y-100942302D01*
X92898742Y-100991897D01*
X92879500Y-101113389D01*
X92540500Y-101113389D01*
X92513402Y-100942299D01*
X92459873Y-100777555D01*
X92381232Y-100623212D01*
X92279414Y-100483072D01*
X92156928Y-100360586D01*
X92016788Y-100258768D01*
X91869669Y-100183808D01*
X91862447Y-100180128D01*
X91862446Y-100180127D01*
X91862445Y-100180127D01*
X91697701Y-100126598D01*
X91697699Y-100126597D01*
X91697698Y-100126597D01*
X91566271Y-100105781D01*
X91526611Y-100099500D01*
X91353389Y-100099500D01*
X91313728Y-100105781D01*
X91182302Y-100126597D01*
X91017552Y-100180128D01*
X90863211Y-100258768D01*
X90783256Y-100316859D01*
X90723072Y-100360586D01*
X90723070Y-100360588D01*
X90723069Y-100360588D01*
X90600588Y-100483069D01*
X90600588Y-100483070D01*
X90600586Y-100483072D01*
X90556859Y-100543256D01*
X90498768Y-100623211D01*
X90420128Y-100777552D01*
X90366597Y-100942302D01*
X90358742Y-100991897D01*
X90339500Y-101113389D01*
X90000500Y-101113389D01*
X89973402Y-100942299D01*
X89919873Y-100777555D01*
X89841232Y-100623212D01*
X89739414Y-100483072D01*
X89616928Y-100360586D01*
X89476788Y-100258768D01*
X89329669Y-100183808D01*
X89322447Y-100180128D01*
X89322446Y-100180127D01*
X89322445Y-100180127D01*
X89157701Y-100126598D01*
X89157699Y-100126597D01*
X89157698Y-100126597D01*
X89026271Y-100105781D01*
X88986611Y-100099500D01*
X88813389Y-100099500D01*
X88773728Y-100105781D01*
X88642302Y-100126597D01*
X88477552Y-100180128D01*
X88323211Y-100258768D01*
X88243256Y-100316859D01*
X88183072Y-100360586D01*
X88183070Y-100360588D01*
X88183069Y-100360588D01*
X88060588Y-100483069D01*
X88060588Y-100483070D01*
X88060586Y-100483072D01*
X88016859Y-100543256D01*
X87958768Y-100623211D01*
X87880128Y-100777552D01*
X87826597Y-100942302D01*
X87818742Y-100991897D01*
X87799500Y-101113389D01*
X87459994Y-101113389D01*
X87432914Y-100942415D01*
X87379408Y-100777742D01*
X87300804Y-100623475D01*
X87199032Y-100483397D01*
X87076602Y-100360967D01*
X86936524Y-100259195D01*
X86782257Y-100180591D01*
X86617589Y-100127087D01*
X86617581Y-100127085D01*
X86610000Y-100125884D01*
X86610000Y-101284314D01*
X86605606Y-101279920D01*
X86514394Y-101227259D01*
X86412661Y-101200000D01*
X86307339Y-101200000D01*
X86205606Y-101227259D01*
X86114394Y-101279920D01*
X86110000Y-101284314D01*
X86110000Y-100125884D01*
X86109999Y-100125884D01*
X86102418Y-100127085D01*
X86102410Y-100127087D01*
X85937742Y-100180591D01*
X85783475Y-100259195D01*
X85643397Y-100360967D01*
X85520967Y-100483397D01*
X85419195Y-100623475D01*
X85340591Y-100777742D01*
X85287085Y-100942415D01*
X85260000Y-101113428D01*
X76835000Y-101113428D01*
X76835000Y-76093713D01*
X85009500Y-76093713D01*
X85009500Y-76306286D01*
X85042753Y-76516239D01*
X85108444Y-76718414D01*
X85204951Y-76907820D01*
X85329890Y-77079786D01*
X85480213Y-77230109D01*
X85652182Y-77355050D01*
X85660946Y-77359516D01*
X85711742Y-77407491D01*
X85728536Y-77475312D01*
X85705998Y-77541447D01*
X85660946Y-77580484D01*
X85652182Y-77584949D01*
X85480213Y-77709890D01*
X85329890Y-77860213D01*
X85204951Y-78032179D01*
X85108444Y-78221585D01*
X85042753Y-78423760D01*
X85009500Y-78633713D01*
X85009500Y-78846286D01*
X85042753Y-79056239D01*
X85108444Y-79258414D01*
X85204951Y-79447820D01*
X85329890Y-79619786D01*
X85480213Y-79770109D01*
X85652182Y-79895050D01*
X85660946Y-79899516D01*
X85711742Y-79947491D01*
X85728536Y-80015312D01*
X85705998Y-80081447D01*
X85660946Y-80120484D01*
X85652182Y-80124949D01*
X85480213Y-80249890D01*
X85329890Y-80400213D01*
X85204951Y-80572179D01*
X85108444Y-80761585D01*
X85042753Y-80963760D01*
X85009500Y-81173713D01*
X85009500Y-81386286D01*
X85042735Y-81596127D01*
X85042754Y-81596243D01*
X85103503Y-81783209D01*
X85108444Y-81798414D01*
X85204951Y-81987820D01*
X85329890Y-82159786D01*
X85480213Y-82310109D01*
X85652179Y-82435048D01*
X85652181Y-82435049D01*
X85652184Y-82435051D01*
X85661493Y-82439794D01*
X85712290Y-82487766D01*
X85729087Y-82555587D01*
X85706552Y-82621722D01*
X85661505Y-82660760D01*
X85652446Y-82665376D01*
X85652440Y-82665380D01*
X85598282Y-82704727D01*
X85598282Y-82704728D01*
X86230591Y-83337037D01*
X86167007Y-83354075D01*
X86052993Y-83419901D01*
X85959901Y-83512993D01*
X85894075Y-83627007D01*
X85877037Y-83690591D01*
X85244728Y-83058282D01*
X85244727Y-83058282D01*
X85205380Y-83112439D01*
X85108904Y-83301782D01*
X85043242Y-83503869D01*
X85043242Y-83503872D01*
X85010000Y-83713753D01*
X85010000Y-83926246D01*
X85043242Y-84136127D01*
X85043242Y-84136130D01*
X85108904Y-84338217D01*
X85205375Y-84527550D01*
X85244728Y-84581716D01*
X85877037Y-83949408D01*
X85894075Y-84012993D01*
X85959901Y-84127007D01*
X86052993Y-84220099D01*
X86167007Y-84285925D01*
X86230590Y-84302962D01*
X85598282Y-84935269D01*
X85598282Y-84935270D01*
X85652449Y-84974624D01*
X85841782Y-85071095D01*
X86043870Y-85136757D01*
X86253754Y-85170000D01*
X86466246Y-85170000D01*
X86676127Y-85136757D01*
X86676130Y-85136757D01*
X86878217Y-85071095D01*
X87067554Y-84974622D01*
X87121716Y-84935270D01*
X87121717Y-84935270D01*
X86489408Y-84302962D01*
X86552993Y-84285925D01*
X86667007Y-84220099D01*
X86760099Y-84127007D01*
X86825925Y-84012993D01*
X86842962Y-83949408D01*
X87512356Y-84618803D01*
X87545841Y-84680126D01*
X87544926Y-84694831D01*
X87547497Y-84694555D01*
X87556401Y-84777373D01*
X87556403Y-84777380D01*
X87606645Y-84912086D01*
X87606649Y-84912093D01*
X87692809Y-85027187D01*
X87692812Y-85027190D01*
X87807906Y-85113350D01*
X87807913Y-85113354D01*
X87942620Y-85163596D01*
X87942619Y-85163596D01*
X87979986Y-85167614D01*
X88044537Y-85194353D01*
X88084385Y-85251745D01*
X88090731Y-85290904D01*
X88090731Y-87451454D01*
X90260851Y-87451454D01*
X90260851Y-85610803D01*
X90280536Y-85543764D01*
X90333340Y-85498009D01*
X90402498Y-85488065D01*
X90466054Y-85517090D01*
X90472532Y-85523122D01*
X105571139Y-100621729D01*
X105571142Y-100621733D01*
X105622788Y-100673379D01*
X105656272Y-100734703D01*
X105656268Y-100734754D01*
X105653036Y-100799377D01*
X105606597Y-100942301D01*
X105598742Y-100991897D01*
X105579500Y-101113389D01*
X105579500Y-102086611D01*
X105606598Y-102257701D01*
X105622881Y-102307816D01*
X105660128Y-102422447D01*
X105738633Y-102576524D01*
X105738768Y-102576788D01*
X105840586Y-102716928D01*
X105963072Y-102839414D01*
X106103212Y-102941232D01*
X106257555Y-103019873D01*
X106422299Y-103073402D01*
X106593389Y-103100500D01*
X106593390Y-103100500D01*
X106766610Y-103100500D01*
X106766611Y-103100500D01*
X106937701Y-103073402D01*
X107102445Y-103019873D01*
X107256788Y-102941232D01*
X107396928Y-102839414D01*
X107519414Y-102716928D01*
X107621232Y-102576788D01*
X107699873Y-102422445D01*
X107753402Y-102257701D01*
X107780500Y-102086611D01*
X107780500Y-101113389D01*
X107761258Y-100991897D01*
X107763653Y-100973358D01*
X107760993Y-100954853D01*
X107768039Y-100939423D01*
X107770213Y-100922604D01*
X107782251Y-100908302D01*
X107790018Y-100891297D01*
X107804286Y-100882127D01*
X107815209Y-100869152D01*
X107833069Y-100863629D01*
X107848796Y-100853523D01*
X107880501Y-100848964D01*
X107881961Y-100848513D01*
X107883731Y-100848500D01*
X108016269Y-100848500D01*
X108083308Y-100868185D01*
X108129063Y-100920989D01*
X108139007Y-100990147D01*
X108138742Y-100991897D01*
X108119500Y-101113389D01*
X108119500Y-102086611D01*
X108146598Y-102257701D01*
X108162881Y-102307816D01*
X108200128Y-102422447D01*
X108278633Y-102576524D01*
X108278768Y-102576788D01*
X108380586Y-102716928D01*
X108503072Y-102839414D01*
X108643212Y-102941232D01*
X108797555Y-103019873D01*
X108962299Y-103073402D01*
X109133389Y-103100500D01*
X109133390Y-103100500D01*
X109306610Y-103100500D01*
X109306611Y-103100500D01*
X109477701Y-103073402D01*
X109642445Y-103019873D01*
X109796788Y-102941232D01*
X109936928Y-102839414D01*
X110059414Y-102716928D01*
X110161232Y-102576788D01*
X110239873Y-102422445D01*
X110293402Y-102257701D01*
X110320500Y-102086611D01*
X110320500Y-101113389D01*
X110301258Y-100991897D01*
X110303653Y-100973358D01*
X110300993Y-100954853D01*
X110308039Y-100939423D01*
X110310213Y-100922604D01*
X110322251Y-100908302D01*
X110330018Y-100891297D01*
X110344286Y-100882127D01*
X110355209Y-100869152D01*
X110373069Y-100863629D01*
X110388796Y-100853523D01*
X110420501Y-100848964D01*
X110421961Y-100848513D01*
X110423731Y-100848500D01*
X110556269Y-100848500D01*
X110623308Y-100868185D01*
X110669063Y-100920989D01*
X110679007Y-100990147D01*
X110678742Y-100991897D01*
X110659500Y-101113389D01*
X110659500Y-102086611D01*
X110686598Y-102257701D01*
X110702881Y-102307816D01*
X110740128Y-102422447D01*
X110818633Y-102576524D01*
X110818768Y-102576788D01*
X110920586Y-102716928D01*
X111043072Y-102839414D01*
X111183212Y-102941232D01*
X111337555Y-103019873D01*
X111502299Y-103073402D01*
X111673389Y-103100500D01*
X111673390Y-103100500D01*
X111846610Y-103100500D01*
X111846611Y-103100500D01*
X112017701Y-103073402D01*
X112182445Y-103019873D01*
X112336788Y-102941232D01*
X112476928Y-102839414D01*
X112599414Y-102716928D01*
X112701232Y-102576788D01*
X112779873Y-102422445D01*
X112833402Y-102257701D01*
X112860500Y-102086611D01*
X112860500Y-101113389D01*
X112841258Y-100991897D01*
X112843653Y-100973358D01*
X112840993Y-100954853D01*
X112848039Y-100939423D01*
X112850213Y-100922604D01*
X112862251Y-100908302D01*
X112870018Y-100891297D01*
X112884286Y-100882127D01*
X112895209Y-100869152D01*
X112913069Y-100863629D01*
X112928796Y-100853523D01*
X112960501Y-100848964D01*
X112961961Y-100848513D01*
X112963731Y-100848500D01*
X113096269Y-100848500D01*
X113163308Y-100868185D01*
X113209063Y-100920989D01*
X113219007Y-100990147D01*
X113218742Y-100991897D01*
X113199500Y-101113389D01*
X113199500Y-102086611D01*
X113226598Y-102257701D01*
X113242881Y-102307816D01*
X113280128Y-102422447D01*
X113358633Y-102576524D01*
X113358768Y-102576788D01*
X113460586Y-102716928D01*
X113583072Y-102839414D01*
X113723212Y-102941232D01*
X113877555Y-103019873D01*
X114042299Y-103073402D01*
X114213389Y-103100500D01*
X114213390Y-103100500D01*
X114386610Y-103100500D01*
X114386611Y-103100500D01*
X114557701Y-103073402D01*
X114722445Y-103019873D01*
X114876788Y-102941232D01*
X115016928Y-102839414D01*
X115139414Y-102716928D01*
X115241232Y-102576788D01*
X115319873Y-102422445D01*
X115373402Y-102257701D01*
X115400500Y-102086611D01*
X115400500Y-101113389D01*
X115739500Y-101113389D01*
X115739500Y-102086611D01*
X115766598Y-102257701D01*
X115782881Y-102307816D01*
X115820128Y-102422447D01*
X115898633Y-102576524D01*
X115898768Y-102576788D01*
X116000586Y-102716928D01*
X116123072Y-102839414D01*
X116263212Y-102941232D01*
X116417555Y-103019873D01*
X116582299Y-103073402D01*
X116753389Y-103100500D01*
X116753390Y-103100500D01*
X116926610Y-103100500D01*
X116926611Y-103100500D01*
X117097701Y-103073402D01*
X117262445Y-103019873D01*
X117416788Y-102941232D01*
X117556928Y-102839414D01*
X117679414Y-102716928D01*
X117781232Y-102576788D01*
X117859873Y-102422445D01*
X117913402Y-102257701D01*
X117940500Y-102086611D01*
X117940500Y-101113389D01*
X118279500Y-101113389D01*
X118279500Y-102086611D01*
X118306598Y-102257701D01*
X118322881Y-102307816D01*
X118360128Y-102422447D01*
X118438633Y-102576524D01*
X118438768Y-102576788D01*
X118540586Y-102716928D01*
X118663072Y-102839414D01*
X118803212Y-102941232D01*
X118957555Y-103019873D01*
X119122299Y-103073402D01*
X119293389Y-103100500D01*
X119293390Y-103100500D01*
X119466610Y-103100500D01*
X119466611Y-103100500D01*
X119637701Y-103073402D01*
X119802445Y-103019873D01*
X119956788Y-102941232D01*
X120096928Y-102839414D01*
X120219414Y-102716928D01*
X120321232Y-102576788D01*
X120399873Y-102422445D01*
X120453402Y-102257701D01*
X120480500Y-102086611D01*
X120480500Y-101113389D01*
X120819500Y-101113389D01*
X120819500Y-102086611D01*
X120846598Y-102257701D01*
X120862881Y-102307816D01*
X120900128Y-102422447D01*
X120978633Y-102576524D01*
X120978768Y-102576788D01*
X121080586Y-102716928D01*
X121203072Y-102839414D01*
X121343212Y-102941232D01*
X121497555Y-103019873D01*
X121662299Y-103073402D01*
X121833389Y-103100500D01*
X121833390Y-103100500D01*
X122006610Y-103100500D01*
X122006611Y-103100500D01*
X122177701Y-103073402D01*
X122342445Y-103019873D01*
X122496788Y-102941232D01*
X122636928Y-102839414D01*
X122759414Y-102716928D01*
X122861232Y-102576788D01*
X122939873Y-102422445D01*
X122993402Y-102257701D01*
X123020500Y-102086611D01*
X123020500Y-101113389D01*
X123359500Y-101113389D01*
X123359500Y-102086611D01*
X123386598Y-102257701D01*
X123402881Y-102307816D01*
X123440128Y-102422447D01*
X123518633Y-102576524D01*
X123518768Y-102576788D01*
X123620586Y-102716928D01*
X123743072Y-102839414D01*
X123883212Y-102941232D01*
X124037555Y-103019873D01*
X124202299Y-103073402D01*
X124373389Y-103100500D01*
X124373390Y-103100500D01*
X124546610Y-103100500D01*
X124546611Y-103100500D01*
X124717701Y-103073402D01*
X124882445Y-103019873D01*
X125036788Y-102941232D01*
X125176928Y-102839414D01*
X125299414Y-102716928D01*
X125401232Y-102576788D01*
X125479873Y-102422445D01*
X125533402Y-102257701D01*
X125560500Y-102086611D01*
X125560500Y-101113389D01*
X125899500Y-101113389D01*
X125899500Y-102086611D01*
X125926598Y-102257701D01*
X125942881Y-102307816D01*
X125980128Y-102422447D01*
X126058633Y-102576524D01*
X126058768Y-102576788D01*
X126160586Y-102716928D01*
X126283072Y-102839414D01*
X126423212Y-102941232D01*
X126577555Y-103019873D01*
X126742299Y-103073402D01*
X126913389Y-103100500D01*
X126913390Y-103100500D01*
X127086610Y-103100500D01*
X127086611Y-103100500D01*
X127257701Y-103073402D01*
X127422445Y-103019873D01*
X127576788Y-102941232D01*
X127716928Y-102839414D01*
X127839414Y-102716928D01*
X127941232Y-102576788D01*
X128019873Y-102422445D01*
X128073402Y-102257701D01*
X128100500Y-102086611D01*
X128100500Y-101117069D01*
X128436780Y-101117069D01*
X128436780Y-102090290D01*
X128463294Y-102257697D01*
X128463878Y-102261381D01*
X128517407Y-102426125D01*
X128596048Y-102580468D01*
X128697866Y-102720608D01*
X128820352Y-102843094D01*
X128960492Y-102944912D01*
X129114835Y-103023553D01*
X129279579Y-103077082D01*
X129450669Y-103104180D01*
X129450670Y-103104180D01*
X129623890Y-103104180D01*
X129623891Y-103104180D01*
X129794981Y-103077082D01*
X129959725Y-103023553D01*
X130114068Y-102944912D01*
X130254208Y-102843094D01*
X130376694Y-102720608D01*
X130478512Y-102580468D01*
X130557153Y-102426125D01*
X130610682Y-102261381D01*
X130637780Y-102090291D01*
X130637780Y-101117069D01*
X130976780Y-101117069D01*
X130976780Y-102090290D01*
X131003294Y-102257697D01*
X131003878Y-102261381D01*
X131057407Y-102426125D01*
X131136048Y-102580468D01*
X131237866Y-102720608D01*
X131360352Y-102843094D01*
X131500492Y-102944912D01*
X131654835Y-103023553D01*
X131819579Y-103077082D01*
X131990669Y-103104180D01*
X131990670Y-103104180D01*
X132163890Y-103104180D01*
X132163891Y-103104180D01*
X132334981Y-103077082D01*
X132499725Y-103023553D01*
X132654068Y-102944912D01*
X132794208Y-102843094D01*
X132916694Y-102720608D01*
X133018512Y-102580468D01*
X133097153Y-102426125D01*
X133150682Y-102261381D01*
X133177780Y-102090291D01*
X133177780Y-101117069D01*
X133150682Y-100945979D01*
X133097153Y-100781235D01*
X133018512Y-100626892D01*
X132916694Y-100486752D01*
X132794208Y-100364266D01*
X132654068Y-100262448D01*
X132499725Y-100183807D01*
X132334981Y-100130278D01*
X132334979Y-100130277D01*
X132334978Y-100130277D01*
X132203551Y-100109461D01*
X132163891Y-100103180D01*
X131990669Y-100103180D01*
X131951008Y-100109461D01*
X131819582Y-100130277D01*
X131654832Y-100183808D01*
X131500491Y-100262448D01*
X131420536Y-100320539D01*
X131360352Y-100364266D01*
X131360350Y-100364268D01*
X131360349Y-100364268D01*
X131237868Y-100486749D01*
X131237868Y-100486750D01*
X131237866Y-100486752D01*
X131220870Y-100510145D01*
X131136048Y-100626891D01*
X131057408Y-100781232D01*
X131003877Y-100945982D01*
X130976780Y-101117069D01*
X130637780Y-101117069D01*
X130610682Y-100945979D01*
X130557153Y-100781235D01*
X130478512Y-100626892D01*
X130376694Y-100486752D01*
X130254208Y-100364266D01*
X130114068Y-100262448D01*
X129959725Y-100183807D01*
X129794981Y-100130278D01*
X129794979Y-100130277D01*
X129794978Y-100130277D01*
X129663551Y-100109461D01*
X129623891Y-100103180D01*
X129450669Y-100103180D01*
X129411008Y-100109461D01*
X129279582Y-100130277D01*
X129114832Y-100183808D01*
X128960491Y-100262448D01*
X128880536Y-100320539D01*
X128820352Y-100364266D01*
X128820350Y-100364268D01*
X128820349Y-100364268D01*
X128697868Y-100486749D01*
X128697868Y-100486750D01*
X128697866Y-100486752D01*
X128680870Y-100510145D01*
X128596048Y-100626891D01*
X128517408Y-100781232D01*
X128463877Y-100945982D01*
X128436780Y-101117069D01*
X128100500Y-101117069D01*
X128100500Y-101113389D01*
X128073402Y-100942299D01*
X128019873Y-100777555D01*
X127941232Y-100623212D01*
X127839414Y-100483072D01*
X127716928Y-100360586D01*
X127576788Y-100258768D01*
X127429669Y-100183808D01*
X127422447Y-100180128D01*
X127422446Y-100180127D01*
X127422445Y-100180127D01*
X127257701Y-100126598D01*
X127257699Y-100126597D01*
X127257698Y-100126597D01*
X127126271Y-100105781D01*
X127086611Y-100099500D01*
X126913389Y-100099500D01*
X126873728Y-100105781D01*
X126742302Y-100126597D01*
X126577552Y-100180128D01*
X126423211Y-100258768D01*
X126343256Y-100316859D01*
X126283072Y-100360586D01*
X126283070Y-100360588D01*
X126283069Y-100360588D01*
X126160588Y-100483069D01*
X126160588Y-100483070D01*
X126160586Y-100483072D01*
X126116859Y-100543256D01*
X126058768Y-100623211D01*
X125980128Y-100777552D01*
X125926597Y-100942302D01*
X125918742Y-100991897D01*
X125899500Y-101113389D01*
X125560500Y-101113389D01*
X125533402Y-100942299D01*
X125479873Y-100777555D01*
X125401232Y-100623212D01*
X125299414Y-100483072D01*
X125176928Y-100360586D01*
X125036788Y-100258768D01*
X124889669Y-100183808D01*
X124882447Y-100180128D01*
X124882446Y-100180127D01*
X124882445Y-100180127D01*
X124717701Y-100126598D01*
X124717699Y-100126597D01*
X124717698Y-100126597D01*
X124586271Y-100105781D01*
X124546611Y-100099500D01*
X124373389Y-100099500D01*
X124333728Y-100105781D01*
X124202302Y-100126597D01*
X124037552Y-100180128D01*
X123883211Y-100258768D01*
X123803256Y-100316859D01*
X123743072Y-100360586D01*
X123743070Y-100360588D01*
X123743069Y-100360588D01*
X123620588Y-100483069D01*
X123620588Y-100483070D01*
X123620586Y-100483072D01*
X123576859Y-100543256D01*
X123518768Y-100623211D01*
X123440128Y-100777552D01*
X123386597Y-100942302D01*
X123378742Y-100991897D01*
X123359500Y-101113389D01*
X123020500Y-101113389D01*
X122993402Y-100942299D01*
X122939873Y-100777555D01*
X122861232Y-100623212D01*
X122759414Y-100483072D01*
X122636928Y-100360586D01*
X122496788Y-100258768D01*
X122349669Y-100183808D01*
X122342447Y-100180128D01*
X122342446Y-100180127D01*
X122342445Y-100180127D01*
X122177701Y-100126598D01*
X122177699Y-100126597D01*
X122177698Y-100126597D01*
X122046271Y-100105781D01*
X122006611Y-100099500D01*
X121833389Y-100099500D01*
X121793728Y-100105781D01*
X121662302Y-100126597D01*
X121497552Y-100180128D01*
X121343211Y-100258768D01*
X121263256Y-100316859D01*
X121203072Y-100360586D01*
X121203070Y-100360588D01*
X121203069Y-100360588D01*
X121080588Y-100483069D01*
X121080588Y-100483070D01*
X121080586Y-100483072D01*
X121036859Y-100543256D01*
X120978768Y-100623211D01*
X120900128Y-100777552D01*
X120846597Y-100942302D01*
X120838742Y-100991897D01*
X120819500Y-101113389D01*
X120480500Y-101113389D01*
X120453402Y-100942299D01*
X120399873Y-100777555D01*
X120321232Y-100623212D01*
X120219414Y-100483072D01*
X120096928Y-100360586D01*
X119956788Y-100258768D01*
X119809669Y-100183808D01*
X119802447Y-100180128D01*
X119802446Y-100180127D01*
X119802445Y-100180127D01*
X119637701Y-100126598D01*
X119637699Y-100126597D01*
X119637698Y-100126597D01*
X119506271Y-100105781D01*
X119466611Y-100099500D01*
X119293389Y-100099500D01*
X119253728Y-100105781D01*
X119122302Y-100126597D01*
X118957552Y-100180128D01*
X118803211Y-100258768D01*
X118723256Y-100316859D01*
X118663072Y-100360586D01*
X118663070Y-100360588D01*
X118663069Y-100360588D01*
X118540588Y-100483069D01*
X118540588Y-100483070D01*
X118540586Y-100483072D01*
X118496859Y-100543256D01*
X118438768Y-100623211D01*
X118360128Y-100777552D01*
X118306597Y-100942302D01*
X118298742Y-100991897D01*
X118279500Y-101113389D01*
X117940500Y-101113389D01*
X117913402Y-100942299D01*
X117859873Y-100777555D01*
X117781232Y-100623212D01*
X117679414Y-100483072D01*
X117556928Y-100360586D01*
X117416788Y-100258768D01*
X117269669Y-100183808D01*
X117262447Y-100180128D01*
X117262446Y-100180127D01*
X117262445Y-100180127D01*
X117097701Y-100126598D01*
X117097699Y-100126597D01*
X117097698Y-100126597D01*
X116966271Y-100105781D01*
X116926611Y-100099500D01*
X116753389Y-100099500D01*
X116713728Y-100105781D01*
X116582302Y-100126597D01*
X116417552Y-100180128D01*
X116263211Y-100258768D01*
X116183256Y-100316859D01*
X116123072Y-100360586D01*
X116123070Y-100360588D01*
X116123069Y-100360588D01*
X116000588Y-100483069D01*
X116000588Y-100483070D01*
X116000586Y-100483072D01*
X115956859Y-100543256D01*
X115898768Y-100623211D01*
X115820128Y-100777552D01*
X115766597Y-100942302D01*
X115758742Y-100991897D01*
X115739500Y-101113389D01*
X115400500Y-101113389D01*
X115373402Y-100942299D01*
X115319873Y-100777555D01*
X115241232Y-100623212D01*
X115139414Y-100483072D01*
X115016928Y-100360586D01*
X115007582Y-100353796D01*
X114976613Y-100331295D01*
X114933948Y-100275965D01*
X114925500Y-100230978D01*
X114925500Y-100161393D01*
X114925499Y-100161389D01*
X114901464Y-100040555D01*
X114901463Y-100040548D01*
X114854311Y-99926714D01*
X114854310Y-99926713D01*
X114854307Y-99926707D01*
X114785858Y-99824267D01*
X114785855Y-99824263D01*
X114698736Y-99737144D01*
X114698732Y-99737141D01*
X114596292Y-99668692D01*
X114596283Y-99668687D01*
X114482454Y-99621538D01*
X114482455Y-99621538D01*
X114482452Y-99621537D01*
X114482448Y-99621536D01*
X114482444Y-99621535D01*
X114361610Y-99597500D01*
X114361606Y-99597500D01*
X106367452Y-99597500D01*
X106300413Y-99577815D01*
X106279771Y-99561181D01*
X102009795Y-95291205D01*
X101976310Y-95229882D01*
X101981294Y-95160190D01*
X102023166Y-95104257D01*
X102081970Y-95082091D01*
X102081760Y-95080762D01*
X102257582Y-95052914D01*
X102257585Y-95052913D01*
X102304211Y-95037763D01*
X102304211Y-95037762D01*
X101646448Y-94380000D01*
X101652661Y-94380000D01*
X101754394Y-94352741D01*
X101845606Y-94300080D01*
X101920080Y-94225606D01*
X101972741Y-94134394D01*
X102000000Y-94032661D01*
X102000000Y-94026448D01*
X102754592Y-94781041D01*
X102754593Y-94781041D01*
X102839033Y-94696601D01*
X102940804Y-94556524D01*
X103019408Y-94402257D01*
X103072914Y-94237584D01*
X103100000Y-94066571D01*
X103100000Y-93893428D01*
X112800000Y-93893428D01*
X112800000Y-94066571D01*
X112827085Y-94237584D01*
X112880591Y-94402257D01*
X112959195Y-94556524D01*
X113060967Y-94696602D01*
X113145406Y-94781041D01*
X113900000Y-94026447D01*
X113900000Y-94032661D01*
X113927259Y-94134394D01*
X113979920Y-94225606D01*
X114054394Y-94300080D01*
X114145606Y-94352741D01*
X114247339Y-94380000D01*
X114253552Y-94380000D01*
X113595787Y-95037762D01*
X113642419Y-95052914D01*
X113813429Y-95080000D01*
X114786571Y-95080000D01*
X114957582Y-95052914D01*
X114957585Y-95052913D01*
X115004211Y-95037763D01*
X115004211Y-95037762D01*
X114346448Y-94380000D01*
X114352661Y-94380000D01*
X114454394Y-94352741D01*
X114545606Y-94300080D01*
X114620080Y-94225606D01*
X114672741Y-94134394D01*
X114700000Y-94032661D01*
X114700000Y-94026448D01*
X115454592Y-94781041D01*
X115454593Y-94781041D01*
X115539033Y-94696601D01*
X115640804Y-94556524D01*
X115719408Y-94402257D01*
X115772914Y-94237584D01*
X115800000Y-94066571D01*
X115800000Y-93893428D01*
X115772914Y-93722415D01*
X115719408Y-93557742D01*
X115640804Y-93403475D01*
X115539032Y-93263397D01*
X115454593Y-93178958D01*
X115454592Y-93178958D01*
X114700000Y-93933550D01*
X114700000Y-93927339D01*
X114672741Y-93825606D01*
X114620080Y-93734394D01*
X114545606Y-93659920D01*
X114454394Y-93607259D01*
X114352661Y-93580000D01*
X114346449Y-93580000D01*
X115004211Y-92922236D01*
X115004211Y-92922235D01*
X114957586Y-92907086D01*
X114786571Y-92880000D01*
X113813429Y-92880000D01*
X113642414Y-92907086D01*
X113595788Y-92922235D01*
X113595788Y-92922236D01*
X114253552Y-93580000D01*
X114247339Y-93580000D01*
X114145606Y-93607259D01*
X114054394Y-93659920D01*
X113979920Y-93734394D01*
X113927259Y-93825606D01*
X113900000Y-93927339D01*
X113900000Y-93933552D01*
X113145406Y-93178958D01*
X113060966Y-93263398D01*
X112959198Y-93403471D01*
X112880591Y-93557742D01*
X112827085Y-93722415D01*
X112800000Y-93893428D01*
X103100000Y-93893428D01*
X103072914Y-93722415D01*
X103019408Y-93557742D01*
X102940804Y-93403475D01*
X102839032Y-93263397D01*
X102754593Y-93178958D01*
X102754592Y-93178958D01*
X102000000Y-93933550D01*
X102000000Y-93927339D01*
X101972741Y-93825606D01*
X101920080Y-93734394D01*
X101845606Y-93659920D01*
X101754394Y-93607259D01*
X101652661Y-93580000D01*
X101646449Y-93580000D01*
X102304211Y-92922236D01*
X102304211Y-92922235D01*
X102257586Y-92907086D01*
X102086571Y-92880000D01*
X101113429Y-92880000D01*
X100942414Y-92907086D01*
X100895788Y-92922235D01*
X100895788Y-92922236D01*
X101553552Y-93580000D01*
X101547339Y-93580000D01*
X101445606Y-93607259D01*
X101354394Y-93659920D01*
X101279920Y-93734394D01*
X101227259Y-93825606D01*
X101200000Y-93927339D01*
X101200000Y-93933552D01*
X100445406Y-93178958D01*
X100360968Y-93263396D01*
X100286827Y-93365443D01*
X100231497Y-93408108D01*
X100161883Y-93414087D01*
X100100089Y-93381481D01*
X100098828Y-93380238D01*
X98071979Y-91353389D01*
X100099500Y-91353389D01*
X100099500Y-91526611D01*
X100126598Y-91697701D01*
X100180127Y-91862445D01*
X100258768Y-92016788D01*
X100360586Y-92156928D01*
X100483072Y-92279414D01*
X100623212Y-92381232D01*
X100777555Y-92459873D01*
X100942299Y-92513402D01*
X101113389Y-92540500D01*
X101113390Y-92540500D01*
X102086610Y-92540500D01*
X102086611Y-92540500D01*
X102257701Y-92513402D01*
X102422445Y-92459873D01*
X102576788Y-92381232D01*
X102716928Y-92279414D01*
X102839414Y-92156928D01*
X102941232Y-92016788D01*
X103019873Y-91862445D01*
X103073402Y-91697701D01*
X103100500Y-91526611D01*
X103100500Y-91353389D01*
X103073402Y-91182299D01*
X103019873Y-91017555D01*
X102941232Y-90863212D01*
X102839414Y-90723072D01*
X102716928Y-90600586D01*
X102576788Y-90498768D01*
X102422445Y-90420127D01*
X102257701Y-90366598D01*
X102257699Y-90366597D01*
X102257698Y-90366597D01*
X102126271Y-90345781D01*
X102086611Y-90339500D01*
X101113389Y-90339500D01*
X101073728Y-90345781D01*
X100942302Y-90366597D01*
X100777552Y-90420128D01*
X100623211Y-90498768D01*
X100543256Y-90556859D01*
X100483072Y-90600586D01*
X100483070Y-90600588D01*
X100483069Y-90600588D01*
X100360588Y-90723069D01*
X100360588Y-90723070D01*
X100360586Y-90723072D01*
X100320547Y-90778181D01*
X100258768Y-90863211D01*
X100180128Y-91017552D01*
X100126597Y-91182302D01*
X100102616Y-91333713D01*
X100099500Y-91353389D01*
X98071979Y-91353389D01*
X95531979Y-88813389D01*
X100099500Y-88813389D01*
X100099500Y-88986611D01*
X100126598Y-89157701D01*
X100180127Y-89322445D01*
X100258768Y-89476788D01*
X100360586Y-89616928D01*
X100483072Y-89739414D01*
X100623212Y-89841232D01*
X100777555Y-89919873D01*
X100942299Y-89973402D01*
X101113389Y-90000500D01*
X101113390Y-90000500D01*
X102086610Y-90000500D01*
X102086611Y-90000500D01*
X102257701Y-89973402D01*
X102422445Y-89919873D01*
X102576788Y-89841232D01*
X102716928Y-89739414D01*
X102839414Y-89616928D01*
X102941232Y-89476788D01*
X103019873Y-89322445D01*
X103073402Y-89157701D01*
X103100500Y-88986611D01*
X103100500Y-88813389D01*
X103073402Y-88642299D01*
X103019873Y-88477555D01*
X102941232Y-88323212D01*
X102839414Y-88183072D01*
X102716928Y-88060586D01*
X102576788Y-87958768D01*
X102422445Y-87880127D01*
X102257701Y-87826598D01*
X102257699Y-87826597D01*
X102257698Y-87826597D01*
X102126271Y-87805781D01*
X102086611Y-87799500D01*
X101113389Y-87799500D01*
X101073728Y-87805781D01*
X100942302Y-87826597D01*
X100777552Y-87880128D01*
X100623211Y-87958768D01*
X100543256Y-88016859D01*
X100483072Y-88060586D01*
X100483070Y-88060588D01*
X100483069Y-88060588D01*
X100360588Y-88183069D01*
X100360588Y-88183070D01*
X100360586Y-88183072D01*
X100320547Y-88238181D01*
X100258768Y-88323211D01*
X100180128Y-88477552D01*
X100126597Y-88642302D01*
X100106101Y-88771714D01*
X100099500Y-88813389D01*
X95531979Y-88813389D01*
X90876619Y-84158029D01*
X90843134Y-84096706D01*
X90840300Y-84070348D01*
X90840300Y-82669452D01*
X90859985Y-82602413D01*
X90912789Y-82556658D01*
X90981947Y-82546714D01*
X91045503Y-82575739D01*
X91051981Y-82581771D01*
X93849116Y-85378906D01*
X93849145Y-85378937D01*
X93939363Y-85469155D01*
X93939367Y-85469158D01*
X94041807Y-85537607D01*
X94041816Y-85537612D01*
X94062839Y-85546320D01*
X94155648Y-85584763D01*
X94216071Y-85596781D01*
X94276493Y-85608800D01*
X94276494Y-85608800D01*
X98126731Y-85608800D01*
X98193770Y-85628485D01*
X98239525Y-85681289D01*
X98250731Y-85732800D01*
X98250731Y-87451454D01*
X100420851Y-87451454D01*
X100420851Y-87397572D01*
X100440536Y-87330533D01*
X100493340Y-87284778D01*
X100562498Y-87274834D01*
X100617737Y-87297255D01*
X100623207Y-87301229D01*
X100623209Y-87301230D01*
X100623212Y-87301232D01*
X100777555Y-87379873D01*
X100942299Y-87433402D01*
X101113389Y-87460500D01*
X101113390Y-87460500D01*
X102086610Y-87460500D01*
X102086611Y-87460500D01*
X102257701Y-87433402D01*
X102422445Y-87379873D01*
X102576788Y-87301232D01*
X102716928Y-87199414D01*
X102839414Y-87076928D01*
X102941232Y-86936788D01*
X103019873Y-86782445D01*
X103073402Y-86617701D01*
X103100500Y-86446611D01*
X103100500Y-86273389D01*
X103073402Y-86102299D01*
X103019873Y-85937555D01*
X102944228Y-85789093D01*
X102931333Y-85720426D01*
X102957609Y-85655685D01*
X103014716Y-85615428D01*
X103054714Y-85608800D01*
X111236435Y-85608800D01*
X111303474Y-85628485D01*
X111324136Y-85645139D01*
X112031633Y-86352995D01*
X112432651Y-86754217D01*
X112432650Y-86754217D01*
X112437099Y-86758668D01*
X112437142Y-86758733D01*
X112480878Y-86802469D01*
X112480879Y-86802471D01*
X112524139Y-86845753D01*
X112524266Y-86845857D01*
X112524267Y-86845858D01*
X112576174Y-86880541D01*
X112626574Y-86914236D01*
X112626647Y-86914266D01*
X112626714Y-86914311D01*
X112683566Y-86937860D01*
X112740396Y-86961417D01*
X112740402Y-86961418D01*
X112740537Y-86961458D01*
X112740548Y-86961463D01*
X112754917Y-86964321D01*
X112798829Y-86973056D01*
X112798852Y-86973060D01*
X112861234Y-86985485D01*
X112861239Y-86985485D01*
X112861390Y-86985500D01*
X112861394Y-86985500D01*
X112920847Y-86985500D01*
X112920879Y-86985500D01*
X112931005Y-86985502D01*
X112998040Y-87005200D01*
X113031295Y-87036613D01*
X113060586Y-87076928D01*
X113183072Y-87199414D01*
X113323212Y-87301232D01*
X113477555Y-87379873D01*
X113642299Y-87433402D01*
X113813389Y-87460500D01*
X113813390Y-87460500D01*
X114786610Y-87460500D01*
X114786611Y-87460500D01*
X114957701Y-87433402D01*
X115122445Y-87379873D01*
X115276788Y-87301232D01*
X115416928Y-87199414D01*
X115539414Y-87076928D01*
X115641232Y-86936788D01*
X115719873Y-86782445D01*
X115773402Y-86617701D01*
X115800500Y-86446611D01*
X115800500Y-86273389D01*
X115773402Y-86102299D01*
X115719873Y-85937555D01*
X115641232Y-85783212D01*
X115539414Y-85643072D01*
X115416928Y-85520586D01*
X115276788Y-85418768D01*
X115122445Y-85340127D01*
X114957701Y-85286598D01*
X114957699Y-85286597D01*
X114957698Y-85286597D01*
X114826271Y-85265781D01*
X114786611Y-85259500D01*
X113813389Y-85259500D01*
X113773728Y-85265781D01*
X113642302Y-85286597D01*
X113477552Y-85340128D01*
X113323211Y-85418768D01*
X113183066Y-85520590D01*
X113163399Y-85540257D01*
X113102075Y-85573741D01*
X113032384Y-85568755D01*
X112988017Y-85540233D01*
X112037434Y-84589168D01*
X112032902Y-84584634D01*
X112032858Y-84584567D01*
X111989120Y-84540829D01*
X111989117Y-84540826D01*
X111989116Y-84540824D01*
X111945855Y-84497542D01*
X111945740Y-84497446D01*
X111918800Y-84479446D01*
X111893851Y-84462775D01*
X111893098Y-84462272D01*
X111843426Y-84429064D01*
X111843352Y-84429033D01*
X111843286Y-84428989D01*
X111784722Y-84404730D01*
X111784720Y-84404729D01*
X111784705Y-84404722D01*
X111784705Y-84404723D01*
X111783393Y-84404179D01*
X111782296Y-84403724D01*
X111729604Y-84381884D01*
X111729562Y-84381875D01*
X111729515Y-84381856D01*
X111729456Y-84381838D01*
X111729452Y-84381837D01*
X111669321Y-84369876D01*
X111669186Y-84369849D01*
X111608766Y-84357815D01*
X111608681Y-84357814D01*
X111608606Y-84357800D01*
X111608294Y-84357800D01*
X111549146Y-84357800D01*
X111549112Y-84357799D01*
X111479708Y-84357782D01*
X111479341Y-84357800D01*
X94648552Y-84357800D01*
X94581513Y-84338115D01*
X94560871Y-84321481D01*
X92948471Y-82709081D01*
X92914986Y-82647758D01*
X92919970Y-82578066D01*
X92961842Y-82522133D01*
X93027306Y-82497716D01*
X93036152Y-82497400D01*
X104688394Y-82497400D01*
X105023639Y-82497400D01*
X105090678Y-82517085D01*
X105111321Y-82533720D01*
X105148961Y-82571361D01*
X105148965Y-82571364D01*
X105296446Y-82669909D01*
X105296459Y-82669916D01*
X105391014Y-82709081D01*
X105460334Y-82737794D01*
X105460336Y-82737794D01*
X105460341Y-82737796D01*
X105634304Y-82772399D01*
X105634307Y-82772400D01*
X105634309Y-82772400D01*
X105811693Y-82772400D01*
X105811694Y-82772399D01*
X105869682Y-82760864D01*
X105985658Y-82737796D01*
X105985661Y-82737794D01*
X105985666Y-82737794D01*
X106149547Y-82669913D01*
X106297035Y-82571364D01*
X106422464Y-82445935D01*
X106521013Y-82298447D01*
X106588894Y-82134566D01*
X106623500Y-81960591D01*
X106623500Y-81783209D01*
X106623500Y-81783206D01*
X106623499Y-81783204D01*
X106588896Y-81609241D01*
X106588893Y-81609232D01*
X106521016Y-81445359D01*
X106521009Y-81445346D01*
X106422464Y-81297865D01*
X106422461Y-81297861D01*
X106297038Y-81172438D01*
X106297034Y-81172435D01*
X106149553Y-81073890D01*
X106149540Y-81073883D01*
X105985667Y-81006006D01*
X105985658Y-81006003D01*
X105811694Y-80971400D01*
X105811691Y-80971400D01*
X105634309Y-80971400D01*
X105634306Y-80971400D01*
X105460341Y-81006003D01*
X105460332Y-81006006D01*
X105296459Y-81073883D01*
X105296446Y-81073890D01*
X105148965Y-81172435D01*
X105148961Y-81172438D01*
X105111321Y-81210080D01*
X105049999Y-81243566D01*
X105023639Y-81246400D01*
X92342353Y-81246400D01*
X92275314Y-81226715D01*
X92254672Y-81210081D01*
X90242428Y-79197837D01*
X90208943Y-79136514D01*
X90212178Y-79071837D01*
X90217246Y-79056243D01*
X90250500Y-78846287D01*
X90250500Y-78633713D01*
X90217246Y-78423757D01*
X90163329Y-78257818D01*
X90161334Y-78187977D01*
X90197414Y-78128144D01*
X90260115Y-78097316D01*
X90281260Y-78095500D01*
X100218740Y-78095500D01*
X100285779Y-78115185D01*
X100331534Y-78167989D01*
X100341478Y-78237147D01*
X100336671Y-78257818D01*
X100282753Y-78423759D01*
X100249500Y-78633713D01*
X100249500Y-78846286D01*
X100282753Y-79056239D01*
X100348444Y-79258414D01*
X100444951Y-79447820D01*
X100569890Y-79619786D01*
X100720213Y-79770109D01*
X100892179Y-79895048D01*
X100892181Y-79895049D01*
X100892184Y-79895051D01*
X101081588Y-79991557D01*
X101283757Y-80057246D01*
X101493713Y-80090500D01*
X101493714Y-80090500D01*
X101706286Y-80090500D01*
X101706287Y-80090500D01*
X101916243Y-80057246D01*
X102118412Y-79991557D01*
X102307816Y-79895051D01*
X102397682Y-79829760D01*
X102479786Y-79770109D01*
X102479788Y-79770106D01*
X102479792Y-79770104D01*
X102630104Y-79619792D01*
X102630106Y-79619788D01*
X102630109Y-79619786D01*
X102755048Y-79447820D01*
X102755047Y-79447820D01*
X102755051Y-79447816D01*
X102851557Y-79258412D01*
X102917246Y-79056243D01*
X102950500Y-78846287D01*
X102950500Y-78633713D01*
X102917246Y-78423757D01*
X102863329Y-78257818D01*
X102861334Y-78187977D01*
X102897414Y-78128144D01*
X102960115Y-78097316D01*
X102981260Y-78095500D01*
X127104607Y-78095500D01*
X127165029Y-78083481D01*
X127225452Y-78071463D01*
X127258792Y-78057652D01*
X127339286Y-78024312D01*
X127390509Y-77990084D01*
X127441733Y-77955858D01*
X127528858Y-77868733D01*
X127528859Y-77868731D01*
X127535925Y-77861665D01*
X127535928Y-77861661D01*
X133164676Y-72232912D01*
X133225997Y-72199429D01*
X133295689Y-72204413D01*
X133351620Y-72246282D01*
X133412454Y-72327546D01*
X133458643Y-72362123D01*
X133527664Y-72413793D01*
X133527671Y-72413797D01*
X133572618Y-72430561D01*
X133662517Y-72464091D01*
X133722127Y-72470500D01*
X133732685Y-72470499D01*
X133799723Y-72490179D01*
X133820372Y-72506818D01*
X134490591Y-73177037D01*
X134427007Y-73194075D01*
X134312993Y-73259901D01*
X134219901Y-73352993D01*
X134154075Y-73467007D01*
X134137037Y-73530591D01*
X133504728Y-72898282D01*
X133504727Y-72898282D01*
X133465380Y-72952439D01*
X133368904Y-73141782D01*
X133303242Y-73343869D01*
X133303242Y-73343872D01*
X133270000Y-73553753D01*
X133270000Y-73766246D01*
X133303242Y-73976127D01*
X133303242Y-73976130D01*
X133368904Y-74178217D01*
X133465375Y-74367550D01*
X133504728Y-74421716D01*
X134137037Y-73789408D01*
X134154075Y-73852993D01*
X134219901Y-73967007D01*
X134312993Y-74060099D01*
X134427007Y-74125925D01*
X134490590Y-74142962D01*
X133858282Y-74775269D01*
X133858282Y-74775270D01*
X133912452Y-74814626D01*
X133912451Y-74814626D01*
X133921495Y-74819234D01*
X133972292Y-74867208D01*
X133989087Y-74935029D01*
X133966550Y-75001164D01*
X133921499Y-75040202D01*
X133912182Y-75044949D01*
X133740213Y-75169890D01*
X133589890Y-75320213D01*
X133464951Y-75492179D01*
X133368444Y-75681585D01*
X133302753Y-75883760D01*
X133269500Y-76093713D01*
X133269500Y-76306286D01*
X133302753Y-76516241D01*
X133307821Y-76531837D01*
X133309816Y-76601678D01*
X133277571Y-76657837D01*
X121697229Y-88238181D01*
X121635906Y-88271666D01*
X121609548Y-88274500D01*
X115669022Y-88274500D01*
X115601983Y-88254815D01*
X115568705Y-88223387D01*
X115539414Y-88183072D01*
X115416930Y-88060588D01*
X115416928Y-88060586D01*
X115276788Y-87958768D01*
X115122445Y-87880127D01*
X114957701Y-87826598D01*
X114957699Y-87826597D01*
X114957698Y-87826597D01*
X114826271Y-87805781D01*
X114786611Y-87799500D01*
X113813389Y-87799500D01*
X113773728Y-87805781D01*
X113642302Y-87826597D01*
X113477552Y-87880128D01*
X113323211Y-87958768D01*
X113243256Y-88016859D01*
X113183072Y-88060586D01*
X113183070Y-88060588D01*
X113183069Y-88060588D01*
X113060588Y-88183069D01*
X113060588Y-88183070D01*
X113060586Y-88183072D01*
X113020547Y-88238181D01*
X112958768Y-88323211D01*
X112880128Y-88477552D01*
X112826597Y-88642302D01*
X112806101Y-88771714D01*
X112799500Y-88813389D01*
X112799500Y-88986611D01*
X112826598Y-89157701D01*
X112880127Y-89322445D01*
X112958768Y-89476788D01*
X113060586Y-89616928D01*
X113183072Y-89739414D01*
X113323212Y-89841232D01*
X113477555Y-89919873D01*
X113642299Y-89973402D01*
X113813389Y-90000500D01*
X113813390Y-90000500D01*
X114786610Y-90000500D01*
X114786611Y-90000500D01*
X114957701Y-89973402D01*
X115122445Y-89919873D01*
X115276788Y-89841232D01*
X115416928Y-89739414D01*
X115539414Y-89616928D01*
X115568705Y-89576613D01*
X115624035Y-89533948D01*
X115669022Y-89525500D01*
X121981607Y-89525500D01*
X122042029Y-89513481D01*
X122102452Y-89501463D01*
X122135792Y-89487652D01*
X122216286Y-89454312D01*
X122267509Y-89420084D01*
X122270009Y-89418414D01*
X122280271Y-89411556D01*
X122318733Y-89385858D01*
X122405858Y-89298733D01*
X122405859Y-89298731D01*
X122412925Y-89291665D01*
X122412928Y-89291661D01*
X133057819Y-78646770D01*
X133119142Y-78613285D01*
X133188834Y-78618269D01*
X133244767Y-78660141D01*
X133269184Y-78725605D01*
X133269500Y-78734451D01*
X133269500Y-78846286D01*
X133302753Y-79056241D01*
X133307821Y-79071837D01*
X133309816Y-79141678D01*
X133277571Y-79197837D01*
X121697229Y-90778181D01*
X121635906Y-90811666D01*
X121609548Y-90814500D01*
X115669022Y-90814500D01*
X115601983Y-90794815D01*
X115568705Y-90763387D01*
X115539414Y-90723072D01*
X115416930Y-90600588D01*
X115416928Y-90600586D01*
X115276788Y-90498768D01*
X115122445Y-90420127D01*
X114957701Y-90366598D01*
X114957699Y-90366597D01*
X114957698Y-90366597D01*
X114826271Y-90345781D01*
X114786611Y-90339500D01*
X113813389Y-90339500D01*
X113773728Y-90345781D01*
X113642302Y-90366597D01*
X113477552Y-90420128D01*
X113323211Y-90498768D01*
X113243256Y-90556859D01*
X113183072Y-90600586D01*
X113183070Y-90600588D01*
X113183069Y-90600588D01*
X113060588Y-90723069D01*
X113060588Y-90723070D01*
X113060586Y-90723072D01*
X113020547Y-90778181D01*
X112958768Y-90863211D01*
X112880128Y-91017552D01*
X112826597Y-91182302D01*
X112802616Y-91333713D01*
X112799500Y-91353389D01*
X112799500Y-91526611D01*
X112826598Y-91697701D01*
X112880127Y-91862445D01*
X112958768Y-92016788D01*
X113060586Y-92156928D01*
X113183072Y-92279414D01*
X113323212Y-92381232D01*
X113477555Y-92459873D01*
X113642299Y-92513402D01*
X113813389Y-92540500D01*
X113813390Y-92540500D01*
X114786610Y-92540500D01*
X114786611Y-92540500D01*
X114957701Y-92513402D01*
X115122445Y-92459873D01*
X115276788Y-92381232D01*
X115416928Y-92279414D01*
X115539414Y-92156928D01*
X115568705Y-92116613D01*
X115624035Y-92073948D01*
X115669022Y-92065500D01*
X121981607Y-92065500D01*
X122042029Y-92053481D01*
X122102452Y-92041463D01*
X122135792Y-92027652D01*
X122216286Y-91994312D01*
X122267509Y-91960084D01*
X122270009Y-91958414D01*
X122280271Y-91951556D01*
X122318733Y-91925858D01*
X122405858Y-91838733D01*
X122405859Y-91838731D01*
X122412925Y-91831665D01*
X122412928Y-91831661D01*
X133058321Y-81186267D01*
X133119642Y-81152784D01*
X133189334Y-81157768D01*
X133245267Y-81199640D01*
X133269684Y-81265104D01*
X133270000Y-81273950D01*
X133270000Y-81386246D01*
X133303242Y-81596127D01*
X133303242Y-81596130D01*
X133368904Y-81798217D01*
X133465375Y-81987550D01*
X133504728Y-82041716D01*
X134137037Y-81409408D01*
X134154075Y-81472993D01*
X134219901Y-81587007D01*
X134312993Y-81680099D01*
X134427007Y-81745925D01*
X134490590Y-81762962D01*
X133858282Y-82395269D01*
X133858282Y-82395270D01*
X133912452Y-82434626D01*
X133912451Y-82434626D01*
X133921495Y-82439234D01*
X133972292Y-82487208D01*
X133989087Y-82555029D01*
X133966550Y-82621164D01*
X133921499Y-82660202D01*
X133912182Y-82664949D01*
X133740213Y-82789890D01*
X133589890Y-82940213D01*
X133464951Y-83112179D01*
X133368444Y-83301585D01*
X133302753Y-83503760D01*
X133269500Y-83713713D01*
X133269500Y-83926286D01*
X133302735Y-84136127D01*
X133302754Y-84136243D01*
X133368346Y-84338115D01*
X133368444Y-84338414D01*
X133464951Y-84527820D01*
X133589890Y-84699786D01*
X133740213Y-84850109D01*
X133912182Y-84975050D01*
X133920946Y-84979516D01*
X133971742Y-85027491D01*
X133988536Y-85095312D01*
X133965998Y-85161447D01*
X133920946Y-85200484D01*
X133912182Y-85204949D01*
X133740213Y-85329890D01*
X133589890Y-85480213D01*
X133464951Y-85652179D01*
X133368444Y-85841585D01*
X133302753Y-86043760D01*
X133293481Y-86102302D01*
X133269500Y-86253713D01*
X133269500Y-86466287D01*
X133302754Y-86676243D01*
X133357865Y-86845857D01*
X133368444Y-86878414D01*
X133464951Y-87067820D01*
X133589890Y-87239786D01*
X133740213Y-87390109D01*
X133912182Y-87515050D01*
X133920946Y-87519516D01*
X133971742Y-87567491D01*
X133988536Y-87635312D01*
X133965998Y-87701447D01*
X133920946Y-87740484D01*
X133912182Y-87744949D01*
X133740213Y-87869890D01*
X133589890Y-88020213D01*
X133464951Y-88192179D01*
X133368444Y-88381585D01*
X133302753Y-88583760D01*
X133293481Y-88642302D01*
X133269500Y-88793713D01*
X133269500Y-89006287D01*
X133302754Y-89216243D01*
X133357865Y-89385857D01*
X133368444Y-89418414D01*
X133464951Y-89607820D01*
X133589890Y-89779786D01*
X133740213Y-89930109D01*
X133912182Y-90055050D01*
X133920946Y-90059516D01*
X133971742Y-90107491D01*
X133988536Y-90175312D01*
X133965998Y-90241447D01*
X133920946Y-90280484D01*
X133912182Y-90284949D01*
X133740213Y-90409890D01*
X133589890Y-90560213D01*
X133464951Y-90732179D01*
X133368444Y-90921585D01*
X133302753Y-91123760D01*
X133293481Y-91182302D01*
X133269500Y-91333713D01*
X133269500Y-91546287D01*
X133302754Y-91756243D01*
X133357865Y-91925857D01*
X133368444Y-91958414D01*
X133464951Y-92147820D01*
X133589890Y-92319786D01*
X133740213Y-92470109D01*
X133912182Y-92595050D01*
X133920946Y-92599516D01*
X133971742Y-92647491D01*
X133988536Y-92715312D01*
X133965998Y-92781447D01*
X133920946Y-92820484D01*
X133912182Y-92824949D01*
X133740213Y-92949890D01*
X133589890Y-93100213D01*
X133464951Y-93272179D01*
X133368444Y-93461585D01*
X133302753Y-93663760D01*
X133293463Y-93722415D01*
X133269500Y-93873713D01*
X133269500Y-94086287D01*
X133302754Y-94296243D01*
X133337200Y-94402257D01*
X133368444Y-94498414D01*
X133464951Y-94687820D01*
X133589890Y-94859786D01*
X133740213Y-95010109D01*
X133912179Y-95135048D01*
X133912181Y-95135049D01*
X133912184Y-95135051D01*
X134101588Y-95231557D01*
X134303757Y-95297246D01*
X134513713Y-95330500D01*
X134513714Y-95330500D01*
X134726286Y-95330500D01*
X134726287Y-95330500D01*
X134936243Y-95297246D01*
X135138412Y-95231557D01*
X135327816Y-95135051D01*
X135440869Y-95052914D01*
X135499786Y-95010109D01*
X135499788Y-95010106D01*
X135499792Y-95010104D01*
X135650104Y-94859792D01*
X135650106Y-94859788D01*
X135650109Y-94859786D01*
X135775048Y-94687820D01*
X135775047Y-94687820D01*
X135775051Y-94687816D01*
X135871557Y-94498412D01*
X135937246Y-94296243D01*
X135970500Y-94086287D01*
X135970500Y-93873713D01*
X135937246Y-93663757D01*
X135871557Y-93461588D01*
X135775051Y-93272184D01*
X135775049Y-93272181D01*
X135775048Y-93272179D01*
X135650109Y-93100213D01*
X135499786Y-92949890D01*
X135327820Y-92824951D01*
X135327115Y-92824591D01*
X135319054Y-92820485D01*
X135268259Y-92772512D01*
X135251463Y-92704692D01*
X135273999Y-92638556D01*
X135319054Y-92599515D01*
X135327816Y-92595051D01*
X135402900Y-92540500D01*
X135499786Y-92470109D01*
X135499788Y-92470106D01*
X135499792Y-92470104D01*
X135650104Y-92319792D01*
X135650106Y-92319788D01*
X135650109Y-92319786D01*
X135768431Y-92156928D01*
X135775051Y-92147816D01*
X135871557Y-91958412D01*
X135937246Y-91756243D01*
X135970500Y-91546287D01*
X135970500Y-91333713D01*
X135937246Y-91123757D01*
X135871557Y-90921588D01*
X135775051Y-90732184D01*
X135775049Y-90732181D01*
X135775048Y-90732179D01*
X135650109Y-90560213D01*
X135499786Y-90409890D01*
X135327820Y-90284951D01*
X135327115Y-90284591D01*
X135319054Y-90280485D01*
X135268259Y-90232512D01*
X135251463Y-90164692D01*
X135273999Y-90098556D01*
X135319054Y-90059515D01*
X135327816Y-90055051D01*
X135402900Y-90000500D01*
X135499786Y-89930109D01*
X135499788Y-89930106D01*
X135499792Y-89930104D01*
X135650104Y-89779792D01*
X135650106Y-89779788D01*
X135650109Y-89779786D01*
X135768431Y-89616928D01*
X135775051Y-89607816D01*
X135871557Y-89418412D01*
X135937246Y-89216243D01*
X135970500Y-89006287D01*
X135970500Y-88894452D01*
X135990185Y-88827413D01*
X136042989Y-88781658D01*
X136112147Y-88771714D01*
X136175703Y-88800739D01*
X136182181Y-88806771D01*
X144118181Y-96742771D01*
X144151666Y-96804094D01*
X144154500Y-96830452D01*
X144154500Y-97585500D01*
X144134815Y-97652539D01*
X144082011Y-97698294D01*
X144030501Y-97709500D01*
X143882130Y-97709500D01*
X143882123Y-97709501D01*
X143822514Y-97715909D01*
X143768183Y-97736173D01*
X143698491Y-97741157D01*
X143637169Y-97707671D01*
X143603684Y-97646347D01*
X143600851Y-97619991D01*
X143600851Y-96702358D01*
X141430731Y-96702358D01*
X141430731Y-99516454D01*
X143305501Y-99516454D01*
X143372540Y-99536139D01*
X143418295Y-99588943D01*
X143429501Y-99640454D01*
X143429501Y-99957876D01*
X143435908Y-100017483D01*
X143486202Y-100152328D01*
X143486206Y-100152335D01*
X143572452Y-100267544D01*
X143572455Y-100267547D01*
X143687664Y-100353793D01*
X143687671Y-100353797D01*
X143819082Y-100402810D01*
X143875016Y-100444681D01*
X143899433Y-100510145D01*
X143884582Y-100578418D01*
X143863431Y-100606673D01*
X143749889Y-100720215D01*
X143624951Y-100892179D01*
X143528444Y-101081585D01*
X143462753Y-101283760D01*
X143452262Y-101350000D01*
X143429500Y-101493713D01*
X143429500Y-101706287D01*
X143462754Y-101916243D01*
X143518110Y-102086611D01*
X143528444Y-102118414D01*
X143624951Y-102307820D01*
X143749890Y-102479786D01*
X143900213Y-102630109D01*
X144072179Y-102755048D01*
X144072181Y-102755049D01*
X144072184Y-102755051D01*
X144081493Y-102759794D01*
X144132290Y-102807766D01*
X144149087Y-102875587D01*
X144126552Y-102941722D01*
X144081505Y-102980760D01*
X144072446Y-102985376D01*
X144072440Y-102985380D01*
X144018282Y-103024727D01*
X144018282Y-103024728D01*
X144650591Y-103657037D01*
X144587007Y-103674075D01*
X144472993Y-103739901D01*
X144379901Y-103832993D01*
X144314075Y-103947007D01*
X144297037Y-104010591D01*
X143664728Y-103378282D01*
X143664727Y-103378282D01*
X143625380Y-103432439D01*
X143528904Y-103621782D01*
X143463242Y-103823869D01*
X143463242Y-103823872D01*
X143430000Y-104033753D01*
X143430000Y-104246246D01*
X143463242Y-104456127D01*
X143463242Y-104456130D01*
X143528904Y-104658217D01*
X143625375Y-104847550D01*
X143664728Y-104901716D01*
X144297036Y-104269407D01*
X144314075Y-104332993D01*
X144379901Y-104447007D01*
X144472993Y-104540099D01*
X144587007Y-104605925D01*
X144650590Y-104622962D01*
X144018282Y-105255269D01*
X144018282Y-105255270D01*
X144072452Y-105294626D01*
X144072451Y-105294626D01*
X144081495Y-105299234D01*
X144132292Y-105347208D01*
X144149087Y-105415029D01*
X144126550Y-105481164D01*
X144081499Y-105520202D01*
X144072182Y-105524949D01*
X143900213Y-105649890D01*
X143749890Y-105800213D01*
X143624951Y-105972179D01*
X143528444Y-106161585D01*
X143462753Y-106363760D01*
X143429500Y-106573713D01*
X143429500Y-106786286D01*
X143462753Y-106996239D01*
X143528444Y-107198414D01*
X143624951Y-107387820D01*
X143749890Y-107559786D01*
X143900213Y-107710109D01*
X144072182Y-107835050D01*
X144080946Y-107839516D01*
X144131742Y-107887491D01*
X144148536Y-107955312D01*
X144125998Y-108021447D01*
X144080946Y-108060484D01*
X144072182Y-108064949D01*
X143900213Y-108189890D01*
X143749890Y-108340213D01*
X143624951Y-108512179D01*
X143528444Y-108701585D01*
X143462753Y-108903760D01*
X143429500Y-109113713D01*
X143429500Y-109326286D01*
X143462753Y-109536241D01*
X143467821Y-109551837D01*
X143469816Y-109621678D01*
X143437571Y-109677837D01*
X141340229Y-111775181D01*
X141278906Y-111808666D01*
X141252548Y-111811500D01*
X105449361Y-111811500D01*
X105382322Y-111791815D01*
X105361679Y-111775180D01*
X105324038Y-111737538D01*
X105324034Y-111737535D01*
X105176553Y-111638990D01*
X105176540Y-111638983D01*
X105012667Y-111571106D01*
X105012658Y-111571103D01*
X104838694Y-111536500D01*
X104838691Y-111536500D01*
X104661309Y-111536500D01*
X104661306Y-111536500D01*
X104487341Y-111571103D01*
X104487332Y-111571106D01*
X104323459Y-111638983D01*
X104323446Y-111638990D01*
X104175965Y-111737535D01*
X104175961Y-111737538D01*
X104050538Y-111862961D01*
X104050535Y-111862965D01*
X103951990Y-112010446D01*
X103951983Y-112010459D01*
X103884106Y-112174332D01*
X103884103Y-112174341D01*
X103849500Y-112348304D01*
X103849500Y-112525695D01*
X103884103Y-112699658D01*
X103884106Y-112699667D01*
X103951983Y-112863540D01*
X103951990Y-112863553D01*
X104050535Y-113011034D01*
X104050538Y-113011038D01*
X104175961Y-113136461D01*
X104175965Y-113136464D01*
X104323446Y-113235009D01*
X104323459Y-113235016D01*
X104407654Y-113269890D01*
X104487334Y-113302894D01*
X104487336Y-113302894D01*
X104487341Y-113302896D01*
X104661304Y-113337499D01*
X104661307Y-113337500D01*
X104661309Y-113337500D01*
X104838693Y-113337500D01*
X104838694Y-113337499D01*
X104896682Y-113325964D01*
X105012658Y-113302896D01*
X105012661Y-113302894D01*
X105012666Y-113302894D01*
X105176547Y-113235013D01*
X105324035Y-113136464D01*
X105361679Y-113098820D01*
X105423001Y-113065334D01*
X105449361Y-113062500D01*
X115201531Y-113062500D01*
X115268570Y-113082185D01*
X115314325Y-113134989D01*
X115324269Y-113204147D01*
X115323148Y-113210691D01*
X115309500Y-113279304D01*
X115309500Y-113456695D01*
X115323347Y-113526309D01*
X115317120Y-113595901D01*
X115274257Y-113651078D01*
X115208367Y-113674322D01*
X115201730Y-113674500D01*
X109595044Y-113674500D01*
X109530503Y-113674489D01*
X109530448Y-113674500D01*
X109530394Y-113674500D01*
X109527603Y-113675054D01*
X109527599Y-113675055D01*
X109470755Y-113686362D01*
X109470736Y-113686366D01*
X109409651Y-113698505D01*
X109409546Y-113698537D01*
X109353921Y-113721578D01*
X109353902Y-113721586D01*
X109295799Y-113745641D01*
X109295734Y-113745675D01*
X109244122Y-113780159D01*
X109244123Y-113780160D01*
X109244007Y-113780238D01*
X109193352Y-113814073D01*
X109193315Y-113814109D01*
X109193267Y-113814142D01*
X109193024Y-113814384D01*
X109193018Y-113814389D01*
X109147725Y-113859682D01*
X109147711Y-113859697D01*
X107418360Y-115588443D01*
X106562306Y-116444197D01*
X106500977Y-116477671D01*
X106474640Y-116480500D01*
X105992389Y-116480500D01*
X105931971Y-116492518D01*
X105888743Y-116501116D01*
X105871546Y-116504537D01*
X105757716Y-116551687D01*
X105757707Y-116551692D01*
X105655268Y-116620140D01*
X105611705Y-116663703D01*
X105568142Y-116707267D01*
X105203234Y-117072174D01*
X105203227Y-117072181D01*
X105200270Y-117075139D01*
X105200267Y-117075142D01*
X105113142Y-117162267D01*
X105080248Y-117211497D01*
X105075818Y-117218125D01*
X105075814Y-117218131D01*
X105044687Y-117264714D01*
X105027977Y-117305056D01*
X105018189Y-117328689D01*
X104997538Y-117378544D01*
X104997535Y-117378556D01*
X104973500Y-117499389D01*
X104973500Y-117982548D01*
X104953815Y-118049587D01*
X104937181Y-118070229D01*
X104374229Y-118633181D01*
X104312906Y-118666666D01*
X104286548Y-118669500D01*
X104233306Y-118669500D01*
X104059341Y-118704103D01*
X104059332Y-118704106D01*
X103895459Y-118771983D01*
X103895446Y-118771990D01*
X103747965Y-118870535D01*
X103747961Y-118870538D01*
X103622538Y-118995961D01*
X103622535Y-118995965D01*
X103523990Y-119143446D01*
X103523983Y-119143459D01*
X103456106Y-119307332D01*
X103456103Y-119307341D01*
X103421500Y-119481304D01*
X103421500Y-119658695D01*
X103456103Y-119832658D01*
X103456106Y-119832667D01*
X103523983Y-119996540D01*
X103523990Y-119996553D01*
X103622535Y-120144034D01*
X103622538Y-120144038D01*
X103747961Y-120269461D01*
X103747965Y-120269464D01*
X103895446Y-120368009D01*
X103895459Y-120368016D01*
X103997071Y-120410104D01*
X104059334Y-120435894D01*
X104059336Y-120435894D01*
X104059341Y-120435896D01*
X104233304Y-120470499D01*
X104233307Y-120470500D01*
X104233309Y-120470500D01*
X104410693Y-120470500D01*
X104410694Y-120470499D01*
X104468682Y-120458964D01*
X104584658Y-120435896D01*
X104584661Y-120435894D01*
X104584666Y-120435894D01*
X104748547Y-120368013D01*
X104896035Y-120269464D01*
X105021464Y-120144035D01*
X105120013Y-119996547D01*
X105187894Y-119832666D01*
X105222500Y-119658691D01*
X105222500Y-119605451D01*
X105242185Y-119538412D01*
X105258815Y-119517774D01*
X105994872Y-118781716D01*
X106056193Y-118748233D01*
X106106743Y-118747782D01*
X106286306Y-118783500D01*
X106286309Y-118783500D01*
X106463693Y-118783500D01*
X106463694Y-118783499D01*
X106546913Y-118766946D01*
X106637658Y-118748896D01*
X106637661Y-118748894D01*
X106637666Y-118748894D01*
X106801547Y-118681013D01*
X106949035Y-118582464D01*
X106986679Y-118544820D01*
X107048001Y-118511334D01*
X107074361Y-118508500D01*
X113019080Y-118508500D01*
X113041347Y-118515038D01*
X113064465Y-118517104D01*
X113074243Y-118524697D01*
X113086119Y-118528185D01*
X113101315Y-118545722D01*
X113119648Y-118559960D01*
X113123768Y-118571634D01*
X113131874Y-118580989D01*
X113135177Y-118603961D01*
X113142901Y-118625847D01*
X113140056Y-118637893D01*
X113141818Y-118650147D01*
X113132176Y-118671260D01*
X113126842Y-118693846D01*
X113117935Y-118702442D01*
X113112793Y-118713703D01*
X113093267Y-118726251D01*
X113076569Y-118742368D01*
X113057981Y-118748928D01*
X113054015Y-118751477D01*
X113043287Y-118754114D01*
X113041307Y-118754507D01*
X113041307Y-118754508D01*
X113018526Y-118759042D01*
X112978820Y-118766946D01*
X112978804Y-118766949D01*
X112920535Y-118778539D01*
X112920478Y-118778557D01*
X112920466Y-118778562D01*
X112862099Y-118802747D01*
X112862085Y-118802753D01*
X112806705Y-118825692D01*
X112806646Y-118825722D01*
X112756479Y-118859254D01*
X112756466Y-118859262D01*
X112704260Y-118894146D01*
X112704212Y-118894184D01*
X112664420Y-118933988D01*
X112613281Y-118985127D01*
X112613141Y-118985280D01*
X109538104Y-122061169D01*
X109476786Y-122094663D01*
X109450411Y-122097500D01*
X109397306Y-122097500D01*
X109223341Y-122132103D01*
X109223332Y-122132106D01*
X109059459Y-122199983D01*
X109059446Y-122199990D01*
X108911965Y-122298535D01*
X108911961Y-122298538D01*
X108786538Y-122423961D01*
X108786535Y-122423965D01*
X108687990Y-122571446D01*
X108687983Y-122571459D01*
X108620106Y-122735332D01*
X108620103Y-122735341D01*
X108585500Y-122909304D01*
X108585500Y-123086695D01*
X108620103Y-123260658D01*
X108620106Y-123260667D01*
X108687983Y-123424540D01*
X108687990Y-123424553D01*
X108786535Y-123572034D01*
X108786538Y-123572038D01*
X108911961Y-123697461D01*
X108911965Y-123697464D01*
X109059446Y-123796009D01*
X109059459Y-123796016D01*
X109182363Y-123846923D01*
X109223334Y-123863894D01*
X109223336Y-123863894D01*
X109223341Y-123863896D01*
X109397304Y-123898499D01*
X109397307Y-123898500D01*
X109397309Y-123898500D01*
X109574693Y-123898500D01*
X109574694Y-123898499D01*
X109632682Y-123886964D01*
X109748658Y-123863896D01*
X109748661Y-123863894D01*
X109748666Y-123863894D01*
X109912547Y-123796013D01*
X110060035Y-123697464D01*
X110185464Y-123572035D01*
X110284013Y-123424547D01*
X110351894Y-123260666D01*
X110365951Y-123190000D01*
X110386499Y-123086695D01*
X110386500Y-123086693D01*
X110386500Y-123033314D01*
X110406185Y-122966275D01*
X110422802Y-122945650D01*
X113325821Y-120041830D01*
X113387139Y-120008337D01*
X113413514Y-120005500D01*
X143507019Y-120005500D01*
X143574058Y-120025185D01*
X143617503Y-120073203D01*
X143624950Y-120087819D01*
X143749890Y-120259786D01*
X143900213Y-120410109D01*
X144072182Y-120535050D01*
X144080946Y-120539516D01*
X144131742Y-120587491D01*
X144148536Y-120655312D01*
X144125998Y-120721447D01*
X144080946Y-120760484D01*
X144072182Y-120764949D01*
X143900213Y-120889890D01*
X143749890Y-121040213D01*
X143624950Y-121212180D01*
X143617503Y-121226797D01*
X143569527Y-121277592D01*
X143507019Y-121294500D01*
X113166389Y-121294500D01*
X113115535Y-121304615D01*
X113115530Y-121304616D01*
X113105971Y-121306518D01*
X113045548Y-121318537D01*
X112998397Y-121338067D01*
X112931715Y-121365688D01*
X112931714Y-121365689D01*
X112909347Y-121380633D01*
X112909344Y-121380635D01*
X112829268Y-121434140D01*
X112785705Y-121477703D01*
X112742142Y-121521267D01*
X112742139Y-121521270D01*
X112202229Y-122061181D01*
X112140906Y-122094666D01*
X112114548Y-122097500D01*
X112061306Y-122097500D01*
X111887341Y-122132103D01*
X111887332Y-122132106D01*
X111723459Y-122199983D01*
X111723446Y-122199990D01*
X111575965Y-122298535D01*
X111575961Y-122298538D01*
X111450538Y-122423961D01*
X111450535Y-122423965D01*
X111351990Y-122571446D01*
X111351983Y-122571459D01*
X111284106Y-122735332D01*
X111284103Y-122735341D01*
X111249500Y-122909304D01*
X111249500Y-123086695D01*
X111284103Y-123260658D01*
X111284106Y-123260667D01*
X111351983Y-123424540D01*
X111351990Y-123424553D01*
X111450535Y-123572034D01*
X111450538Y-123572038D01*
X111575961Y-123697461D01*
X111575965Y-123697464D01*
X111723446Y-123796009D01*
X111723459Y-123796016D01*
X111846363Y-123846923D01*
X111887334Y-123863894D01*
X111887336Y-123863894D01*
X111887341Y-123863896D01*
X112061304Y-123898499D01*
X112061307Y-123898500D01*
X112061309Y-123898500D01*
X112238693Y-123898500D01*
X112238694Y-123898499D01*
X112296682Y-123886964D01*
X112412658Y-123863896D01*
X112412661Y-123863894D01*
X112412666Y-123863894D01*
X112576547Y-123796013D01*
X112724035Y-123697464D01*
X112849464Y-123572035D01*
X112948013Y-123424547D01*
X113015894Y-123260666D01*
X113029951Y-123190000D01*
X113050499Y-123086695D01*
X113050500Y-123086693D01*
X113050500Y-123033452D01*
X113070185Y-122966413D01*
X113086819Y-122945771D01*
X113450771Y-122581819D01*
X113512094Y-122548334D01*
X113538452Y-122545500D01*
X143507019Y-122545500D01*
X143574058Y-122565185D01*
X143617503Y-122613203D01*
X143624950Y-122627819D01*
X143749890Y-122799786D01*
X143900213Y-122950109D01*
X144072182Y-123075050D01*
X144080946Y-123079516D01*
X144131742Y-123127491D01*
X144148536Y-123195312D01*
X144125998Y-123261447D01*
X144080946Y-123300484D01*
X144072182Y-123304949D01*
X143900213Y-123429890D01*
X143749890Y-123580213D01*
X143624951Y-123752179D01*
X143528444Y-123941585D01*
X143462753Y-124143760D01*
X143429500Y-124353713D01*
X143429500Y-124566286D01*
X143462753Y-124776239D01*
X143528444Y-124978414D01*
X143624951Y-125167820D01*
X143749890Y-125339786D01*
X143900213Y-125490109D01*
X144072182Y-125615050D01*
X144080946Y-125619516D01*
X144131742Y-125667491D01*
X144148536Y-125735312D01*
X144125998Y-125801447D01*
X144080946Y-125840484D01*
X144072182Y-125844949D01*
X143900213Y-125969890D01*
X143749890Y-126120213D01*
X143624951Y-126292179D01*
X143528444Y-126481585D01*
X143462753Y-126683760D01*
X143429500Y-126893713D01*
X143429500Y-127106286D01*
X143462754Y-127316246D01*
X143467821Y-127331840D01*
X143469816Y-127401681D01*
X143437571Y-127457838D01*
X143180229Y-127715181D01*
X143118906Y-127748666D01*
X143092548Y-127751500D01*
X133283731Y-127751500D01*
X133216692Y-127731815D01*
X133170937Y-127679011D01*
X133160993Y-127609853D01*
X133161258Y-127608103D01*
X133180500Y-127486611D01*
X133180500Y-126513389D01*
X133153402Y-126342302D01*
X133153402Y-126342299D01*
X133099873Y-126177555D01*
X133021232Y-126023212D01*
X132919414Y-125883072D01*
X132796928Y-125760586D01*
X132656788Y-125658768D01*
X132502445Y-125580127D01*
X132337701Y-125526598D01*
X132337699Y-125526597D01*
X132337698Y-125526597D01*
X132206271Y-125505781D01*
X132166611Y-125499500D01*
X131993389Y-125499500D01*
X131953728Y-125505781D01*
X131822302Y-125526597D01*
X131657552Y-125580128D01*
X131503211Y-125658768D01*
X131430554Y-125711557D01*
X131363072Y-125760586D01*
X131363070Y-125760588D01*
X131363069Y-125760588D01*
X131240588Y-125883069D01*
X131240588Y-125883070D01*
X131240586Y-125883072D01*
X131240350Y-125883397D01*
X131138768Y-126023211D01*
X131060128Y-126177552D01*
X131006597Y-126342302D01*
X130979500Y-126513389D01*
X130979500Y-127486611D01*
X130979499Y-127486611D01*
X130998742Y-127608103D01*
X130996346Y-127626641D01*
X130999007Y-127645147D01*
X130991960Y-127660576D01*
X130989787Y-127677396D01*
X130977748Y-127691697D01*
X130969982Y-127708703D01*
X130955713Y-127717872D01*
X130944791Y-127730848D01*
X130926930Y-127736370D01*
X130911204Y-127746477D01*
X130879498Y-127751035D01*
X130878039Y-127751487D01*
X130876269Y-127751500D01*
X130743731Y-127751500D01*
X130676692Y-127731815D01*
X130630937Y-127679011D01*
X130620993Y-127609853D01*
X130621258Y-127608103D01*
X130640500Y-127486611D01*
X130640500Y-126513389D01*
X130613402Y-126342302D01*
X130613402Y-126342299D01*
X130559873Y-126177555D01*
X130481232Y-126023212D01*
X130379414Y-125883072D01*
X130256928Y-125760586D01*
X130116788Y-125658768D01*
X129962445Y-125580127D01*
X129797701Y-125526598D01*
X129797699Y-125526597D01*
X129797698Y-125526597D01*
X129666271Y-125505781D01*
X129626611Y-125499500D01*
X129453389Y-125499500D01*
X129413728Y-125505781D01*
X129282302Y-125526597D01*
X129117552Y-125580128D01*
X128963211Y-125658768D01*
X128890554Y-125711557D01*
X128823072Y-125760586D01*
X128823070Y-125760588D01*
X128823069Y-125760588D01*
X128700588Y-125883069D01*
X128700588Y-125883070D01*
X128700586Y-125883072D01*
X128700350Y-125883397D01*
X128598768Y-126023211D01*
X128520128Y-126177552D01*
X128466597Y-126342302D01*
X128439500Y-126513389D01*
X128439500Y-127486611D01*
X128439499Y-127486611D01*
X128458742Y-127608103D01*
X128456346Y-127626641D01*
X128459007Y-127645147D01*
X128451960Y-127660576D01*
X128449787Y-127677396D01*
X128437748Y-127691697D01*
X128429982Y-127708703D01*
X128415713Y-127717872D01*
X128404791Y-127730848D01*
X128386930Y-127736370D01*
X128371204Y-127746477D01*
X128339498Y-127751035D01*
X128338039Y-127751487D01*
X128336269Y-127751500D01*
X128203731Y-127751500D01*
X128136692Y-127731815D01*
X128090937Y-127679011D01*
X128080993Y-127609853D01*
X128081258Y-127608103D01*
X128100500Y-127486611D01*
X128100500Y-126513389D01*
X128073402Y-126342302D01*
X128073402Y-126342299D01*
X128019873Y-126177555D01*
X127941232Y-126023212D01*
X127839414Y-125883072D01*
X127716928Y-125760586D01*
X127576788Y-125658768D01*
X127422445Y-125580127D01*
X127257701Y-125526598D01*
X127257699Y-125526597D01*
X127257698Y-125526597D01*
X127126271Y-125505781D01*
X127086611Y-125499500D01*
X126913389Y-125499500D01*
X126873728Y-125505781D01*
X126742302Y-125526597D01*
X126577552Y-125580128D01*
X126423211Y-125658768D01*
X126350554Y-125711557D01*
X126283072Y-125760586D01*
X126283070Y-125760588D01*
X126283069Y-125760588D01*
X126160588Y-125883069D01*
X126160588Y-125883070D01*
X126160586Y-125883072D01*
X126160350Y-125883397D01*
X126058768Y-126023211D01*
X125980128Y-126177552D01*
X125926597Y-126342302D01*
X125899500Y-126513389D01*
X125899500Y-127486611D01*
X125899499Y-127486611D01*
X125918742Y-127608103D01*
X125916346Y-127626641D01*
X125919007Y-127645147D01*
X125911960Y-127660576D01*
X125909787Y-127677396D01*
X125897748Y-127691697D01*
X125889982Y-127708703D01*
X125875713Y-127717872D01*
X125864791Y-127730848D01*
X125846930Y-127736370D01*
X125831204Y-127746477D01*
X125799498Y-127751035D01*
X125798039Y-127751487D01*
X125796269Y-127751500D01*
X125663731Y-127751500D01*
X125596692Y-127731815D01*
X125550937Y-127679011D01*
X125540993Y-127609853D01*
X125541258Y-127608103D01*
X125560500Y-127486611D01*
X125560500Y-126513389D01*
X125533402Y-126342302D01*
X125533402Y-126342299D01*
X125479873Y-126177555D01*
X125401232Y-126023212D01*
X125299414Y-125883072D01*
X125176928Y-125760586D01*
X125036788Y-125658768D01*
X124882445Y-125580127D01*
X124717701Y-125526598D01*
X124717699Y-125526597D01*
X124717698Y-125526597D01*
X124586271Y-125505781D01*
X124546611Y-125499500D01*
X124373389Y-125499500D01*
X124333728Y-125505781D01*
X124202302Y-125526597D01*
X124037552Y-125580128D01*
X123883211Y-125658768D01*
X123810554Y-125711557D01*
X123743072Y-125760586D01*
X123743070Y-125760588D01*
X123743069Y-125760588D01*
X123620588Y-125883069D01*
X123620588Y-125883070D01*
X123620586Y-125883072D01*
X123620350Y-125883397D01*
X123518768Y-126023211D01*
X123440128Y-126177552D01*
X123386597Y-126342302D01*
X123359500Y-126513389D01*
X123359500Y-127486611D01*
X123359499Y-127486611D01*
X123378742Y-127608103D01*
X123376346Y-127626641D01*
X123379007Y-127645147D01*
X123371960Y-127660576D01*
X123369787Y-127677396D01*
X123357748Y-127691697D01*
X123349982Y-127708703D01*
X123335713Y-127717872D01*
X123324791Y-127730848D01*
X123306930Y-127736370D01*
X123291204Y-127746477D01*
X123259498Y-127751035D01*
X123258039Y-127751487D01*
X123256269Y-127751500D01*
X123123731Y-127751500D01*
X123056692Y-127731815D01*
X123010937Y-127679011D01*
X123000993Y-127609853D01*
X123001258Y-127608103D01*
X123020500Y-127486611D01*
X123020500Y-126513389D01*
X122993402Y-126342302D01*
X122993402Y-126342299D01*
X122939873Y-126177555D01*
X122861232Y-126023212D01*
X122759414Y-125883072D01*
X122636928Y-125760586D01*
X122496788Y-125658768D01*
X122342445Y-125580127D01*
X122177701Y-125526598D01*
X122177699Y-125526597D01*
X122177698Y-125526597D01*
X122046271Y-125505781D01*
X122006611Y-125499500D01*
X121833389Y-125499500D01*
X121793728Y-125505781D01*
X121662302Y-125526597D01*
X121497552Y-125580128D01*
X121343211Y-125658768D01*
X121270554Y-125711557D01*
X121203072Y-125760586D01*
X121203070Y-125760588D01*
X121203069Y-125760588D01*
X121080588Y-125883069D01*
X121080588Y-125883070D01*
X121080586Y-125883072D01*
X121080350Y-125883397D01*
X120978768Y-126023211D01*
X120900128Y-126177552D01*
X120846597Y-126342302D01*
X120819500Y-126513389D01*
X120819500Y-127486611D01*
X120819499Y-127486611D01*
X120838742Y-127608103D01*
X120836346Y-127626641D01*
X120839007Y-127645147D01*
X120831960Y-127660576D01*
X120829787Y-127677396D01*
X120817748Y-127691697D01*
X120809982Y-127708703D01*
X120795713Y-127717872D01*
X120784791Y-127730848D01*
X120766930Y-127736370D01*
X120751204Y-127746477D01*
X120719498Y-127751035D01*
X120718039Y-127751487D01*
X120716269Y-127751500D01*
X120583224Y-127751500D01*
X120516185Y-127731815D01*
X120470430Y-127679011D01*
X120460486Y-127609853D01*
X120460751Y-127608102D01*
X120480000Y-127486570D01*
X120480000Y-127250000D01*
X119695686Y-127250000D01*
X119700080Y-127245606D01*
X119752741Y-127154394D01*
X119780000Y-127052661D01*
X119780000Y-126947339D01*
X119752741Y-126845606D01*
X119700080Y-126754394D01*
X119695686Y-126750000D01*
X120480000Y-126750000D01*
X120480000Y-126513428D01*
X120452914Y-126342415D01*
X120399408Y-126177742D01*
X120320804Y-126023475D01*
X120219032Y-125883397D01*
X120096602Y-125760967D01*
X119956524Y-125659195D01*
X119802257Y-125580591D01*
X119637589Y-125527087D01*
X119637581Y-125527085D01*
X119630000Y-125525884D01*
X119630000Y-126684314D01*
X119625606Y-126679920D01*
X119534394Y-126627259D01*
X119432661Y-126600000D01*
X119327339Y-126600000D01*
X119225606Y-126627259D01*
X119134394Y-126679920D01*
X119130000Y-126684314D01*
X119130000Y-125525884D01*
X119129999Y-125525884D01*
X119122418Y-125527085D01*
X119122410Y-125527087D01*
X118957742Y-125580591D01*
X118803475Y-125659195D01*
X118663397Y-125760967D01*
X118540967Y-125883397D01*
X118439195Y-126023475D01*
X118360591Y-126177742D01*
X118307085Y-126342415D01*
X118280000Y-126513428D01*
X118280000Y-126750000D01*
X119064314Y-126750000D01*
X119059920Y-126754394D01*
X119007259Y-126845606D01*
X118980000Y-126947339D01*
X118980000Y-127052661D01*
X119007259Y-127154394D01*
X119059920Y-127245606D01*
X119064314Y-127250000D01*
X118280000Y-127250000D01*
X118280000Y-127486570D01*
X118299249Y-127608102D01*
X118296853Y-127626642D01*
X118299514Y-127645147D01*
X118292468Y-127660574D01*
X118290295Y-127677395D01*
X118278255Y-127691697D01*
X118270489Y-127708703D01*
X118256221Y-127717872D01*
X118245299Y-127730847D01*
X118227438Y-127736369D01*
X118211711Y-127746477D01*
X118180007Y-127751035D01*
X118178547Y-127751487D01*
X118176776Y-127751500D01*
X118043731Y-127751500D01*
X117976692Y-127731815D01*
X117930937Y-127679011D01*
X117920993Y-127609853D01*
X117921258Y-127608103D01*
X117940500Y-127486611D01*
X117940500Y-126513389D01*
X117913402Y-126342302D01*
X117913402Y-126342299D01*
X117859873Y-126177555D01*
X117781232Y-126023212D01*
X117679414Y-125883072D01*
X117556928Y-125760586D01*
X117416788Y-125658768D01*
X117262445Y-125580127D01*
X117097701Y-125526598D01*
X117097699Y-125526597D01*
X117097698Y-125526597D01*
X116966271Y-125505781D01*
X116926611Y-125499500D01*
X116753389Y-125499500D01*
X116713728Y-125505781D01*
X116582302Y-125526597D01*
X116417552Y-125580128D01*
X116263211Y-125658768D01*
X116190554Y-125711557D01*
X116123072Y-125760586D01*
X116123070Y-125760588D01*
X116123069Y-125760588D01*
X116000588Y-125883069D01*
X116000588Y-125883070D01*
X116000586Y-125883072D01*
X116000350Y-125883397D01*
X115898768Y-126023211D01*
X115820128Y-126177552D01*
X115766597Y-126342302D01*
X115739500Y-126513389D01*
X115739500Y-127486611D01*
X115739499Y-127486611D01*
X115758742Y-127608103D01*
X115756346Y-127626641D01*
X115759007Y-127645147D01*
X115751960Y-127660576D01*
X115749787Y-127677396D01*
X115737748Y-127691697D01*
X115729982Y-127708703D01*
X115715713Y-127717872D01*
X115704791Y-127730848D01*
X115686930Y-127736370D01*
X115671204Y-127746477D01*
X115639498Y-127751035D01*
X115638039Y-127751487D01*
X115636269Y-127751500D01*
X115503731Y-127751500D01*
X115436692Y-127731815D01*
X115390937Y-127679011D01*
X115380993Y-127609853D01*
X115381258Y-127608103D01*
X115400500Y-127486611D01*
X115400500Y-126513389D01*
X115373402Y-126342302D01*
X115373402Y-126342299D01*
X115319873Y-126177555D01*
X115241232Y-126023212D01*
X115139414Y-125883072D01*
X115016928Y-125760586D01*
X114876788Y-125658768D01*
X114722445Y-125580127D01*
X114557701Y-125526598D01*
X114557699Y-125526597D01*
X114557698Y-125526597D01*
X114426271Y-125505781D01*
X114386611Y-125499500D01*
X114213389Y-125499500D01*
X114173728Y-125505781D01*
X114042302Y-125526597D01*
X113877552Y-125580128D01*
X113723211Y-125658768D01*
X113650554Y-125711557D01*
X113583072Y-125760586D01*
X113583070Y-125760588D01*
X113583069Y-125760588D01*
X113460588Y-125883069D01*
X113460588Y-125883070D01*
X113460586Y-125883072D01*
X113460350Y-125883397D01*
X113358768Y-126023211D01*
X113280128Y-126177552D01*
X113226597Y-126342302D01*
X113199500Y-126513389D01*
X113199500Y-127486610D01*
X113224609Y-127645147D01*
X113226598Y-127657701D01*
X113257075Y-127751500D01*
X113280128Y-127822447D01*
X113358768Y-127976788D01*
X113460586Y-128116928D01*
X113460588Y-128116930D01*
X113583075Y-128239417D01*
X113623384Y-128268702D01*
X113666050Y-128324031D01*
X113674500Y-128369021D01*
X113674500Y-128438610D01*
X113698535Y-128559444D01*
X113698538Y-128559454D01*
X113745687Y-128673283D01*
X113745692Y-128673292D01*
X113814141Y-128775732D01*
X113814144Y-128775736D01*
X113901263Y-128862855D01*
X113901267Y-128862858D01*
X114003707Y-128931307D01*
X114003711Y-128931309D01*
X114003714Y-128931311D01*
X114117548Y-128978463D01*
X114238389Y-129002499D01*
X114238393Y-129002500D01*
X114238394Y-129002500D01*
X143464607Y-129002500D01*
X143525029Y-128990481D01*
X143585452Y-128978463D01*
X143618792Y-128964652D01*
X143699286Y-128931312D01*
X143750509Y-128897084D01*
X143801733Y-128862858D01*
X143888858Y-128775733D01*
X143888859Y-128775731D01*
X143895925Y-128768665D01*
X143895928Y-128768661D01*
X144322162Y-128342426D01*
X144383483Y-128308943D01*
X144448162Y-128312179D01*
X144463757Y-128317246D01*
X144673713Y-128350500D01*
X144673714Y-128350500D01*
X144886286Y-128350500D01*
X144886287Y-128350500D01*
X145096243Y-128317246D01*
X145298412Y-128251557D01*
X145487816Y-128155051D01*
X145509789Y-128139086D01*
X145659786Y-128030109D01*
X145659788Y-128030106D01*
X145659792Y-128030104D01*
X145810104Y-127879792D01*
X145810106Y-127879788D01*
X145810109Y-127879786D01*
X145929700Y-127715181D01*
X145935051Y-127707816D01*
X146031557Y-127518412D01*
X146097246Y-127316243D01*
X146130500Y-127106287D01*
X146130500Y-126893713D01*
X146097246Y-126683757D01*
X146031557Y-126481588D01*
X145935051Y-126292184D01*
X145935049Y-126292181D01*
X145935048Y-126292179D01*
X145810109Y-126120213D01*
X145659786Y-125969890D01*
X145487820Y-125844951D01*
X145487115Y-125844591D01*
X145479054Y-125840485D01*
X145428259Y-125792512D01*
X145411463Y-125724692D01*
X145433999Y-125658556D01*
X145479054Y-125619515D01*
X145487816Y-125615051D01*
X145509789Y-125599086D01*
X145659786Y-125490109D01*
X145659788Y-125490106D01*
X145659792Y-125490104D01*
X145810104Y-125339792D01*
X145810106Y-125339788D01*
X145810109Y-125339786D01*
X145935048Y-125167820D01*
X145935047Y-125167820D01*
X145935051Y-125167816D01*
X146031557Y-124978412D01*
X146097246Y-124776243D01*
X146130500Y-124566287D01*
X146130500Y-124353713D01*
X146097246Y-124143757D01*
X146031557Y-123941588D01*
X145935051Y-123752184D01*
X145935049Y-123752181D01*
X145935048Y-123752179D01*
X145810109Y-123580213D01*
X145659786Y-123429890D01*
X145487820Y-123304951D01*
X145487115Y-123304591D01*
X145479054Y-123300485D01*
X145428259Y-123252512D01*
X145411463Y-123184692D01*
X145433999Y-123118556D01*
X145479054Y-123079515D01*
X145487816Y-123075051D01*
X145545073Y-123033452D01*
X145659786Y-122950109D01*
X145659788Y-122950106D01*
X145659792Y-122950104D01*
X145810104Y-122799792D01*
X145810106Y-122799788D01*
X145810109Y-122799786D01*
X145935048Y-122627820D01*
X145935049Y-122627819D01*
X145935051Y-122627816D01*
X146031557Y-122438412D01*
X146097246Y-122236243D01*
X146130500Y-122026287D01*
X146130500Y-121813713D01*
X146097246Y-121603757D01*
X146031557Y-121401588D01*
X145935051Y-121212184D01*
X145935049Y-121212181D01*
X145935048Y-121212179D01*
X145810109Y-121040213D01*
X145659786Y-120889890D01*
X145487820Y-120764951D01*
X145487115Y-120764591D01*
X145479054Y-120760485D01*
X145428259Y-120712512D01*
X145411463Y-120644692D01*
X145433999Y-120578556D01*
X145479054Y-120539515D01*
X145487816Y-120535051D01*
X145509789Y-120519086D01*
X145659786Y-120410109D01*
X145659788Y-120410106D01*
X145659792Y-120410104D01*
X145810104Y-120259792D01*
X145810106Y-120259788D01*
X145810109Y-120259786D01*
X145935048Y-120087820D01*
X145935049Y-120087819D01*
X145935051Y-120087816D01*
X146031557Y-119898412D01*
X146097246Y-119696243D01*
X146130500Y-119486287D01*
X146130500Y-119273713D01*
X146097246Y-119063757D01*
X146031557Y-118861588D01*
X145935051Y-118672184D01*
X145935049Y-118672181D01*
X145935048Y-118672179D01*
X145810109Y-118500213D01*
X145659786Y-118349890D01*
X145487820Y-118224951D01*
X145487115Y-118224591D01*
X145479054Y-118220485D01*
X145428259Y-118172512D01*
X145411463Y-118104692D01*
X145433999Y-118038556D01*
X145479054Y-117999515D01*
X145487816Y-117995051D01*
X145509789Y-117979086D01*
X145659786Y-117870109D01*
X145659788Y-117870106D01*
X145659792Y-117870104D01*
X145810104Y-117719792D01*
X145810106Y-117719788D01*
X145810109Y-117719786D01*
X145935048Y-117547820D01*
X145935047Y-117547820D01*
X145935051Y-117547816D01*
X146031557Y-117358412D01*
X146097246Y-117156243D01*
X146130500Y-116946287D01*
X146130500Y-116733713D01*
X146097246Y-116523757D01*
X146031557Y-116321588D01*
X145935051Y-116132184D01*
X145935049Y-116132181D01*
X145935048Y-116132179D01*
X145810109Y-115960213D01*
X145659786Y-115809890D01*
X145487820Y-115684951D01*
X145487115Y-115684591D01*
X145479054Y-115680485D01*
X145428259Y-115632512D01*
X145411463Y-115564692D01*
X145433999Y-115498556D01*
X145479054Y-115459515D01*
X145487816Y-115455051D01*
X145509789Y-115439086D01*
X145659786Y-115330109D01*
X145659788Y-115330106D01*
X145659792Y-115330104D01*
X145810104Y-115179792D01*
X145810106Y-115179788D01*
X145810109Y-115179786D01*
X145935048Y-115007820D01*
X145935049Y-115007819D01*
X145935051Y-115007816D01*
X146031557Y-114818412D01*
X146097246Y-114616243D01*
X146130500Y-114406287D01*
X146130500Y-114193713D01*
X146097246Y-113983757D01*
X146031557Y-113781588D01*
X145935051Y-113592184D01*
X145935049Y-113592181D01*
X145935048Y-113592179D01*
X145810109Y-113420213D01*
X145659786Y-113269890D01*
X145487820Y-113144951D01*
X145487115Y-113144591D01*
X145479054Y-113140485D01*
X145428259Y-113092512D01*
X145411463Y-113024692D01*
X145433999Y-112958556D01*
X145479054Y-112919515D01*
X145487816Y-112915051D01*
X145509789Y-112899086D01*
X145659786Y-112790109D01*
X145659788Y-112790106D01*
X145659792Y-112790104D01*
X145810104Y-112639792D01*
X145810106Y-112639788D01*
X145810109Y-112639786D01*
X145935048Y-112467820D01*
X145935047Y-112467820D01*
X145935051Y-112467816D01*
X146031557Y-112278412D01*
X146097246Y-112076243D01*
X146130500Y-111866287D01*
X146130500Y-111653713D01*
X146097246Y-111443757D01*
X146031557Y-111241588D01*
X145935051Y-111052184D01*
X145935049Y-111052181D01*
X145935048Y-111052179D01*
X145810109Y-110880213D01*
X145659786Y-110729890D01*
X145487820Y-110604951D01*
X145487115Y-110604591D01*
X145479054Y-110600485D01*
X145428259Y-110552512D01*
X145411463Y-110484692D01*
X145433999Y-110418556D01*
X145479054Y-110379515D01*
X145487816Y-110375051D01*
X145509789Y-110359086D01*
X145659786Y-110250109D01*
X145659788Y-110250106D01*
X145659792Y-110250104D01*
X145810104Y-110099792D01*
X145810106Y-110099788D01*
X145810109Y-110099786D01*
X145935048Y-109927820D01*
X145935047Y-109927820D01*
X145935051Y-109927816D01*
X146031557Y-109738412D01*
X146097246Y-109536243D01*
X146130500Y-109326287D01*
X146130500Y-109113713D01*
X146097246Y-108903757D01*
X146031557Y-108701588D01*
X145935051Y-108512184D01*
X145935049Y-108512181D01*
X145935048Y-108512179D01*
X145810109Y-108340213D01*
X145659786Y-108189890D01*
X145487820Y-108064951D01*
X145487115Y-108064591D01*
X145479054Y-108060485D01*
X145428259Y-108012512D01*
X145411463Y-107944692D01*
X145433999Y-107878556D01*
X145479054Y-107839515D01*
X145487816Y-107835051D01*
X145509789Y-107819086D01*
X145659786Y-107710109D01*
X145659788Y-107710106D01*
X145659792Y-107710104D01*
X145810104Y-107559792D01*
X145810106Y-107559788D01*
X145810109Y-107559786D01*
X145935048Y-107387820D01*
X145935047Y-107387820D01*
X145935051Y-107387816D01*
X146031557Y-107198412D01*
X146097246Y-106996243D01*
X146130500Y-106786287D01*
X146130500Y-106573713D01*
X146097246Y-106363757D01*
X146031557Y-106161588D01*
X145935051Y-105972184D01*
X145935049Y-105972181D01*
X145935048Y-105972179D01*
X145810109Y-105800213D01*
X145659786Y-105649890D01*
X145487817Y-105524949D01*
X145478504Y-105520204D01*
X145427707Y-105472230D01*
X145410912Y-105404409D01*
X145433449Y-105338274D01*
X145478507Y-105299232D01*
X145487555Y-105294622D01*
X145541716Y-105255270D01*
X145541717Y-105255270D01*
X144909408Y-104622962D01*
X144972993Y-104605925D01*
X145087007Y-104540099D01*
X145180099Y-104447007D01*
X145245925Y-104332993D01*
X145262962Y-104269408D01*
X145895270Y-104901717D01*
X145895270Y-104901716D01*
X145934622Y-104847554D01*
X146031095Y-104658217D01*
X146096757Y-104456130D01*
X146096757Y-104456127D01*
X146130000Y-104246246D01*
X146130000Y-104033753D01*
X146096757Y-103823872D01*
X146096757Y-103823869D01*
X146031095Y-103621782D01*
X145934624Y-103432449D01*
X145895270Y-103378282D01*
X145895269Y-103378282D01*
X145262962Y-104010590D01*
X145245925Y-103947007D01*
X145180099Y-103832993D01*
X145087007Y-103739901D01*
X144972993Y-103674075D01*
X144909409Y-103657037D01*
X145541716Y-103024728D01*
X145487547Y-102985373D01*
X145487547Y-102985372D01*
X145478500Y-102980763D01*
X145427706Y-102932788D01*
X145410912Y-102864966D01*
X145433451Y-102798832D01*
X145478508Y-102759793D01*
X145487816Y-102755051D01*
X145567007Y-102697515D01*
X145659786Y-102630109D01*
X145659788Y-102630106D01*
X145659792Y-102630104D01*
X145810104Y-102479792D01*
X145810106Y-102479788D01*
X145810109Y-102479786D01*
X145935048Y-102307820D01*
X145935047Y-102307820D01*
X145935051Y-102307816D01*
X146031557Y-102118412D01*
X146097246Y-101916243D01*
X146130500Y-101706287D01*
X146130500Y-101493713D01*
X146097246Y-101283757D01*
X146031557Y-101081588D01*
X145935051Y-100892184D01*
X145935049Y-100892181D01*
X145935048Y-100892179D01*
X145810109Y-100720213D01*
X145696569Y-100606673D01*
X145663084Y-100545350D01*
X145668068Y-100475658D01*
X145709940Y-100419725D01*
X145740915Y-100402810D01*
X145872331Y-100353796D01*
X145987546Y-100267546D01*
X146073796Y-100152331D01*
X146124091Y-100017483D01*
X146130500Y-99957873D01*
X146130499Y-98162128D01*
X146124091Y-98102517D01*
X146073796Y-97967669D01*
X146073795Y-97967668D01*
X146073793Y-97967664D01*
X145987547Y-97852455D01*
X145987544Y-97852452D01*
X145872335Y-97766206D01*
X145872328Y-97766202D01*
X145737482Y-97715908D01*
X145737483Y-97715908D01*
X145677883Y-97709501D01*
X145677881Y-97709500D01*
X145677873Y-97709500D01*
X145677865Y-97709500D01*
X145529500Y-97709500D01*
X145462461Y-97689815D01*
X145416706Y-97637011D01*
X145405500Y-97585500D01*
X145405500Y-96458396D01*
X145405500Y-96458394D01*
X145381463Y-96337548D01*
X145381461Y-96337543D01*
X145363505Y-96294193D01*
X145363501Y-96294185D01*
X145361932Y-96290397D01*
X145334312Y-96223715D01*
X145317256Y-96198190D01*
X145265858Y-96121267D01*
X145265856Y-96121264D01*
X145175637Y-96031045D01*
X145175606Y-96031016D01*
X135962428Y-86817838D01*
X135928943Y-86756515D01*
X135932177Y-86691841D01*
X135937246Y-86676243D01*
X135970500Y-86466287D01*
X135970500Y-86253713D01*
X135937246Y-86043757D01*
X135871557Y-85841588D01*
X135775051Y-85652184D01*
X135775049Y-85652181D01*
X135775048Y-85652179D01*
X135650109Y-85480213D01*
X135499786Y-85329890D01*
X135327820Y-85204951D01*
X135327115Y-85204591D01*
X135319054Y-85200485D01*
X135268259Y-85152512D01*
X135251463Y-85084692D01*
X135273999Y-85018556D01*
X135319054Y-84979515D01*
X135327816Y-84975051D01*
X135414471Y-84912093D01*
X135499786Y-84850109D01*
X135499788Y-84850106D01*
X135499792Y-84850104D01*
X135650104Y-84699792D01*
X135650106Y-84699788D01*
X135650109Y-84699786D01*
X135775048Y-84527820D01*
X135775047Y-84527820D01*
X135775051Y-84527816D01*
X135871557Y-84338412D01*
X135937246Y-84136243D01*
X135970500Y-83926287D01*
X135970500Y-83713713D01*
X135937246Y-83503757D01*
X135871557Y-83301588D01*
X135775051Y-83112184D01*
X135775049Y-83112181D01*
X135775048Y-83112179D01*
X135650109Y-82940213D01*
X135499786Y-82789890D01*
X135327817Y-82664949D01*
X135318504Y-82660204D01*
X135267707Y-82612230D01*
X135250912Y-82544409D01*
X135273449Y-82478274D01*
X135318507Y-82439232D01*
X135327555Y-82434622D01*
X135381716Y-82395270D01*
X135381717Y-82395270D01*
X134749408Y-81762962D01*
X134812993Y-81745925D01*
X134927007Y-81680099D01*
X135020099Y-81587007D01*
X135085925Y-81472993D01*
X135102962Y-81409408D01*
X135735270Y-82041717D01*
X135735270Y-82041716D01*
X135774622Y-81987554D01*
X135871095Y-81798217D01*
X135936757Y-81596130D01*
X135936757Y-81596127D01*
X135970000Y-81386246D01*
X135970000Y-81173753D01*
X135936757Y-80963872D01*
X135936757Y-80963869D01*
X135871095Y-80761782D01*
X135774624Y-80572449D01*
X135735270Y-80518282D01*
X135735269Y-80518282D01*
X135102962Y-81150590D01*
X135085925Y-81087007D01*
X135020099Y-80972993D01*
X134927007Y-80879901D01*
X134812993Y-80814075D01*
X134749408Y-80797037D01*
X135381716Y-80164728D01*
X135327547Y-80125373D01*
X135327547Y-80125372D01*
X135318500Y-80120763D01*
X135267706Y-80072788D01*
X135250912Y-80004966D01*
X135273451Y-79938832D01*
X135318508Y-79899793D01*
X135327816Y-79895051D01*
X135417682Y-79829760D01*
X135499786Y-79770109D01*
X135499788Y-79770106D01*
X135499792Y-79770104D01*
X135650104Y-79619792D01*
X135650106Y-79619788D01*
X135650109Y-79619786D01*
X135775048Y-79447820D01*
X135775047Y-79447820D01*
X135775051Y-79447816D01*
X135871557Y-79258412D01*
X135937246Y-79056243D01*
X135970500Y-78846287D01*
X135970500Y-78633713D01*
X135937246Y-78423757D01*
X135871557Y-78221588D01*
X135775051Y-78032184D01*
X135775049Y-78032181D01*
X135775048Y-78032179D01*
X135650109Y-77860213D01*
X135499786Y-77709890D01*
X135327820Y-77584951D01*
X135327115Y-77584591D01*
X135319054Y-77580485D01*
X135268259Y-77532512D01*
X135251463Y-77464692D01*
X135273999Y-77398556D01*
X135319054Y-77359515D01*
X135327816Y-77355051D01*
X135349789Y-77339086D01*
X135499786Y-77230109D01*
X135499788Y-77230106D01*
X135499792Y-77230104D01*
X135650104Y-77079792D01*
X135650106Y-77079788D01*
X135650109Y-77079786D01*
X135775048Y-76907820D01*
X135775047Y-76907820D01*
X135775051Y-76907816D01*
X135871557Y-76718412D01*
X135937246Y-76516243D01*
X135970500Y-76306287D01*
X135970500Y-76093713D01*
X135937246Y-75883757D01*
X135871557Y-75681588D01*
X135775051Y-75492184D01*
X135775049Y-75492181D01*
X135775048Y-75492179D01*
X135650109Y-75320213D01*
X135499786Y-75169890D01*
X135327817Y-75044949D01*
X135318504Y-75040204D01*
X135267707Y-74992230D01*
X135250912Y-74924409D01*
X135273449Y-74858274D01*
X135318507Y-74819232D01*
X135327555Y-74814622D01*
X135381716Y-74775270D01*
X135381717Y-74775270D01*
X134749408Y-74142962D01*
X134812993Y-74125925D01*
X134927007Y-74060099D01*
X135020099Y-73967007D01*
X135085925Y-73852993D01*
X135102962Y-73789408D01*
X135735270Y-74421717D01*
X135735270Y-74421716D01*
X135774622Y-74367554D01*
X135871095Y-74178217D01*
X135936757Y-73976130D01*
X135936757Y-73976127D01*
X135970000Y-73766246D01*
X135970000Y-73553753D01*
X135936757Y-73343872D01*
X135936757Y-73343869D01*
X135871095Y-73141782D01*
X135774624Y-72952449D01*
X135735270Y-72898282D01*
X135735269Y-72898282D01*
X135102962Y-73530590D01*
X135085925Y-73467007D01*
X135020099Y-73352993D01*
X134927007Y-73259901D01*
X134812993Y-73194075D01*
X134749409Y-73177037D01*
X135419627Y-72506818D01*
X135480950Y-72473333D01*
X135507307Y-72470499D01*
X135517872Y-72470499D01*
X135577483Y-72464091D01*
X135712331Y-72413796D01*
X135827546Y-72327546D01*
X135913796Y-72212331D01*
X135964091Y-72077483D01*
X135970500Y-72017873D01*
X135970499Y-70222128D01*
X135964091Y-70162517D01*
X135913796Y-70027669D01*
X135913795Y-70027668D01*
X135913793Y-70027664D01*
X135827547Y-69912455D01*
X135827544Y-69912452D01*
X135712335Y-69826206D01*
X135712328Y-69826202D01*
X135577482Y-69775908D01*
X135577483Y-69775908D01*
X135517883Y-69769501D01*
X135517881Y-69769500D01*
X135517873Y-69769500D01*
X135517864Y-69769500D01*
X133722129Y-69769500D01*
X133722123Y-69769501D01*
X133662514Y-69775909D01*
X133608183Y-69796173D01*
X133538491Y-69801157D01*
X133477169Y-69767671D01*
X133443684Y-69706347D01*
X133440851Y-69679991D01*
X133440851Y-68127358D01*
X131270731Y-68127358D01*
X131270731Y-70941454D01*
X132387594Y-70941454D01*
X132454633Y-70961139D01*
X132500388Y-71013943D01*
X132510332Y-71083101D01*
X132481307Y-71146657D01*
X132475275Y-71153135D01*
X126820229Y-76808181D01*
X126758906Y-76841666D01*
X126732548Y-76844500D01*
X102981260Y-76844500D01*
X102914221Y-76824815D01*
X102868466Y-76772011D01*
X102858522Y-76702853D01*
X102863329Y-76682182D01*
X102889486Y-76601678D01*
X102917246Y-76516243D01*
X102950500Y-76306287D01*
X102950500Y-76093713D01*
X102917246Y-75883757D01*
X102851557Y-75681588D01*
X102755051Y-75492184D01*
X102755049Y-75492181D01*
X102755048Y-75492179D01*
X102630109Y-75320213D01*
X102479786Y-75169890D01*
X102307820Y-75044951D01*
X102307115Y-75044591D01*
X102299054Y-75040485D01*
X102248259Y-74992512D01*
X102231463Y-74924692D01*
X102253999Y-74858556D01*
X102299054Y-74819515D01*
X102307816Y-74815051D01*
X102362572Y-74775269D01*
X102479786Y-74690109D01*
X102479788Y-74690106D01*
X102479792Y-74690104D01*
X102630104Y-74539792D01*
X102630106Y-74539788D01*
X102630109Y-74539786D01*
X102755048Y-74367820D01*
X102755047Y-74367820D01*
X102755051Y-74367816D01*
X102851557Y-74178412D01*
X102917246Y-73976243D01*
X102950500Y-73766287D01*
X102950500Y-73553713D01*
X102917246Y-73343757D01*
X102851557Y-73141588D01*
X102755051Y-72952184D01*
X102755049Y-72952181D01*
X102755048Y-72952179D01*
X102630109Y-72780213D01*
X102479786Y-72629890D01*
X102307820Y-72504951D01*
X102307115Y-72504591D01*
X102299054Y-72500485D01*
X102248259Y-72452512D01*
X102231463Y-72384692D01*
X102253999Y-72318556D01*
X102299054Y-72279515D01*
X102307816Y-72275051D01*
X102394138Y-72212335D01*
X102479786Y-72150109D01*
X102479788Y-72150106D01*
X102479792Y-72150104D01*
X102630104Y-71999792D01*
X102630106Y-71999788D01*
X102630109Y-71999786D01*
X102755048Y-71827820D01*
X102755047Y-71827820D01*
X102755051Y-71827816D01*
X102851557Y-71638412D01*
X102917246Y-71436243D01*
X102950500Y-71226287D01*
X102950500Y-71013713D01*
X102917246Y-70803757D01*
X102851557Y-70601588D01*
X102755051Y-70412184D01*
X102755049Y-70412181D01*
X102755048Y-70412179D01*
X102630109Y-70240213D01*
X102479786Y-70089890D01*
X102307820Y-69964951D01*
X102307115Y-69964591D01*
X102299054Y-69960485D01*
X102248259Y-69912512D01*
X102231463Y-69844692D01*
X102253999Y-69778556D01*
X102299054Y-69739515D01*
X102307816Y-69735051D01*
X102383600Y-69679991D01*
X102479786Y-69610109D01*
X102479788Y-69610106D01*
X102479792Y-69610104D01*
X102630104Y-69459792D01*
X102630106Y-69459788D01*
X102630109Y-69459786D01*
X102755048Y-69287820D01*
X102755047Y-69287820D01*
X102755051Y-69287816D01*
X102851557Y-69098412D01*
X102917246Y-68896243D01*
X102950500Y-68686287D01*
X102950500Y-68473713D01*
X102917246Y-68263757D01*
X102851557Y-68061588D01*
X102755051Y-67872184D01*
X102755049Y-67872181D01*
X102755048Y-67872179D01*
X102630109Y-67700213D01*
X102516181Y-67586285D01*
X102482696Y-67524962D01*
X102487680Y-67455270D01*
X102529552Y-67399337D01*
X102560529Y-67382422D01*
X102692086Y-67333354D01*
X102692093Y-67333350D01*
X102807187Y-67247190D01*
X102807190Y-67247187D01*
X102893350Y-67132093D01*
X102893354Y-67132086D01*
X102943596Y-66997379D01*
X102943598Y-66997372D01*
X102949999Y-66937844D01*
X102950000Y-66937827D01*
X102950000Y-66290000D01*
X102033012Y-66290000D01*
X102065925Y-66232993D01*
X102100000Y-66105826D01*
X102100000Y-65974174D01*
X102065925Y-65847007D01*
X102033012Y-65790000D01*
X102950000Y-65790000D01*
X102950000Y-65142172D01*
X102949999Y-65142155D01*
X102943598Y-65082627D01*
X102943596Y-65082620D01*
X102893354Y-64947913D01*
X102893350Y-64947906D01*
X102807190Y-64832812D01*
X102807187Y-64832809D01*
X102692093Y-64746649D01*
X102692086Y-64746645D01*
X102557379Y-64696403D01*
X102557372Y-64696401D01*
X102497844Y-64690000D01*
X101850000Y-64690000D01*
X101850000Y-65606988D01*
X101792993Y-65574075D01*
X101665826Y-65540000D01*
X101534174Y-65540000D01*
X101407007Y-65574075D01*
X101350000Y-65606988D01*
X101350000Y-64690000D01*
X100702155Y-64690000D01*
X100642627Y-64696401D01*
X100642616Y-64696404D01*
X100588183Y-64716706D01*
X100518491Y-64721690D01*
X100457169Y-64688204D01*
X100423684Y-64626881D01*
X100420851Y-64600524D01*
X100420851Y-64317358D01*
X98250731Y-64317358D01*
X98250731Y-67131454D01*
X100244102Y-67131454D01*
X100311141Y-67151139D01*
X100343368Y-67181142D01*
X100392812Y-67247190D01*
X100507906Y-67333350D01*
X100507913Y-67333354D01*
X100639470Y-67382422D01*
X100695404Y-67424293D01*
X100719821Y-67489758D01*
X100704969Y-67558031D01*
X100683819Y-67586285D01*
X100569889Y-67700215D01*
X100444951Y-67872179D01*
X100348444Y-68061585D01*
X100282753Y-68263760D01*
X100249500Y-68473713D01*
X100249500Y-68686286D01*
X100282753Y-68896239D01*
X100348444Y-69098414D01*
X100444951Y-69287820D01*
X100569890Y-69459786D01*
X100720213Y-69610109D01*
X100892182Y-69735050D01*
X100900946Y-69739516D01*
X100951742Y-69787491D01*
X100968536Y-69855312D01*
X100945998Y-69921447D01*
X100900946Y-69960484D01*
X100892182Y-69964949D01*
X100720213Y-70089890D01*
X100569890Y-70240213D01*
X100444951Y-70412179D01*
X100348444Y-70601585D01*
X100282753Y-70803760D01*
X100249500Y-71013713D01*
X100249500Y-71226286D01*
X100282753Y-71436239D01*
X100348444Y-71638414D01*
X100444951Y-71827820D01*
X100569890Y-71999786D01*
X100720213Y-72150109D01*
X100892182Y-72275050D01*
X100900946Y-72279516D01*
X100951742Y-72327491D01*
X100968536Y-72395312D01*
X100945998Y-72461447D01*
X100900946Y-72500484D01*
X100892182Y-72504949D01*
X100720213Y-72629890D01*
X100569890Y-72780213D01*
X100444951Y-72952179D01*
X100348444Y-73141585D01*
X100282753Y-73343760D01*
X100249500Y-73553713D01*
X100249500Y-73766286D01*
X100282753Y-73976239D01*
X100348444Y-74178414D01*
X100444951Y-74367820D01*
X100569890Y-74539786D01*
X100720213Y-74690109D01*
X100892182Y-74815050D01*
X100900946Y-74819516D01*
X100951742Y-74867491D01*
X100968536Y-74935312D01*
X100945998Y-75001447D01*
X100900946Y-75040484D01*
X100892182Y-75044949D01*
X100720213Y-75169890D01*
X100569890Y-75320213D01*
X100444951Y-75492179D01*
X100348444Y-75681585D01*
X100282753Y-75883760D01*
X100249500Y-76093713D01*
X100249500Y-76306286D01*
X100282753Y-76516240D01*
X100336671Y-76682182D01*
X100338666Y-76752023D01*
X100302586Y-76811856D01*
X100239885Y-76842684D01*
X100218740Y-76844500D01*
X90281260Y-76844500D01*
X90214221Y-76824815D01*
X90168466Y-76772011D01*
X90158522Y-76702853D01*
X90163329Y-76682182D01*
X90189486Y-76601678D01*
X90217246Y-76516243D01*
X90250500Y-76306287D01*
X90250500Y-76093713D01*
X90217246Y-75883757D01*
X90151557Y-75681588D01*
X90055051Y-75492184D01*
X90055049Y-75492181D01*
X90055048Y-75492179D01*
X89930109Y-75320213D01*
X89779786Y-75169890D01*
X89607820Y-75044951D01*
X89418414Y-74948444D01*
X89418413Y-74948443D01*
X89418412Y-74948443D01*
X89216243Y-74882754D01*
X89216241Y-74882753D01*
X89216240Y-74882753D01*
X89054957Y-74857208D01*
X89006287Y-74849500D01*
X88793713Y-74849500D01*
X88745042Y-74857208D01*
X88583760Y-74882753D01*
X88381585Y-74948444D01*
X88192179Y-75044951D01*
X88020213Y-75169890D01*
X87869890Y-75320213D01*
X87744949Y-75492182D01*
X87740484Y-75500946D01*
X87692509Y-75551742D01*
X87624688Y-75568536D01*
X87558553Y-75545998D01*
X87519516Y-75500946D01*
X87515050Y-75492182D01*
X87390109Y-75320213D01*
X87239786Y-75169890D01*
X87067820Y-75044951D01*
X86878414Y-74948444D01*
X86878413Y-74948443D01*
X86878412Y-74948443D01*
X86676243Y-74882754D01*
X86676241Y-74882753D01*
X86676240Y-74882753D01*
X86514957Y-74857208D01*
X86466287Y-74849500D01*
X86253713Y-74849500D01*
X86205042Y-74857208D01*
X86043760Y-74882753D01*
X85841585Y-74948444D01*
X85652179Y-75044951D01*
X85480213Y-75169890D01*
X85329890Y-75320213D01*
X85204951Y-75492179D01*
X85108444Y-75681585D01*
X85042753Y-75883760D01*
X85009500Y-76093713D01*
X76835000Y-76093713D01*
X76835000Y-61719000D01*
X76854685Y-61651961D01*
X76907489Y-61606206D01*
X76959000Y-61595000D01*
X151641000Y-61595000D01*
X151708039Y-61614685D01*
G37*
%TD.AperFunction*%
%TD*%
M02*
