M48
; DRILL file {KiCad 9.0.2} date 2026-01-19T20:33:52+0100
; FORMAT={-:-/ absolute / metric / decimal}
; #@! TF.CreationDate,2026-01-19T20:33:52+01:00
; #@! TF.GenerationSoftware,Kicad,Pcbnew,9.0.2
; #@! TF.FileFunction,Plated,1,2,PTH
FMAT,2
METRIC
; #@! TA.AperFunction,Plated,PTH,ViaDrill
T1C0.300
; #@! TA.AperFunction,Plated,PTH,ComponentDrill
T2C0.800
; #@! TA.AperFunction,Plated,PTH,ComponentDrill
T3C1.000
; #@! TA.AperFunction,Plated,PTH,ComponentDrill
T4C3.200
%
G90
G05
T1
X104.322Y-119.57
X104.75Y-112.437
X105.723Y-81.872
X106.375Y-117.883
X109.486Y-122.998
X112.15Y-122.998
X116.21Y-113.368
T2
X86.36Y-101.6
X86.36Y-127.0
X88.9Y-101.6
X88.9Y-127.0
X91.44Y-101.6
X91.44Y-127.0
X93.98Y-101.6
X93.98Y-127.0
X96.52Y-101.6
X96.52Y-127.0
X99.06Y-101.6
X99.06Y-127.0
X101.6Y-86.36
X101.6Y-88.9
X101.6Y-91.44
X101.6Y-93.98
X101.6Y-101.6
X101.6Y-127.0
X104.14Y-101.6
X104.14Y-127.0
X106.68Y-101.6
X106.68Y-127.0
X109.22Y-101.6
X109.22Y-127.0
X111.76Y-101.6
X111.76Y-127.0
X114.3Y-86.36
X114.3Y-88.9
X114.3Y-91.44
X114.3Y-93.98
X114.3Y-101.6
X114.3Y-127.0
X116.84Y-101.6
X116.84Y-127.0
X119.38Y-101.6
X119.38Y-127.0
X121.92Y-101.6
X121.92Y-127.0
X124.46Y-101.6
X124.46Y-127.0
X127.0Y-101.6
X127.0Y-127.0
X129.537Y-101.604
X129.54Y-127.0
X132.077Y-101.604
X132.08Y-127.0
T3
X86.36Y-76.2
X86.36Y-78.74
X86.36Y-81.28
X86.36Y-83.82
X88.9Y-76.2
X88.9Y-78.74
X88.9Y-81.28
X88.9Y-83.82
X101.6Y-66.04
X101.6Y-68.58
X101.6Y-71.12
X101.6Y-73.66
X101.6Y-76.2
X101.6Y-78.74
X134.62Y-71.12
X134.62Y-73.66
X134.62Y-76.2
X134.62Y-78.74
X134.62Y-81.28
X134.62Y-83.82
X134.62Y-86.36
X134.62Y-88.9
X134.62Y-91.44
X134.62Y-93.98
X144.78Y-99.06
X144.78Y-101.6
X144.78Y-104.14
X144.78Y-106.68
X144.78Y-109.22
X144.78Y-111.76
X144.78Y-114.3
X144.78Y-116.84
X144.78Y-119.38
X144.78Y-121.92
X144.78Y-124.46
X144.78Y-127.0
T4
X148.59Y-64.77
X148.59Y-129.54
M30
