%TF.GenerationSoftware,KiCad,Pcbnew,9.0.2*%
%TF.CreationDate,2026-01-19T20:33:59+01:00*%
%TF.ProjectId,Filament-Silicagel-Dryer,46696c61-6d65-46e7-942d-53696c696361,rev?*%
%TF.SameCoordinates,Original*%
%TF.FileFunction,Soldermask,Bot*%
%TF.FilePolarity,Negative*%
%FSLAX46Y46*%
G04 Gerber Fmt 4.6, Leading zero omitted, Abs format (unit mm)*
G04 Created by KiCad (PCBNEW 9.0.2) date 2026-01-19 20:33:59*
%MOMM*%
%LPD*%
G01*
G04 APERTURE LIST*
G04 Aperture macros list*
%AMRoundRect*
0 Rectangle with rounded corners*
0 $1 Rounding radius*
0 $2 $3 $4 $5 $6 $7 $8 $9 X,Y pos of 4 corners*
0 Add a 4 corners polygon primitive as box body*
4,1,4,$2,$3,$4,$5,$6,$7,$8,$9,$2,$3,0*
0 Add four circle primitives for the rounded corners*
1,1,$1+$1,$2,$3*
1,1,$1+$1,$4,$5*
1,1,$1+$1,$6,$7*
1,1,$1+$1,$8,$9*
0 Add four rect primitives between the rounded corners*
20,1,$1+$1,$2,$3,$4,$5,0*
20,1,$1+$1,$4,$5,$6,$7,0*
20,1,$1+$1,$6,$7,$8,$9,0*
20,1,$1+$1,$8,$9,$2,$3,0*%
G04 Aperture macros list end*
%ADD10R,1.700000X1.700000*%
%ADD11C,1.700000*%
%ADD12C,5.600000*%
%ADD13R,1.200000X2.000000*%
%ADD14O,1.200000X2.000000*%
%ADD15O,2.000000X1.200000*%
%ADD16RoundRect,0.250000X-0.625000X0.312500X-0.625000X-0.312500X0.625000X-0.312500X0.625000X0.312500X0*%
%ADD17RoundRect,0.250000X0.625000X-0.312500X0.625000X0.312500X-0.625000X0.312500X-0.625000X-0.312500X0*%
G04 APERTURE END LIST*
D10*
%TO.C,J3*%
X101600000Y-66040000D03*
D11*
X101600000Y-68580000D03*
X101600000Y-71120000D03*
X101600000Y-73660000D03*
X101600000Y-76200000D03*
X101600000Y-78740000D03*
%TD*%
D10*
%TO.C,J2*%
X88900000Y-83820000D03*
D11*
X86360000Y-83820000D03*
X88900000Y-81280000D03*
X86360000Y-81280000D03*
X88900000Y-78740000D03*
X86360000Y-78740000D03*
X88900000Y-76200000D03*
X86360000Y-76200000D03*
%TD*%
D12*
%TO.C,REF\u002A\u002A*%
X148590000Y-129540000D03*
%TD*%
D13*
%TO.C,U1*%
X86360000Y-127000000D03*
D14*
X88900000Y-127000000D03*
X91440000Y-127000000D03*
X93980000Y-127000000D03*
X96520000Y-127000000D03*
X99060000Y-127000000D03*
X101600000Y-127000000D03*
X104140000Y-127000000D03*
X106680000Y-127000000D03*
X109220000Y-127000000D03*
X111760000Y-127000000D03*
X114300000Y-127000000D03*
X116840000Y-127000000D03*
X119380000Y-127000000D03*
X121920000Y-127000000D03*
X124460000Y-127000000D03*
X127000000Y-127000000D03*
X129540000Y-127000000D03*
X132080000Y-127000000D03*
X132077280Y-101603680D03*
X129537280Y-101603680D03*
X127000000Y-101600000D03*
X124460000Y-101600000D03*
X121920000Y-101600000D03*
X119380000Y-101600000D03*
X116840000Y-101600000D03*
X114300000Y-101600000D03*
X111760000Y-101600000D03*
X109220000Y-101600000D03*
X106680000Y-101600000D03*
X104140000Y-101600000D03*
X101600000Y-101600000D03*
X99060000Y-101600000D03*
X96520000Y-101600000D03*
X93980000Y-101600000D03*
X91440000Y-101600000D03*
X88900000Y-101600000D03*
X86360000Y-101600000D03*
%TD*%
D15*
%TO.C,U2*%
X101600000Y-86360000D03*
X101600000Y-88900000D03*
X101600000Y-91440000D03*
X101600000Y-93980000D03*
X114300000Y-93980000D03*
X114300000Y-91440000D03*
X114300000Y-88900000D03*
X114300000Y-86360000D03*
%TD*%
D10*
%TO.C,U3*%
X134620000Y-71120000D03*
D11*
X134620000Y-73660000D03*
X134620000Y-76200000D03*
X134620000Y-78740000D03*
X134620000Y-81280000D03*
X134620000Y-83820000D03*
X134620000Y-86360000D03*
X134620000Y-88900000D03*
X134620000Y-91440000D03*
X134620000Y-93980000D03*
%TD*%
D12*
%TO.C,REF\u002A\u002A*%
X148590000Y-64770000D03*
%TD*%
D10*
%TO.C,J1*%
X144780000Y-99060000D03*
D11*
X144780000Y-101600000D03*
X144780000Y-104140000D03*
X144780000Y-106680000D03*
X144780000Y-109220000D03*
X144780000Y-111760000D03*
X144780000Y-114300000D03*
X144780000Y-116840000D03*
X144780000Y-119380000D03*
X144780000Y-121920000D03*
X144780000Y-124460000D03*
X144780000Y-127000000D03*
%TD*%
D16*
%TO.C,R3*%
X116840000Y-121535000D03*
X116840000Y-124460000D03*
%TD*%
%TO.C,R1*%
X101600000Y-121535000D03*
X101600000Y-124460000D03*
%TD*%
%TO.C,R2*%
X104140000Y-121535000D03*
X104140000Y-124460000D03*
%TD*%
D17*
%TO.C,R4*%
X106680000Y-124460000D03*
X106680000Y-121535000D03*
%TD*%
%TO.C,R5*%
X109220000Y-124460000D03*
X109220000Y-121535000D03*
%TD*%
%TO.C,R6*%
X111760000Y-124460000D03*
X111760000Y-121535000D03*
%TD*%
M02*
